<svg xmlns="http://www.w3.org/2000/svg" viewBox="0 0 1080 1350" preserveAspectRatio="xMidYMid slice">
  <defs>
    <linearGradient id="bgFoil" x1="0" y1="0" x2="0" y2="1">
      <stop offset="0%" stop-color="#1f1408"/>
      <stop offset="50%" stop-color="#0e0a04"/>
      <stop offset="100%" stop-color="#050301"/>
    </linearGradient>
    <linearGradient id="accFoil" x1="0" y1="0" x2="1" y2="0">
      <stop offset="0%" stop-color="#d4a020" stop-opacity="0"/>
      <stop offset="50%" stop-color="#d4a020" stop-opacity="0.8"/>
      <stop offset="100%" stop-color="#d4a020" stop-opacity="0"/>
    </linearGradient>
    <linearGradient id="foilShine" x1="0" y1="0" x2="1" y2="1">
      <stop offset="0%" stop-color="#d4a020" stop-opacity="0"/>
      <stop offset="40%" stop-color="#d4a020" stop-opacity="0"/>
      <stop offset="48%" stop-color="#f5ebd7" stop-opacity="0.2"/>
      <stop offset="50%" stop-color="#fff8c8" stop-opacity="0.35"/>
      <stop offset="52%" stop-color="#f5ebd7" stop-opacity="0.2"/>
      <stop offset="60%" stop-color="#d4a020" stop-opacity="0"/>
      <stop offset="100%" stop-color="#d4a020" stop-opacity="0"/>
    </linearGradient>
    <radialGradient id="vigFoil" cx="50%" cy="50%" r="70%">
      <stop offset="55%" stop-color="#000" stop-opacity="0"/>
      <stop offset="100%" stop-color="#000" stop-opacity="0.4"/>
    </radialGradient>
    <style>
      @keyframes shineSweep { 0% { transform: translateX(-1200px) } 100% { transform: translateX(1200px) } }
      .shine-band { animation: shineSweep 6s linear infinite; }
      @keyframes twinkle { 0%,100% { opacity: 0.2 } 50% { opacity: 1 } }
      .sparkle { animation: twinkle 2s ease-in-out infinite; }
      .sparkle:nth-child(2n) { animation-delay: 0.5s; }
      .sparkle:nth-child(3n) { animation-delay: 1s; }
      .sparkle:nth-child(4n) { animation-delay: 1.5s; }
    </style>
  </defs>

  <rect width="1080" height="1350" fill="url(#bgFoil)"/>

  <!-- Hexagonal refractor pattern (Panini Prizm style) -->
<g opacity="0.12">
<polygon points="-36.6,0.0 -61.6,43.3 -111.6,43.3 -136.6,0.0 -111.6,-43.3 -61.6,-43.3" fill="none" stroke="#d4a020" stroke-width="0.5"/>
<polygon points="50.0,0.0 25.0,43.3 -25.0,43.3 -50.0,0.0 -25.0,-43.3 25.0,-43.3" fill="none" stroke="#d4a020" stroke-width="0.5"/>
<polygon points="136.6,0.0 111.6,43.3 61.6,43.3 36.6,0.0 61.6,-43.3 111.6,-43.3" fill="none" stroke="#d4a020" stroke-width="0.5"/>
<polygon points="223.2,0.0 198.2,43.3 148.2,43.3 123.2,0.0 148.2,-43.3 198.2,-43.3" fill="none" stroke="#d4a020" stroke-width="0.5"/>
<polygon points="309.8,0.0 284.8,43.3 234.8,43.3 209.8,0.0 234.8,-43.3 284.8,-43.3" fill="none" stroke="#d4a020" stroke-width="0.5"/>
<polygon points="396.4,0.0 371.4,43.3 321.4,43.3 296.4,0.0 321.4,-43.3 371.4,-43.3" fill="none" stroke="#d4a020" stroke-width="0.5"/>
<polygon points="483.0,0.0 458.0,43.3 408.0,43.3 383.0,0.0 408.0,-43.3 458.0,-43.3" fill="none" stroke="#d4a020" stroke-width="0.5"/>
<polygon points="569.6,0.0 544.6,43.3 494.6,43.3 469.6,0.0 494.6,-43.3 544.6,-43.3" fill="none" stroke="#d4a020" stroke-width="0.5"/>
<polygon points="656.2,0.0 631.2,43.3 581.2,43.3 556.2,0.0 581.2,-43.3 631.2,-43.3" fill="none" stroke="#d4a020" stroke-width="0.5"/>
<polygon points="742.8,0.0 717.8,43.3 667.8,43.3 642.8,0.0 667.8,-43.3 717.8,-43.3" fill="none" stroke="#d4a020" stroke-width="0.5"/>
<polygon points="829.4,0.0 804.4,43.3 754.4,43.3 729.4,0.0 754.4,-43.3 804.4,-43.3" fill="none" stroke="#d4a020" stroke-width="0.5"/>
<polygon points="916.0,0.0 891.0,43.3 841.0,43.3 816.0,0.0 841.0,-43.3 891.0,-43.3" fill="none" stroke="#d4a020" stroke-width="0.5"/>
<polygon points="1002.6,0.0 977.6,43.3 927.6,43.3 902.6,0.0 927.6,-43.3 977.6,-43.3" fill="none" stroke="#d4a020" stroke-width="0.5"/>
<polygon points="1089.2,0.0 1064.2,43.3 1014.2,43.3 989.2,0.0 1014.2,-43.3 1064.2,-43.3" fill="none" stroke="#d4a020" stroke-width="0.5"/>
<polygon points="1175.8,0.0 1150.8,43.3 1100.8,43.3 1075.8,0.0 1100.8,-43.3 1150.8,-43.3" fill="none" stroke="#d4a020" stroke-width="0.5"/>
<polygon points="-36.6,43.3 -61.6,86.6 -111.6,86.6 -136.6,43.3 -111.6,-0.0 -61.6,-0.0" fill="none" stroke="#d4a020" stroke-width="0.5"/>
<polygon points="50.0,43.3 25.0,86.6 -25.0,86.6 -50.0,43.3 -25.0,-0.0 25.0,-0.0" fill="none" stroke="#d4a020" stroke-width="0.5"/>
<polygon points="136.6,43.3 111.6,86.6 61.6,86.6 36.6,43.3 61.6,-0.0 111.6,-0.0" fill="none" stroke="#d4a020" stroke-width="0.5"/>
<polygon points="223.2,43.3 198.2,86.6 148.2,86.6 123.2,43.3 148.2,-0.0 198.2,-0.0" fill="none" stroke="#d4a020" stroke-width="0.5"/>
<polygon points="309.8,43.3 284.8,86.6 234.8,86.6 209.8,43.3 234.8,-0.0 284.8,-0.0" fill="none" stroke="#d4a020" stroke-width="0.5"/>
<polygon points="396.4,43.3 371.4,86.6 321.4,86.6 296.4,43.3 321.4,-0.0 371.4,-0.0" fill="none" stroke="#d4a020" stroke-width="0.5"/>
<polygon points="483.0,43.3 458.0,86.6 408.0,86.6 383.0,43.3 408.0,-0.0 458.0,-0.0" fill="none" stroke="#d4a020" stroke-width="0.5"/>
<polygon points="569.6,43.3 544.6,86.6 494.6,86.6 469.6,43.3 494.6,-0.0 544.6,-0.0" fill="none" stroke="#d4a020" stroke-width="0.5"/>
<polygon points="656.2,43.3 631.2,86.6 581.2,86.6 556.2,43.3 581.2,-0.0 631.2,-0.0" fill="none" stroke="#d4a020" stroke-width="0.5"/>
<polygon points="742.8,43.3 717.8,86.6 667.8,86.6 642.8,43.3 667.8,-0.0 717.8,-0.0" fill="none" stroke="#d4a020" stroke-width="0.5"/>
<polygon points="829.4,43.3 804.4,86.6 754.4,86.6 729.4,43.3 754.4,-0.0 804.4,-0.0" fill="none" stroke="#d4a020" stroke-width="0.5"/>
<polygon points="916.0,43.3 891.0,86.6 841.0,86.6 816.0,43.3 841.0,-0.0 891.0,-0.0" fill="none" stroke="#d4a020" stroke-width="0.5"/>
<polygon points="1002.6,43.3 977.6,86.6 927.6,86.6 902.6,43.3 927.6,-0.0 977.6,-0.0" fill="none" stroke="#d4a020" stroke-width="0.5"/>
<polygon points="1089.2,43.3 1064.2,86.6 1014.2,86.6 989.2,43.3 1014.2,-0.0 1064.2,-0.0" fill="none" stroke="#d4a020" stroke-width="0.5"/>
<polygon points="1175.8,43.3 1150.8,86.6 1100.8,86.6 1075.8,43.3 1100.8,-0.0 1150.8,-0.0" fill="none" stroke="#d4a020" stroke-width="0.5"/>
<polygon points="-36.6,86.6 -61.6,129.9 -111.6,129.9 -136.6,86.6 -111.6,43.3 -61.6,43.3" fill="none" stroke="#d4a020" stroke-width="0.5"/>
<polygon points="50.0,86.6 25.0,129.9 -25.0,129.9 -50.0,86.6 -25.0,43.3 25.0,43.3" fill="none" stroke="#d4a020" stroke-width="0.5"/>
<polygon points="136.6,86.6 111.6,129.9 61.6,129.9 36.6,86.6 61.6,43.3 111.6,43.3" fill="none" stroke="#d4a020" stroke-width="0.5"/>
<polygon points="223.2,86.6 198.2,129.9 148.2,129.9 123.2,86.6 148.2,43.3 198.2,43.3" fill="none" stroke="#d4a020" stroke-width="0.5"/>
<polygon points="309.8,86.6 284.8,129.9 234.8,129.9 209.8,86.6 234.8,43.3 284.8,43.3" fill="none" stroke="#d4a020" stroke-width="0.5"/>
<polygon points="396.4,86.6 371.4,129.9 321.4,129.9 296.4,86.6 321.4,43.3 371.4,43.3" fill="none" stroke="#d4a020" stroke-width="0.5"/>
<polygon points="483.0,86.6 458.0,129.9 408.0,129.9 383.0,86.6 408.0,43.3 458.0,43.3" fill="none" stroke="#d4a020" stroke-width="0.5"/>
<polygon points="569.6,86.6 544.6,129.9 494.6,129.9 469.6,86.6 494.6,43.3 544.6,43.3" fill="none" stroke="#d4a020" stroke-width="0.5"/>
<polygon points="656.2,86.6 631.2,129.9 581.2,129.9 556.2,86.6 581.2,43.3 631.2,43.3" fill="none" stroke="#d4a020" stroke-width="0.5"/>
<polygon points="742.8,86.6 717.8,129.9 667.8,129.9 642.8,86.6 667.8,43.3 717.8,43.3" fill="none" stroke="#d4a020" stroke-width="0.5"/>
<polygon points="829.4,86.6 804.4,129.9 754.4,129.9 729.4,86.6 754.4,43.3 804.4,43.3" fill="none" stroke="#d4a020" stroke-width="0.5"/>
<polygon points="916.0,86.6 891.0,129.9 841.0,129.9 816.0,86.6 841.0,43.3 891.0,43.3" fill="none" stroke="#d4a020" stroke-width="0.5"/>
<polygon points="1002.6,86.6 977.6,129.9 927.6,129.9 902.6,86.6 927.6,43.3 977.6,43.3" fill="none" stroke="#d4a020" stroke-width="0.5"/>
<polygon points="1089.2,86.6 1064.2,129.9 1014.2,129.9 989.2,86.6 1014.2,43.3 1064.2,43.3" fill="none" stroke="#d4a020" stroke-width="0.5"/>
<polygon points="1175.8,86.6 1150.8,129.9 1100.8,129.9 1075.8,86.6 1100.8,43.3 1150.8,43.3" fill="none" stroke="#d4a020" stroke-width="0.5"/>
<polygon points="-36.6,129.9 -61.6,173.2 -111.6,173.2 -136.6,129.9 -111.6,86.6 -61.6,86.6" fill="none" stroke="#d4a020" stroke-width="0.5"/>
<polygon points="50.0,129.9 25.0,173.2 -25.0,173.2 -50.0,129.9 -25.0,86.6 25.0,86.6" fill="none" stroke="#d4a020" stroke-width="0.5"/>
<polygon points="136.6,129.9 111.6,173.2 61.6,173.2 36.6,129.9 61.6,86.6 111.6,86.6" fill="none" stroke="#d4a020" stroke-width="0.5"/>
<polygon points="223.2,129.9 198.2,173.2 148.2,173.2 123.2,129.9 148.2,86.6 198.2,86.6" fill="none" stroke="#d4a020" stroke-width="0.5"/>
<polygon points="309.8,129.9 284.8,173.2 234.8,173.2 209.8,129.9 234.8,86.6 284.8,86.6" fill="none" stroke="#d4a020" stroke-width="0.5"/>
<polygon points="396.4,129.9 371.4,173.2 321.4,173.2 296.4,129.9 321.4,86.6 371.4,86.6" fill="none" stroke="#d4a020" stroke-width="0.5"/>
<polygon points="483.0,129.9 458.0,173.2 408.0,173.2 383.0,129.9 408.0,86.6 458.0,86.6" fill="none" stroke="#d4a020" stroke-width="0.5"/>
<polygon points="569.6,129.9 544.6,173.2 494.6,173.2 469.6,129.9 494.6,86.6 544.6,86.6" fill="none" stroke="#d4a020" stroke-width="0.5"/>
<polygon points="656.2,129.9 631.2,173.2 581.2,173.2 556.2,129.9 581.2,86.6 631.2,86.6" fill="none" stroke="#d4a020" stroke-width="0.5"/>
<polygon points="742.8,129.9 717.8,173.2 667.8,173.2 642.8,129.9 667.8,86.6 717.8,86.6" fill="none" stroke="#d4a020" stroke-width="0.5"/>
<polygon points="829.4,129.9 804.4,173.2 754.4,173.2 729.4,129.9 754.4,86.6 804.4,86.6" fill="none" stroke="#d4a020" stroke-width="0.5"/>
<polygon points="916.0,129.9 891.0,173.2 841.0,173.2 816.0,129.9 841.0,86.6 891.0,86.6" fill="none" stroke="#d4a020" stroke-width="0.5"/>
<polygon points="1002.6,129.9 977.6,173.2 927.6,173.2 902.6,129.9 927.6,86.6 977.6,86.6" fill="none" stroke="#d4a020" stroke-width="0.5"/>
<polygon points="1089.2,129.9 1064.2,173.2 1014.2,173.2 989.2,129.9 1014.2,86.6 1064.2,86.6" fill="none" stroke="#d4a020" stroke-width="0.5"/>
<polygon points="1175.8,129.9 1150.8,173.2 1100.8,173.2 1075.8,129.9 1100.8,86.6 1150.8,86.6" fill="none" stroke="#d4a020" stroke-width="0.5"/>
<polygon points="-36.6,173.2 -61.6,216.5 -111.6,216.5 -136.6,173.2 -111.6,129.9 -61.6,129.9" fill="none" stroke="#d4a020" stroke-width="0.5"/>
<polygon points="50.0,173.2 25.0,216.5 -25.0,216.5 -50.0,173.2 -25.0,129.9 25.0,129.9" fill="none" stroke="#d4a020" stroke-width="0.5"/>
<polygon points="136.6,173.2 111.6,216.5 61.6,216.5 36.6,173.2 61.6,129.9 111.6,129.9" fill="none" stroke="#d4a020" stroke-width="0.5"/>
<polygon points="223.2,173.2 198.2,216.5 148.2,216.5 123.2,173.2 148.2,129.9 198.2,129.9" fill="none" stroke="#d4a020" stroke-width="0.5"/>
<polygon points="309.8,173.2 284.8,216.5 234.8,216.5 209.8,173.2 234.8,129.9 284.8,129.9" fill="none" stroke="#d4a020" stroke-width="0.5"/>
<polygon points="396.4,173.2 371.4,216.5 321.4,216.5 296.4,173.2 321.4,129.9 371.4,129.9" fill="none" stroke="#d4a020" stroke-width="0.5"/>
<polygon points="483.0,173.2 458.0,216.5 408.0,216.5 383.0,173.2 408.0,129.9 458.0,129.9" fill="none" stroke="#d4a020" stroke-width="0.5"/>
<polygon points="569.6,173.2 544.6,216.5 494.6,216.5 469.6,173.2 494.6,129.9 544.6,129.9" fill="none" stroke="#d4a020" stroke-width="0.5"/>
<polygon points="656.2,173.2 631.2,216.5 581.2,216.5 556.2,173.2 581.2,129.9 631.2,129.9" fill="none" stroke="#d4a020" stroke-width="0.5"/>
<polygon points="742.8,173.2 717.8,216.5 667.8,216.5 642.8,173.2 667.8,129.9 717.8,129.9" fill="none" stroke="#d4a020" stroke-width="0.5"/>
<polygon points="829.4,173.2 804.4,216.5 754.4,216.5 729.4,173.2 754.4,129.9 804.4,129.9" fill="none" stroke="#d4a020" stroke-width="0.5"/>
<polygon points="916.0,173.2 891.0,216.5 841.0,216.5 816.0,173.2 841.0,129.9 891.0,129.9" fill="none" stroke="#d4a020" stroke-width="0.5"/>
<polygon points="1002.6,173.2 977.6,216.5 927.6,216.5 902.6,173.2 927.6,129.9 977.6,129.9" fill="none" stroke="#d4a020" stroke-width="0.5"/>
<polygon points="1089.2,173.2 1064.2,216.5 1014.2,216.5 989.2,173.2 1014.2,129.9 1064.2,129.9" fill="none" stroke="#d4a020" stroke-width="0.5"/>
<polygon points="1175.8,173.2 1150.8,216.5 1100.8,216.5 1075.8,173.2 1100.8,129.9 1150.8,129.9" fill="none" stroke="#d4a020" stroke-width="0.5"/>
<polygon points="-36.6,216.5 -61.6,259.8 -111.6,259.8 -136.6,216.5 -111.6,173.2 -61.6,173.2" fill="none" stroke="#d4a020" stroke-width="0.5"/>
<polygon points="50.0,216.5 25.0,259.8 -25.0,259.8 -50.0,216.5 -25.0,173.2 25.0,173.2" fill="none" stroke="#d4a020" stroke-width="0.5"/>
<polygon points="136.6,216.5 111.6,259.8 61.6,259.8 36.6,216.5 61.6,173.2 111.6,173.2" fill="none" stroke="#d4a020" stroke-width="0.5"/>
<polygon points="223.2,216.5 198.2,259.8 148.2,259.8 123.2,216.5 148.2,173.2 198.2,173.2" fill="none" stroke="#d4a020" stroke-width="0.5"/>
<polygon points="309.8,216.5 284.8,259.8 234.8,259.8 209.8,216.5 234.8,173.2 284.8,173.2" fill="none" stroke="#d4a020" stroke-width="0.5"/>
<polygon points="396.4,216.5 371.4,259.8 321.4,259.8 296.4,216.5 321.4,173.2 371.4,173.2" fill="none" stroke="#d4a020" stroke-width="0.5"/>
<polygon points="483.0,216.5 458.0,259.8 408.0,259.8 383.0,216.5 408.0,173.2 458.0,173.2" fill="none" stroke="#d4a020" stroke-width="0.5"/>
<polygon points="569.6,216.5 544.6,259.8 494.6,259.8 469.6,216.5 494.6,173.2 544.6,173.2" fill="none" stroke="#d4a020" stroke-width="0.5"/>
<polygon points="656.2,216.5 631.2,259.8 581.2,259.8 556.2,216.5 581.2,173.2 631.2,173.2" fill="none" stroke="#d4a020" stroke-width="0.5"/>
<polygon points="742.8,216.5 717.8,259.8 667.8,259.8 642.8,216.5 667.8,173.2 717.8,173.2" fill="none" stroke="#d4a020" stroke-width="0.5"/>
<polygon points="829.4,216.5 804.4,259.8 754.4,259.8 729.4,216.5 754.4,173.2 804.4,173.2" fill="none" stroke="#d4a020" stroke-width="0.5"/>
<polygon points="916.0,216.5 891.0,259.8 841.0,259.8 816.0,216.5 841.0,173.2 891.0,173.2" fill="none" stroke="#d4a020" stroke-width="0.5"/>
<polygon points="1002.6,216.5 977.6,259.8 927.6,259.8 902.6,216.5 927.6,173.2 977.6,173.2" fill="none" stroke="#d4a020" stroke-width="0.5"/>
<polygon points="1089.2,216.5 1064.2,259.8 1014.2,259.8 989.2,216.5 1014.2,173.2 1064.2,173.2" fill="none" stroke="#d4a020" stroke-width="0.5"/>
<polygon points="1175.8,216.5 1150.8,259.8 1100.8,259.8 1075.8,216.5 1100.8,173.2 1150.8,173.2" fill="none" stroke="#d4a020" stroke-width="0.5"/>
<polygon points="-36.6,259.8 -61.6,303.1 -111.6,303.1 -136.6,259.8 -111.6,216.5 -61.6,216.5" fill="none" stroke="#d4a020" stroke-width="0.5"/>
<polygon points="50.0,259.8 25.0,303.1 -25.0,303.1 -50.0,259.8 -25.0,216.5 25.0,216.5" fill="none" stroke="#d4a020" stroke-width="0.5"/>
<polygon points="136.6,259.8 111.6,303.1 61.6,303.1 36.6,259.8 61.6,216.5 111.6,216.5" fill="none" stroke="#d4a020" stroke-width="0.5"/>
<polygon points="223.2,259.8 198.2,303.1 148.2,303.1 123.2,259.8 148.2,216.5 198.2,216.5" fill="none" stroke="#d4a020" stroke-width="0.5"/>
<polygon points="309.8,259.8 284.8,303.1 234.8,303.1 209.8,259.8 234.8,216.5 284.8,216.5" fill="none" stroke="#d4a020" stroke-width="0.5"/>
<polygon points="396.4,259.8 371.4,303.1 321.4,303.1 296.4,259.8 321.4,216.5 371.4,216.5" fill="none" stroke="#d4a020" stroke-width="0.5"/>
<polygon points="483.0,259.8 458.0,303.1 408.0,303.1 383.0,259.8 408.0,216.5 458.0,216.5" fill="none" stroke="#d4a020" stroke-width="0.5"/>
<polygon points="569.6,259.8 544.6,303.1 494.6,303.1 469.6,259.8 494.6,216.5 544.6,216.5" fill="none" stroke="#d4a020" stroke-width="0.5"/>
<polygon points="656.2,259.8 631.2,303.1 581.2,303.1 556.2,259.8 581.2,216.5 631.2,216.5" fill="none" stroke="#d4a020" stroke-width="0.5"/>
<polygon points="742.8,259.8 717.8,303.1 667.8,303.1 642.8,259.8 667.8,216.5 717.8,216.5" fill="none" stroke="#d4a020" stroke-width="0.5"/>
<polygon points="829.4,259.8 804.4,303.1 754.4,303.1 729.4,259.8 754.4,216.5 804.4,216.5" fill="none" stroke="#d4a020" stroke-width="0.5"/>
<polygon points="916.0,259.8 891.0,303.1 841.0,303.1 816.0,259.8 841.0,216.5 891.0,216.5" fill="none" stroke="#d4a020" stroke-width="0.5"/>
<polygon points="1002.6,259.8 977.6,303.1 927.6,303.1 902.6,259.8 927.6,216.5 977.6,216.5" fill="none" stroke="#d4a020" stroke-width="0.5"/>
<polygon points="1089.2,259.8 1064.2,303.1 1014.2,303.1 989.2,259.8 1014.2,216.5 1064.2,216.5" fill="none" stroke="#d4a020" stroke-width="0.5"/>
<polygon points="1175.8,259.8 1150.8,303.1 1100.8,303.1 1075.8,259.8 1100.8,216.5 1150.8,216.5" fill="none" stroke="#d4a020" stroke-width="0.5"/>
<polygon points="-36.6,303.1 -61.6,346.4 -111.6,346.4 -136.6,303.1 -111.6,259.8 -61.6,259.8" fill="none" stroke="#d4a020" stroke-width="0.5"/>
<polygon points="50.0,303.1 25.0,346.4 -25.0,346.4 -50.0,303.1 -25.0,259.8 25.0,259.8" fill="none" stroke="#d4a020" stroke-width="0.5"/>
<polygon points="136.6,303.1 111.6,346.4 61.6,346.4 36.6,303.1 61.6,259.8 111.6,259.8" fill="none" stroke="#d4a020" stroke-width="0.5"/>
<polygon points="223.2,303.1 198.2,346.4 148.2,346.4 123.2,303.1 148.2,259.8 198.2,259.8" fill="none" stroke="#d4a020" stroke-width="0.5"/>
<polygon points="309.8,303.1 284.8,346.4 234.8,346.4 209.8,303.1 234.8,259.8 284.8,259.8" fill="none" stroke="#d4a020" stroke-width="0.5"/>
<polygon points="396.4,303.1 371.4,346.4 321.4,346.4 296.4,303.1 321.4,259.8 371.4,259.8" fill="none" stroke="#d4a020" stroke-width="0.5"/>
<polygon points="483.0,303.1 458.0,346.4 408.0,346.4 383.0,303.1 408.0,259.8 458.0,259.8" fill="none" stroke="#d4a020" stroke-width="0.5"/>
<polygon points="569.6,303.1 544.6,346.4 494.6,346.4 469.6,303.1 494.6,259.8 544.6,259.8" fill="none" stroke="#d4a020" stroke-width="0.5"/>
<polygon points="656.2,303.1 631.2,346.4 581.2,346.4 556.2,303.1 581.2,259.8 631.2,259.8" fill="none" stroke="#d4a020" stroke-width="0.5"/>
<polygon points="742.8,303.1 717.8,346.4 667.8,346.4 642.8,303.1 667.8,259.8 717.8,259.8" fill="none" stroke="#d4a020" stroke-width="0.5"/>
<polygon points="829.4,303.1 804.4,346.4 754.4,346.4 729.4,303.1 754.4,259.8 804.4,259.8" fill="none" stroke="#d4a020" stroke-width="0.5"/>
<polygon points="916.0,303.1 891.0,346.4 841.0,346.4 816.0,303.1 841.0,259.8 891.0,259.8" fill="none" stroke="#d4a020" stroke-width="0.5"/>
<polygon points="1002.6,303.1 977.6,346.4 927.6,346.4 902.6,303.1 927.6,259.8 977.6,259.8" fill="none" stroke="#d4a020" stroke-width="0.5"/>
<polygon points="1089.2,303.1 1064.2,346.4 1014.2,346.4 989.2,303.1 1014.2,259.8 1064.2,259.8" fill="none" stroke="#d4a020" stroke-width="0.5"/>
<polygon points="1175.8,303.1 1150.8,346.4 1100.8,346.4 1075.8,303.1 1100.8,259.8 1150.8,259.8" fill="none" stroke="#d4a020" stroke-width="0.5"/>
<polygon points="-36.6,346.4 -61.6,389.7 -111.6,389.7 -136.6,346.4 -111.6,303.1 -61.6,303.1" fill="none" stroke="#d4a020" stroke-width="0.5"/>
<polygon points="50.0,346.4 25.0,389.7 -25.0,389.7 -50.0,346.4 -25.0,303.1 25.0,303.1" fill="none" stroke="#d4a020" stroke-width="0.5"/>
<polygon points="136.6,346.4 111.6,389.7 61.6,389.7 36.6,346.4 61.6,303.1 111.6,303.1" fill="none" stroke="#d4a020" stroke-width="0.5"/>
<polygon points="223.2,346.4 198.2,389.7 148.2,389.7 123.2,346.4 148.2,303.1 198.2,303.1" fill="none" stroke="#d4a020" stroke-width="0.5"/>
<polygon points="309.8,346.4 284.8,389.7 234.8,389.7 209.8,346.4 234.8,303.1 284.8,303.1" fill="none" stroke="#d4a020" stroke-width="0.5"/>
<polygon points="396.4,346.4 371.4,389.7 321.4,389.7 296.4,346.4 321.4,303.1 371.4,303.1" fill="none" stroke="#d4a020" stroke-width="0.5"/>
<polygon points="483.0,346.4 458.0,389.7 408.0,389.7 383.0,346.4 408.0,303.1 458.0,303.1" fill="none" stroke="#d4a020" stroke-width="0.5"/>
<polygon points="569.6,346.4 544.6,389.7 494.6,389.7 469.6,346.4 494.6,303.1 544.6,303.1" fill="none" stroke="#d4a020" stroke-width="0.5"/>
<polygon points="656.2,346.4 631.2,389.7 581.2,389.7 556.2,346.4 581.2,303.1 631.2,303.1" fill="none" stroke="#d4a020" stroke-width="0.5"/>
<polygon points="742.8,346.4 717.8,389.7 667.8,389.7 642.8,346.4 667.8,303.1 717.8,303.1" fill="none" stroke="#d4a020" stroke-width="0.5"/>
<polygon points="829.4,346.4 804.4,389.7 754.4,389.7 729.4,346.4 754.4,303.1 804.4,303.1" fill="none" stroke="#d4a020" stroke-width="0.5"/>
<polygon points="916.0,346.4 891.0,389.7 841.0,389.7 816.0,346.4 841.0,303.1 891.0,303.1" fill="none" stroke="#d4a020" stroke-width="0.5"/>
<polygon points="1002.6,346.4 977.6,389.7 927.6,389.7 902.6,346.4 927.6,303.1 977.6,303.1" fill="none" stroke="#d4a020" stroke-width="0.5"/>
<polygon points="1089.2,346.4 1064.2,389.7 1014.2,389.7 989.2,346.4 1014.2,303.1 1064.2,303.1" fill="none" stroke="#d4a020" stroke-width="0.5"/>
<polygon points="1175.8,346.4 1150.8,389.7 1100.8,389.7 1075.8,346.4 1100.8,303.1 1150.8,303.1" fill="none" stroke="#d4a020" stroke-width="0.5"/>
<polygon points="-36.6,389.7 -61.6,433.0 -111.6,433.0 -136.6,389.7 -111.6,346.4 -61.6,346.4" fill="none" stroke="#d4a020" stroke-width="0.5"/>
<polygon points="50.0,389.7 25.0,433.0 -25.0,433.0 -50.0,389.7 -25.0,346.4 25.0,346.4" fill="none" stroke="#d4a020" stroke-width="0.5"/>
<polygon points="136.6,389.7 111.6,433.0 61.6,433.0 36.6,389.7 61.6,346.4 111.6,346.4" fill="none" stroke="#d4a020" stroke-width="0.5"/>
<polygon points="223.2,389.7 198.2,433.0 148.2,433.0 123.2,389.7 148.2,346.4 198.2,346.4" fill="none" stroke="#d4a020" stroke-width="0.5"/>
<polygon points="309.8,389.7 284.8,433.0 234.8,433.0 209.8,389.7 234.8,346.4 284.8,346.4" fill="none" stroke="#d4a020" stroke-width="0.5"/>
<polygon points="396.4,389.7 371.4,433.0 321.4,433.0 296.4,389.7 321.4,346.4 371.4,346.4" fill="none" stroke="#d4a020" stroke-width="0.5"/>
<polygon points="483.0,389.7 458.0,433.0 408.0,433.0 383.0,389.7 408.0,346.4 458.0,346.4" fill="none" stroke="#d4a020" stroke-width="0.5"/>
<polygon points="569.6,389.7 544.6,433.0 494.6,433.0 469.6,389.7 494.6,346.4 544.6,346.4" fill="none" stroke="#d4a020" stroke-width="0.5"/>
<polygon points="656.2,389.7 631.2,433.0 581.2,433.0 556.2,389.7 581.2,346.4 631.2,346.4" fill="none" stroke="#d4a020" stroke-width="0.5"/>
<polygon points="742.8,389.7 717.8,433.0 667.8,433.0 642.8,389.7 667.8,346.4 717.8,346.4" fill="none" stroke="#d4a020" stroke-width="0.5"/>
<polygon points="829.4,389.7 804.4,433.0 754.4,433.0 729.4,389.7 754.4,346.4 804.4,346.4" fill="none" stroke="#d4a020" stroke-width="0.5"/>
<polygon points="916.0,389.7 891.0,433.0 841.0,433.0 816.0,389.7 841.0,346.4 891.0,346.4" fill="none" stroke="#d4a020" stroke-width="0.5"/>
<polygon points="1002.6,389.7 977.6,433.0 927.6,433.0 902.6,389.7 927.6,346.4 977.6,346.4" fill="none" stroke="#d4a020" stroke-width="0.5"/>
<polygon points="1089.2,389.7 1064.2,433.0 1014.2,433.0 989.2,389.7 1014.2,346.4 1064.2,346.4" fill="none" stroke="#d4a020" stroke-width="0.5"/>
<polygon points="1175.8,389.7 1150.8,433.0 1100.8,433.0 1075.8,389.7 1100.8,346.4 1150.8,346.4" fill="none" stroke="#d4a020" stroke-width="0.5"/>
<polygon points="-36.6,433.0 -61.6,476.3 -111.6,476.3 -136.6,433.0 -111.6,389.7 -61.6,389.7" fill="none" stroke="#d4a020" stroke-width="0.5"/>
<polygon points="50.0,433.0 25.0,476.3 -25.0,476.3 -50.0,433.0 -25.0,389.7 25.0,389.7" fill="none" stroke="#d4a020" stroke-width="0.5"/>
<polygon points="136.6,433.0 111.6,476.3 61.6,476.3 36.6,433.0 61.6,389.7 111.6,389.7" fill="none" stroke="#d4a020" stroke-width="0.5"/>
<polygon points="223.2,433.0 198.2,476.3 148.2,476.3 123.2,433.0 148.2,389.7 198.2,389.7" fill="none" stroke="#d4a020" stroke-width="0.5"/>
<polygon points="309.8,433.0 284.8,476.3 234.8,476.3 209.8,433.0 234.8,389.7 284.8,389.7" fill="none" stroke="#d4a020" stroke-width="0.5"/>
<polygon points="396.4,433.0 371.4,476.3 321.4,476.3 296.4,433.0 321.4,389.7 371.4,389.7" fill="none" stroke="#d4a020" stroke-width="0.5"/>
<polygon points="483.0,433.0 458.0,476.3 408.0,476.3 383.0,433.0 408.0,389.7 458.0,389.7" fill="none" stroke="#d4a020" stroke-width="0.5"/>
<polygon points="569.6,433.0 544.6,476.3 494.6,476.3 469.6,433.0 494.6,389.7 544.6,389.7" fill="none" stroke="#d4a020" stroke-width="0.5"/>
<polygon points="656.2,433.0 631.2,476.3 581.2,476.3 556.2,433.0 581.2,389.7 631.2,389.7" fill="none" stroke="#d4a020" stroke-width="0.5"/>
<polygon points="742.8,433.0 717.8,476.3 667.8,476.3 642.8,433.0 667.8,389.7 717.8,389.7" fill="none" stroke="#d4a020" stroke-width="0.5"/>
<polygon points="829.4,433.0 804.4,476.3 754.4,476.3 729.4,433.0 754.4,389.7 804.4,389.7" fill="none" stroke="#d4a020" stroke-width="0.5"/>
<polygon points="916.0,433.0 891.0,476.3 841.0,476.3 816.0,433.0 841.0,389.7 891.0,389.7" fill="none" stroke="#d4a020" stroke-width="0.5"/>
<polygon points="1002.6,433.0 977.6,476.3 927.6,476.3 902.6,433.0 927.6,389.7 977.6,389.7" fill="none" stroke="#d4a020" stroke-width="0.5"/>
<polygon points="1089.2,433.0 1064.2,476.3 1014.2,476.3 989.2,433.0 1014.2,389.7 1064.2,389.7" fill="none" stroke="#d4a020" stroke-width="0.5"/>
<polygon points="1175.8,433.0 1150.8,476.3 1100.8,476.3 1075.8,433.0 1100.8,389.7 1150.8,389.7" fill="none" stroke="#d4a020" stroke-width="0.5"/>
<polygon points="-36.6,476.3 -61.6,519.6 -111.6,519.6 -136.6,476.3 -111.6,433.0 -61.6,433.0" fill="none" stroke="#d4a020" stroke-width="0.5"/>
<polygon points="50.0,476.3 25.0,519.6 -25.0,519.6 -50.0,476.3 -25.0,433.0 25.0,433.0" fill="none" stroke="#d4a020" stroke-width="0.5"/>
<polygon points="136.6,476.3 111.6,519.6 61.6,519.6 36.6,476.3 61.6,433.0 111.6,433.0" fill="none" stroke="#d4a020" stroke-width="0.5"/>
<polygon points="223.2,476.3 198.2,519.6 148.2,519.6 123.2,476.3 148.2,433.0 198.2,433.0" fill="none" stroke="#d4a020" stroke-width="0.5"/>
<polygon points="309.8,476.3 284.8,519.6 234.8,519.6 209.8,476.3 234.8,433.0 284.8,433.0" fill="none" stroke="#d4a020" stroke-width="0.5"/>
<polygon points="396.4,476.3 371.4,519.6 321.4,519.6 296.4,476.3 321.4,433.0 371.4,433.0" fill="none" stroke="#d4a020" stroke-width="0.5"/>
<polygon points="483.0,476.3 458.0,519.6 408.0,519.6 383.0,476.3 408.0,433.0 458.0,433.0" fill="none" stroke="#d4a020" stroke-width="0.5"/>
<polygon points="569.6,476.3 544.6,519.6 494.6,519.6 469.6,476.3 494.6,433.0 544.6,433.0" fill="none" stroke="#d4a020" stroke-width="0.5"/>
<polygon points="656.2,476.3 631.2,519.6 581.2,519.6 556.2,476.3 581.2,433.0 631.2,433.0" fill="none" stroke="#d4a020" stroke-width="0.5"/>
<polygon points="742.8,476.3 717.8,519.6 667.8,519.6 642.8,476.3 667.8,433.0 717.8,433.0" fill="none" stroke="#d4a020" stroke-width="0.5"/>
<polygon points="829.4,476.3 804.4,519.6 754.4,519.6 729.4,476.3 754.4,433.0 804.4,433.0" fill="none" stroke="#d4a020" stroke-width="0.5"/>
<polygon points="916.0,476.3 891.0,519.6 841.0,519.6 816.0,476.3 841.0,433.0 891.0,433.0" fill="none" stroke="#d4a020" stroke-width="0.5"/>
<polygon points="1002.6,476.3 977.6,519.6 927.6,519.6 902.6,476.3 927.6,433.0 977.6,433.0" fill="none" stroke="#d4a020" stroke-width="0.5"/>
<polygon points="1089.2,476.3 1064.2,519.6 1014.2,519.6 989.2,476.3 1014.2,433.0 1064.2,433.0" fill="none" stroke="#d4a020" stroke-width="0.5"/>
<polygon points="1175.8,476.3 1150.8,519.6 1100.8,519.6 1075.8,476.3 1100.8,433.0 1150.8,433.0" fill="none" stroke="#d4a020" stroke-width="0.5"/>
<polygon points="-36.6,519.6 -61.6,562.9 -111.6,562.9 -136.6,519.6 -111.6,476.3 -61.6,476.3" fill="none" stroke="#d4a020" stroke-width="0.5"/>
<polygon points="50.0,519.6 25.0,562.9 -25.0,562.9 -50.0,519.6 -25.0,476.3 25.0,476.3" fill="none" stroke="#d4a020" stroke-width="0.5"/>
<polygon points="136.6,519.6 111.6,562.9 61.6,562.9 36.6,519.6 61.6,476.3 111.6,476.3" fill="none" stroke="#d4a020" stroke-width="0.5"/>
<polygon points="223.2,519.6 198.2,562.9 148.2,562.9 123.2,519.6 148.2,476.3 198.2,476.3" fill="none" stroke="#d4a020" stroke-width="0.5"/>
<polygon points="309.8,519.6 284.8,562.9 234.8,562.9 209.8,519.6 234.8,476.3 284.8,476.3" fill="none" stroke="#d4a020" stroke-width="0.5"/>
<polygon points="396.4,519.6 371.4,562.9 321.4,562.9 296.4,519.6 321.4,476.3 371.4,476.3" fill="none" stroke="#d4a020" stroke-width="0.5"/>
<polygon points="483.0,519.6 458.0,562.9 408.0,562.9 383.0,519.6 408.0,476.3 458.0,476.3" fill="none" stroke="#d4a020" stroke-width="0.5"/>
<polygon points="569.6,519.6 544.6,562.9 494.6,562.9 469.6,519.6 494.6,476.3 544.6,476.3" fill="none" stroke="#d4a020" stroke-width="0.5"/>
<polygon points="656.2,519.6 631.2,562.9 581.2,562.9 556.2,519.6 581.2,476.3 631.2,476.3" fill="none" stroke="#d4a020" stroke-width="0.5"/>
<polygon points="742.8,519.6 717.8,562.9 667.8,562.9 642.8,519.6 667.8,476.3 717.8,476.3" fill="none" stroke="#d4a020" stroke-width="0.5"/>
<polygon points="829.4,519.6 804.4,562.9 754.4,562.9 729.4,519.6 754.4,476.3 804.4,476.3" fill="none" stroke="#d4a020" stroke-width="0.5"/>
<polygon points="916.0,519.6 891.0,562.9 841.0,562.9 816.0,519.6 841.0,476.3 891.0,476.3" fill="none" stroke="#d4a020" stroke-width="0.5"/>
<polygon points="1002.6,519.6 977.6,562.9 927.6,562.9 902.6,519.6 927.6,476.3 977.6,476.3" fill="none" stroke="#d4a020" stroke-width="0.5"/>
<polygon points="1089.2,519.6 1064.2,562.9 1014.2,562.9 989.2,519.6 1014.2,476.3 1064.2,476.3" fill="none" stroke="#d4a020" stroke-width="0.5"/>
<polygon points="1175.8,519.6 1150.8,562.9 1100.8,562.9 1075.8,519.6 1100.8,476.3 1150.8,476.3" fill="none" stroke="#d4a020" stroke-width="0.5"/>
<polygon points="-36.6,562.9 -61.6,606.2 -111.6,606.2 -136.6,562.9 -111.6,519.6 -61.6,519.6" fill="none" stroke="#d4a020" stroke-width="0.5"/>
<polygon points="50.0,562.9 25.0,606.2 -25.0,606.2 -50.0,562.9 -25.0,519.6 25.0,519.6" fill="none" stroke="#d4a020" stroke-width="0.5"/>
<polygon points="136.6,562.9 111.6,606.2 61.6,606.2 36.6,562.9 61.6,519.6 111.6,519.6" fill="none" stroke="#d4a020" stroke-width="0.5"/>
<polygon points="223.2,562.9 198.2,606.2 148.2,606.2 123.2,562.9 148.2,519.6 198.2,519.6" fill="none" stroke="#d4a020" stroke-width="0.5"/>
<polygon points="309.8,562.9 284.8,606.2 234.8,606.2 209.8,562.9 234.8,519.6 284.8,519.6" fill="none" stroke="#d4a020" stroke-width="0.5"/>
<polygon points="396.4,562.9 371.4,606.2 321.4,606.2 296.4,562.9 321.4,519.6 371.4,519.6" fill="none" stroke="#d4a020" stroke-width="0.5"/>
<polygon points="483.0,562.9 458.0,606.2 408.0,606.2 383.0,562.9 408.0,519.6 458.0,519.6" fill="none" stroke="#d4a020" stroke-width="0.5"/>
<polygon points="569.6,562.9 544.6,606.2 494.6,606.2 469.6,562.9 494.6,519.6 544.6,519.6" fill="none" stroke="#d4a020" stroke-width="0.5"/>
<polygon points="656.2,562.9 631.2,606.2 581.2,606.2 556.2,562.9 581.2,519.6 631.2,519.6" fill="none" stroke="#d4a020" stroke-width="0.5"/>
<polygon points="742.8,562.9 717.8,606.2 667.8,606.2 642.8,562.9 667.8,519.6 717.8,519.6" fill="none" stroke="#d4a020" stroke-width="0.5"/>
<polygon points="829.4,562.9 804.4,606.2 754.4,606.2 729.4,562.9 754.4,519.6 804.4,519.6" fill="none" stroke="#d4a020" stroke-width="0.5"/>
<polygon points="916.0,562.9 891.0,606.2 841.0,606.2 816.0,562.9 841.0,519.6 891.0,519.6" fill="none" stroke="#d4a020" stroke-width="0.5"/>
<polygon points="1002.6,562.9 977.6,606.2 927.6,606.2 902.6,562.9 927.6,519.6 977.6,519.6" fill="none" stroke="#d4a020" stroke-width="0.5"/>
<polygon points="1089.2,562.9 1064.2,606.2 1014.2,606.2 989.2,562.9 1014.2,519.6 1064.2,519.6" fill="none" stroke="#d4a020" stroke-width="0.5"/>
<polygon points="1175.8,562.9 1150.8,606.2 1100.8,606.2 1075.8,562.9 1100.8,519.6 1150.8,519.6" fill="none" stroke="#d4a020" stroke-width="0.5"/>
<polygon points="-36.6,606.2 -61.6,649.5 -111.6,649.5 -136.6,606.2 -111.6,562.9 -61.6,562.9" fill="none" stroke="#d4a020" stroke-width="0.5"/>
<polygon points="50.0,606.2 25.0,649.5 -25.0,649.5 -50.0,606.2 -25.0,562.9 25.0,562.9" fill="none" stroke="#d4a020" stroke-width="0.5"/>
<polygon points="136.6,606.2 111.6,649.5 61.6,649.5 36.6,606.2 61.6,562.9 111.6,562.9" fill="none" stroke="#d4a020" stroke-width="0.5"/>
<polygon points="223.2,606.2 198.2,649.5 148.2,649.5 123.2,606.2 148.2,562.9 198.2,562.9" fill="none" stroke="#d4a020" stroke-width="0.5"/>
<polygon points="309.8,606.2 284.8,649.5 234.8,649.5 209.8,606.2 234.8,562.9 284.8,562.9" fill="none" stroke="#d4a020" stroke-width="0.5"/>
<polygon points="396.4,606.2 371.4,649.5 321.4,649.5 296.4,606.2 321.4,562.9 371.4,562.9" fill="none" stroke="#d4a020" stroke-width="0.5"/>
<polygon points="483.0,606.2 458.0,649.5 408.0,649.5 383.0,606.2 408.0,562.9 458.0,562.9" fill="none" stroke="#d4a020" stroke-width="0.5"/>
<polygon points="569.6,606.2 544.6,649.5 494.6,649.5 469.6,606.2 494.6,562.9 544.6,562.9" fill="none" stroke="#d4a020" stroke-width="0.5"/>
<polygon points="656.2,606.2 631.2,649.5 581.2,649.5 556.2,606.2 581.2,562.9 631.2,562.9" fill="none" stroke="#d4a020" stroke-width="0.5"/>
<polygon points="742.8,606.2 717.8,649.5 667.8,649.5 642.8,606.2 667.8,562.9 717.8,562.9" fill="none" stroke="#d4a020" stroke-width="0.5"/>
<polygon points="829.4,606.2 804.4,649.5 754.4,649.5 729.4,606.2 754.4,562.9 804.4,562.9" fill="none" stroke="#d4a020" stroke-width="0.5"/>
<polygon points="916.0,606.2 891.0,649.5 841.0,649.5 816.0,606.2 841.0,562.9 891.0,562.9" fill="none" stroke="#d4a020" stroke-width="0.5"/>
<polygon points="1002.6,606.2 977.6,649.5 927.6,649.5 902.6,606.2 927.6,562.9 977.6,562.9" fill="none" stroke="#d4a020" stroke-width="0.5"/>
<polygon points="1089.2,606.2 1064.2,649.5 1014.2,649.5 989.2,606.2 1014.2,562.9 1064.2,562.9" fill="none" stroke="#d4a020" stroke-width="0.5"/>
<polygon points="1175.8,606.2 1150.8,649.5 1100.8,649.5 1075.8,606.2 1100.8,562.9 1150.8,562.9" fill="none" stroke="#d4a020" stroke-width="0.5"/>
<polygon points="-36.6,649.5 -61.6,692.8 -111.6,692.8 -136.6,649.5 -111.6,606.2 -61.6,606.2" fill="none" stroke="#d4a020" stroke-width="0.5"/>
<polygon points="50.0,649.5 25.0,692.8 -25.0,692.8 -50.0,649.5 -25.0,606.2 25.0,606.2" fill="none" stroke="#d4a020" stroke-width="0.5"/>
<polygon points="136.6,649.5 111.6,692.8 61.6,692.8 36.6,649.5 61.6,606.2 111.6,606.2" fill="none" stroke="#d4a020" stroke-width="0.5"/>
<polygon points="223.2,649.5 198.2,692.8 148.2,692.8 123.2,649.5 148.2,606.2 198.2,606.2" fill="none" stroke="#d4a020" stroke-width="0.5"/>
<polygon points="309.8,649.5 284.8,692.8 234.8,692.8 209.8,649.5 234.8,606.2 284.8,606.2" fill="none" stroke="#d4a020" stroke-width="0.5"/>
<polygon points="396.4,649.5 371.4,692.8 321.4,692.8 296.4,649.5 321.4,606.2 371.4,606.2" fill="none" stroke="#d4a020" stroke-width="0.5"/>
<polygon points="483.0,649.5 458.0,692.8 408.0,692.8 383.0,649.5 408.0,606.2 458.0,606.2" fill="none" stroke="#d4a020" stroke-width="0.5"/>
<polygon points="569.6,649.5 544.6,692.8 494.6,692.8 469.6,649.5 494.6,606.2 544.6,606.2" fill="none" stroke="#d4a020" stroke-width="0.5"/>
<polygon points="656.2,649.5 631.2,692.8 581.2,692.8 556.2,649.5 581.2,606.2 631.2,606.2" fill="none" stroke="#d4a020" stroke-width="0.5"/>
<polygon points="742.8,649.5 717.8,692.8 667.8,692.8 642.8,649.5 667.8,606.2 717.8,606.2" fill="none" stroke="#d4a020" stroke-width="0.5"/>
<polygon points="829.4,649.5 804.4,692.8 754.4,692.8 729.4,649.5 754.4,606.2 804.4,606.2" fill="none" stroke="#d4a020" stroke-width="0.5"/>
<polygon points="916.0,649.5 891.0,692.8 841.0,692.8 816.0,649.5 841.0,606.2 891.0,606.2" fill="none" stroke="#d4a020" stroke-width="0.5"/>
<polygon points="1002.6,649.5 977.6,692.8 927.6,692.8 902.6,649.5 927.6,606.2 977.6,606.2" fill="none" stroke="#d4a020" stroke-width="0.5"/>
<polygon points="1089.2,649.5 1064.2,692.8 1014.2,692.8 989.2,649.5 1014.2,606.2 1064.2,606.2" fill="none" stroke="#d4a020" stroke-width="0.5"/>
<polygon points="1175.8,649.5 1150.8,692.8 1100.8,692.8 1075.8,649.5 1100.8,606.2 1150.8,606.2" fill="none" stroke="#d4a020" stroke-width="0.5"/>
<polygon points="-36.6,692.8 -61.6,736.1 -111.6,736.1 -136.6,692.8 -111.6,649.5 -61.6,649.5" fill="none" stroke="#d4a020" stroke-width="0.5"/>
<polygon points="50.0,692.8 25.0,736.1 -25.0,736.1 -50.0,692.8 -25.0,649.5 25.0,649.5" fill="none" stroke="#d4a020" stroke-width="0.5"/>
<polygon points="136.6,692.8 111.6,736.1 61.6,736.1 36.6,692.8 61.6,649.5 111.6,649.5" fill="none" stroke="#d4a020" stroke-width="0.5"/>
<polygon points="223.2,692.8 198.2,736.1 148.2,736.1 123.2,692.8 148.2,649.5 198.2,649.5" fill="none" stroke="#d4a020" stroke-width="0.5"/>
<polygon points="309.8,692.8 284.8,736.1 234.8,736.1 209.8,692.8 234.8,649.5 284.8,649.5" fill="none" stroke="#d4a020" stroke-width="0.5"/>
<polygon points="396.4,692.8 371.4,736.1 321.4,736.1 296.4,692.8 321.4,649.5 371.4,649.5" fill="none" stroke="#d4a020" stroke-width="0.5"/>
<polygon points="483.0,692.8 458.0,736.1 408.0,736.1 383.0,692.8 408.0,649.5 458.0,649.5" fill="none" stroke="#d4a020" stroke-width="0.5"/>
<polygon points="569.6,692.8 544.6,736.1 494.6,736.1 469.6,692.8 494.6,649.5 544.6,649.5" fill="none" stroke="#d4a020" stroke-width="0.5"/>
<polygon points="656.2,692.8 631.2,736.1 581.2,736.1 556.2,692.8 581.2,649.5 631.2,649.5" fill="none" stroke="#d4a020" stroke-width="0.5"/>
<polygon points="742.8,692.8 717.8,736.1 667.8,736.1 642.8,692.8 667.8,649.5 717.8,649.5" fill="none" stroke="#d4a020" stroke-width="0.5"/>
<polygon points="829.4,692.8 804.4,736.1 754.4,736.1 729.4,692.8 754.4,649.5 804.4,649.5" fill="none" stroke="#d4a020" stroke-width="0.5"/>
<polygon points="916.0,692.8 891.0,736.1 841.0,736.1 816.0,692.8 841.0,649.5 891.0,649.5" fill="none" stroke="#d4a020" stroke-width="0.5"/>
<polygon points="1002.6,692.8 977.6,736.1 927.6,736.1 902.6,692.8 927.6,649.5 977.6,649.5" fill="none" stroke="#d4a020" stroke-width="0.5"/>
<polygon points="1089.2,692.8 1064.2,736.1 1014.2,736.1 989.2,692.8 1014.2,649.5 1064.2,649.5" fill="none" stroke="#d4a020" stroke-width="0.5"/>
<polygon points="1175.8,692.8 1150.8,736.1 1100.8,736.1 1075.8,692.8 1100.8,649.5 1150.8,649.5" fill="none" stroke="#d4a020" stroke-width="0.5"/>
<polygon points="-36.6,736.1 -61.6,779.4 -111.6,779.4 -136.6,736.1 -111.6,692.8 -61.6,692.8" fill="none" stroke="#d4a020" stroke-width="0.5"/>
<polygon points="50.0,736.1 25.0,779.4 -25.0,779.4 -50.0,736.1 -25.0,692.8 25.0,692.8" fill="none" stroke="#d4a020" stroke-width="0.5"/>
<polygon points="136.6,736.1 111.6,779.4 61.6,779.4 36.6,736.1 61.6,692.8 111.6,692.8" fill="none" stroke="#d4a020" stroke-width="0.5"/>
<polygon points="223.2,736.1 198.2,779.4 148.2,779.4 123.2,736.1 148.2,692.8 198.2,692.8" fill="none" stroke="#d4a020" stroke-width="0.5"/>
<polygon points="309.8,736.1 284.8,779.4 234.8,779.4 209.8,736.1 234.8,692.8 284.8,692.8" fill="none" stroke="#d4a020" stroke-width="0.5"/>
<polygon points="396.4,736.1 371.4,779.4 321.4,779.4 296.4,736.1 321.4,692.8 371.4,692.8" fill="none" stroke="#d4a020" stroke-width="0.5"/>
<polygon points="483.0,736.1 458.0,779.4 408.0,779.4 383.0,736.1 408.0,692.8 458.0,692.8" fill="none" stroke="#d4a020" stroke-width="0.5"/>
<polygon points="569.6,736.1 544.6,779.4 494.6,779.4 469.6,736.1 494.6,692.8 544.6,692.8" fill="none" stroke="#d4a020" stroke-width="0.5"/>
<polygon points="656.2,736.1 631.2,779.4 581.2,779.4 556.2,736.1 581.2,692.8 631.2,692.8" fill="none" stroke="#d4a020" stroke-width="0.5"/>
<polygon points="742.8,736.1 717.8,779.4 667.8,779.4 642.8,736.1 667.8,692.8 717.8,692.8" fill="none" stroke="#d4a020" stroke-width="0.5"/>
<polygon points="829.4,736.1 804.4,779.4 754.4,779.4 729.4,736.1 754.4,692.8 804.4,692.8" fill="none" stroke="#d4a020" stroke-width="0.5"/>
<polygon points="916.0,736.1 891.0,779.4 841.0,779.4 816.0,736.1 841.0,692.8 891.0,692.8" fill="none" stroke="#d4a020" stroke-width="0.5"/>
<polygon points="1002.6,736.1 977.6,779.4 927.6,779.4 902.6,736.1 927.6,692.8 977.6,692.8" fill="none" stroke="#d4a020" stroke-width="0.5"/>
<polygon points="1089.2,736.1 1064.2,779.4 1014.2,779.4 989.2,736.1 1014.2,692.8 1064.2,692.8" fill="none" stroke="#d4a020" stroke-width="0.5"/>
<polygon points="1175.8,736.1 1150.8,779.4 1100.8,779.4 1075.8,736.1 1100.8,692.8 1150.8,692.8" fill="none" stroke="#d4a020" stroke-width="0.5"/>
<polygon points="-36.6,779.4 -61.6,822.7 -111.6,822.7 -136.6,779.4 -111.6,736.1 -61.6,736.1" fill="none" stroke="#d4a020" stroke-width="0.5"/>
<polygon points="50.0,779.4 25.0,822.7 -25.0,822.7 -50.0,779.4 -25.0,736.1 25.0,736.1" fill="none" stroke="#d4a020" stroke-width="0.5"/>
<polygon points="136.6,779.4 111.6,822.7 61.6,822.7 36.6,779.4 61.6,736.1 111.6,736.1" fill="none" stroke="#d4a020" stroke-width="0.5"/>
<polygon points="223.2,779.4 198.2,822.7 148.2,822.7 123.2,779.4 148.2,736.1 198.2,736.1" fill="none" stroke="#d4a020" stroke-width="0.5"/>
<polygon points="309.8,779.4 284.8,822.7 234.8,822.7 209.8,779.4 234.8,736.1 284.8,736.1" fill="none" stroke="#d4a020" stroke-width="0.5"/>
<polygon points="396.4,779.4 371.4,822.7 321.4,822.7 296.4,779.4 321.4,736.1 371.4,736.1" fill="none" stroke="#d4a020" stroke-width="0.5"/>
<polygon points="483.0,779.4 458.0,822.7 408.0,822.7 383.0,779.4 408.0,736.1 458.0,736.1" fill="none" stroke="#d4a020" stroke-width="0.5"/>
<polygon points="569.6,779.4 544.6,822.7 494.6,822.7 469.6,779.4 494.6,736.1 544.6,736.1" fill="none" stroke="#d4a020" stroke-width="0.5"/>
<polygon points="656.2,779.4 631.2,822.7 581.2,822.7 556.2,779.4 581.2,736.1 631.2,736.1" fill="none" stroke="#d4a020" stroke-width="0.5"/>
<polygon points="742.8,779.4 717.8,822.7 667.8,822.7 642.8,779.4 667.8,736.1 717.8,736.1" fill="none" stroke="#d4a020" stroke-width="0.5"/>
<polygon points="829.4,779.4 804.4,822.7 754.4,822.7 729.4,779.4 754.4,736.1 804.4,736.1" fill="none" stroke="#d4a020" stroke-width="0.5"/>
<polygon points="916.0,779.4 891.0,822.7 841.0,822.7 816.0,779.4 841.0,736.1 891.0,736.1" fill="none" stroke="#d4a020" stroke-width="0.5"/>
<polygon points="1002.6,779.4 977.6,822.7 927.6,822.7 902.6,779.4 927.6,736.1 977.6,736.1" fill="none" stroke="#d4a020" stroke-width="0.5"/>
<polygon points="1089.2,779.4 1064.2,822.7 1014.2,822.7 989.2,779.4 1014.2,736.1 1064.2,736.1" fill="none" stroke="#d4a020" stroke-width="0.5"/>
<polygon points="1175.8,779.4 1150.8,822.7 1100.8,822.7 1075.8,779.4 1100.8,736.1 1150.8,736.1" fill="none" stroke="#d4a020" stroke-width="0.5"/>
<polygon points="-36.6,822.7 -61.6,866.0 -111.6,866.0 -136.6,822.7 -111.6,779.4 -61.6,779.4" fill="none" stroke="#d4a020" stroke-width="0.5"/>
<polygon points="50.0,822.7 25.0,866.0 -25.0,866.0 -50.0,822.7 -25.0,779.4 25.0,779.4" fill="none" stroke="#d4a020" stroke-width="0.5"/>
<polygon points="136.6,822.7 111.6,866.0 61.6,866.0 36.6,822.7 61.6,779.4 111.6,779.4" fill="none" stroke="#d4a020" stroke-width="0.5"/>
<polygon points="223.2,822.7 198.2,866.0 148.2,866.0 123.2,822.7 148.2,779.4 198.2,779.4" fill="none" stroke="#d4a020" stroke-width="0.5"/>
<polygon points="309.8,822.7 284.8,866.0 234.8,866.0 209.8,822.7 234.8,779.4 284.8,779.4" fill="none" stroke="#d4a020" stroke-width="0.5"/>
<polygon points="396.4,822.7 371.4,866.0 321.4,866.0 296.4,822.7 321.4,779.4 371.4,779.4" fill="none" stroke="#d4a020" stroke-width="0.5"/>
<polygon points="483.0,822.7 458.0,866.0 408.0,866.0 383.0,822.7 408.0,779.4 458.0,779.4" fill="none" stroke="#d4a020" stroke-width="0.5"/>
<polygon points="569.6,822.7 544.6,866.0 494.6,866.0 469.6,822.7 494.6,779.4 544.6,779.4" fill="none" stroke="#d4a020" stroke-width="0.5"/>
<polygon points="656.2,822.7 631.2,866.0 581.2,866.0 556.2,822.7 581.2,779.4 631.2,779.4" fill="none" stroke="#d4a020" stroke-width="0.5"/>
<polygon points="742.8,822.7 717.8,866.0 667.8,866.0 642.8,822.7 667.8,779.4 717.8,779.4" fill="none" stroke="#d4a020" stroke-width="0.5"/>
<polygon points="829.4,822.7 804.4,866.0 754.4,866.0 729.4,822.7 754.4,779.4 804.4,779.4" fill="none" stroke="#d4a020" stroke-width="0.5"/>
<polygon points="916.0,822.7 891.0,866.0 841.0,866.0 816.0,822.7 841.0,779.4 891.0,779.4" fill="none" stroke="#d4a020" stroke-width="0.5"/>
<polygon points="1002.6,822.7 977.6,866.0 927.6,866.0 902.6,822.7 927.6,779.4 977.6,779.4" fill="none" stroke="#d4a020" stroke-width="0.5"/>
<polygon points="1089.2,822.7 1064.2,866.0 1014.2,866.0 989.2,822.7 1014.2,779.4 1064.2,779.4" fill="none" stroke="#d4a020" stroke-width="0.5"/>
<polygon points="1175.8,822.7 1150.8,866.0 1100.8,866.0 1075.8,822.7 1100.8,779.4 1150.8,779.4" fill="none" stroke="#d4a020" stroke-width="0.5"/>
<polygon points="-36.6,866.0 -61.6,909.3 -111.6,909.3 -136.6,866.0 -111.6,822.7 -61.6,822.7" fill="none" stroke="#d4a020" stroke-width="0.5"/>
<polygon points="50.0,866.0 25.0,909.3 -25.0,909.3 -50.0,866.0 -25.0,822.7 25.0,822.7" fill="none" stroke="#d4a020" stroke-width="0.5"/>
<polygon points="136.6,866.0 111.6,909.3 61.6,909.3 36.6,866.0 61.6,822.7 111.6,822.7" fill="none" stroke="#d4a020" stroke-width="0.5"/>
<polygon points="223.2,866.0 198.2,909.3 148.2,909.3 123.2,866.0 148.2,822.7 198.2,822.7" fill="none" stroke="#d4a020" stroke-width="0.5"/>
<polygon points="309.8,866.0 284.8,909.3 234.8,909.3 209.8,866.0 234.8,822.7 284.8,822.7" fill="none" stroke="#d4a020" stroke-width="0.5"/>
<polygon points="396.4,866.0 371.4,909.3 321.4,909.3 296.4,866.0 321.4,822.7 371.4,822.7" fill="none" stroke="#d4a020" stroke-width="0.5"/>
<polygon points="483.0,866.0 458.0,909.3 408.0,909.3 383.0,866.0 408.0,822.7 458.0,822.7" fill="none" stroke="#d4a020" stroke-width="0.5"/>
<polygon points="569.6,866.0 544.6,909.3 494.6,909.3 469.6,866.0 494.6,822.7 544.6,822.7" fill="none" stroke="#d4a020" stroke-width="0.5"/>
<polygon points="656.2,866.0 631.2,909.3 581.2,909.3 556.2,866.0 581.2,822.7 631.2,822.7" fill="none" stroke="#d4a020" stroke-width="0.5"/>
<polygon points="742.8,866.0 717.8,909.3 667.8,909.3 642.8,866.0 667.8,822.7 717.8,822.7" fill="none" stroke="#d4a020" stroke-width="0.5"/>
<polygon points="829.4,866.0 804.4,909.3 754.4,909.3 729.4,866.0 754.4,822.7 804.4,822.7" fill="none" stroke="#d4a020" stroke-width="0.5"/>
<polygon points="916.0,866.0 891.0,909.3 841.0,909.3 816.0,866.0 841.0,822.7 891.0,822.7" fill="none" stroke="#d4a020" stroke-width="0.5"/>
<polygon points="1002.6,866.0 977.6,909.3 927.6,909.3 902.6,866.0 927.6,822.7 977.6,822.7" fill="none" stroke="#d4a020" stroke-width="0.5"/>
<polygon points="1089.2,866.0 1064.2,909.3 1014.2,909.3 989.2,866.0 1014.2,822.7 1064.2,822.7" fill="none" stroke="#d4a020" stroke-width="0.5"/>
<polygon points="1175.8,866.0 1150.8,909.3 1100.8,909.3 1075.8,866.0 1100.8,822.7 1150.8,822.7" fill="none" stroke="#d4a020" stroke-width="0.5"/>
<polygon points="-36.6,909.3 -61.6,952.6 -111.6,952.6 -136.6,909.3 -111.6,866.0 -61.6,866.0" fill="none" stroke="#d4a020" stroke-width="0.5"/>
<polygon points="50.0,909.3 25.0,952.6 -25.0,952.6 -50.0,909.3 -25.0,866.0 25.0,866.0" fill="none" stroke="#d4a020" stroke-width="0.5"/>
<polygon points="136.6,909.3 111.6,952.6 61.6,952.6 36.6,909.3 61.6,866.0 111.6,866.0" fill="none" stroke="#d4a020" stroke-width="0.5"/>
<polygon points="223.2,909.3 198.2,952.6 148.2,952.6 123.2,909.3 148.2,866.0 198.2,866.0" fill="none" stroke="#d4a020" stroke-width="0.5"/>
<polygon points="309.8,909.3 284.8,952.6 234.8,952.6 209.8,909.3 234.8,866.0 284.8,866.0" fill="none" stroke="#d4a020" stroke-width="0.5"/>
<polygon points="396.4,909.3 371.4,952.6 321.4,952.6 296.4,909.3 321.4,866.0 371.4,866.0" fill="none" stroke="#d4a020" stroke-width="0.5"/>
<polygon points="483.0,909.3 458.0,952.6 408.0,952.6 383.0,909.3 408.0,866.0 458.0,866.0" fill="none" stroke="#d4a020" stroke-width="0.5"/>
<polygon points="569.6,909.3 544.6,952.6 494.6,952.6 469.6,909.3 494.6,866.0 544.6,866.0" fill="none" stroke="#d4a020" stroke-width="0.5"/>
<polygon points="656.2,909.3 631.2,952.6 581.2,952.6 556.2,909.3 581.2,866.0 631.2,866.0" fill="none" stroke="#d4a020" stroke-width="0.5"/>
<polygon points="742.8,909.3 717.8,952.6 667.8,952.6 642.8,909.3 667.8,866.0 717.8,866.0" fill="none" stroke="#d4a020" stroke-width="0.5"/>
<polygon points="829.4,909.3 804.4,952.6 754.4,952.6 729.4,909.3 754.4,866.0 804.4,866.0" fill="none" stroke="#d4a020" stroke-width="0.5"/>
<polygon points="916.0,909.3 891.0,952.6 841.0,952.6 816.0,909.3 841.0,866.0 891.0,866.0" fill="none" stroke="#d4a020" stroke-width="0.5"/>
<polygon points="1002.6,909.3 977.6,952.6 927.6,952.6 902.6,909.3 927.6,866.0 977.6,866.0" fill="none" stroke="#d4a020" stroke-width="0.5"/>
<polygon points="1089.2,909.3 1064.2,952.6 1014.2,952.6 989.2,909.3 1014.2,866.0 1064.2,866.0" fill="none" stroke="#d4a020" stroke-width="0.5"/>
<polygon points="1175.8,909.3 1150.8,952.6 1100.8,952.6 1075.8,909.3 1100.8,866.0 1150.8,866.0" fill="none" stroke="#d4a020" stroke-width="0.5"/>
<polygon points="-36.6,952.6 -61.6,995.9 -111.6,995.9 -136.6,952.6 -111.6,909.3 -61.6,909.3" fill="none" stroke="#d4a020" stroke-width="0.5"/>
<polygon points="50.0,952.6 25.0,995.9 -25.0,995.9 -50.0,952.6 -25.0,909.3 25.0,909.3" fill="none" stroke="#d4a020" stroke-width="0.5"/>
<polygon points="136.6,952.6 111.6,995.9 61.6,995.9 36.6,952.6 61.6,909.3 111.6,909.3" fill="none" stroke="#d4a020" stroke-width="0.5"/>
<polygon points="223.2,952.6 198.2,995.9 148.2,995.9 123.2,952.6 148.2,909.3 198.2,909.3" fill="none" stroke="#d4a020" stroke-width="0.5"/>
<polygon points="309.8,952.6 284.8,995.9 234.8,995.9 209.8,952.6 234.8,909.3 284.8,909.3" fill="none" stroke="#d4a020" stroke-width="0.5"/>
<polygon points="396.4,952.6 371.4,995.9 321.4,995.9 296.4,952.6 321.4,909.3 371.4,909.3" fill="none" stroke="#d4a020" stroke-width="0.5"/>
<polygon points="483.0,952.6 458.0,995.9 408.0,995.9 383.0,952.6 408.0,909.3 458.0,909.3" fill="none" stroke="#d4a020" stroke-width="0.5"/>
<polygon points="569.6,952.6 544.6,995.9 494.6,995.9 469.6,952.6 494.6,909.3 544.6,909.3" fill="none" stroke="#d4a020" stroke-width="0.5"/>
<polygon points="656.2,952.6 631.2,995.9 581.2,995.9 556.2,952.6 581.2,909.3 631.2,909.3" fill="none" stroke="#d4a020" stroke-width="0.5"/>
<polygon points="742.8,952.6 717.8,995.9 667.8,995.9 642.8,952.6 667.8,909.3 717.8,909.3" fill="none" stroke="#d4a020" stroke-width="0.5"/>
<polygon points="829.4,952.6 804.4,995.9 754.4,995.9 729.4,952.6 754.4,909.3 804.4,909.3" fill="none" stroke="#d4a020" stroke-width="0.5"/>
<polygon points="916.0,952.6 891.0,995.9 841.0,995.9 816.0,952.6 841.0,909.3 891.0,909.3" fill="none" stroke="#d4a020" stroke-width="0.5"/>
<polygon points="1002.6,952.6 977.6,995.9 927.6,995.9 902.6,952.6 927.6,909.3 977.6,909.3" fill="none" stroke="#d4a020" stroke-width="0.5"/>
<polygon points="1089.2,952.6 1064.2,995.9 1014.2,995.9 989.2,952.6 1014.2,909.3 1064.2,909.3" fill="none" stroke="#d4a020" stroke-width="0.5"/>
<polygon points="1175.8,952.6 1150.8,995.9 1100.8,995.9 1075.8,952.6 1100.8,909.3 1150.8,909.3" fill="none" stroke="#d4a020" stroke-width="0.5"/>
<polygon points="-36.6,995.9 -61.6,1039.2 -111.6,1039.2 -136.6,995.9 -111.6,952.6 -61.6,952.6" fill="none" stroke="#d4a020" stroke-width="0.5"/>
<polygon points="50.0,995.9 25.0,1039.2 -25.0,1039.2 -50.0,995.9 -25.0,952.6 25.0,952.6" fill="none" stroke="#d4a020" stroke-width="0.5"/>
<polygon points="136.6,995.9 111.6,1039.2 61.6,1039.2 36.6,995.9 61.6,952.6 111.6,952.6" fill="none" stroke="#d4a020" stroke-width="0.5"/>
<polygon points="223.2,995.9 198.2,1039.2 148.2,1039.2 123.2,995.9 148.2,952.6 198.2,952.6" fill="none" stroke="#d4a020" stroke-width="0.5"/>
<polygon points="309.8,995.9 284.8,1039.2 234.8,1039.2 209.8,995.9 234.8,952.6 284.8,952.6" fill="none" stroke="#d4a020" stroke-width="0.5"/>
<polygon points="396.4,995.9 371.4,1039.2 321.4,1039.2 296.4,995.9 321.4,952.6 371.4,952.6" fill="none" stroke="#d4a020" stroke-width="0.5"/>
<polygon points="483.0,995.9 458.0,1039.2 408.0,1039.2 383.0,995.9 408.0,952.6 458.0,952.6" fill="none" stroke="#d4a020" stroke-width="0.5"/>
<polygon points="569.6,995.9 544.6,1039.2 494.6,1039.2 469.6,995.9 494.6,952.6 544.6,952.6" fill="none" stroke="#d4a020" stroke-width="0.5"/>
<polygon points="656.2,995.9 631.2,1039.2 581.2,1039.2 556.2,995.9 581.2,952.6 631.2,952.6" fill="none" stroke="#d4a020" stroke-width="0.5"/>
<polygon points="742.8,995.9 717.8,1039.2 667.8,1039.2 642.8,995.9 667.8,952.6 717.8,952.6" fill="none" stroke="#d4a020" stroke-width="0.5"/>
<polygon points="829.4,995.9 804.4,1039.2 754.4,1039.2 729.4,995.9 754.4,952.6 804.4,952.6" fill="none" stroke="#d4a020" stroke-width="0.5"/>
<polygon points="916.0,995.9 891.0,1039.2 841.0,1039.2 816.0,995.9 841.0,952.6 891.0,952.6" fill="none" stroke="#d4a020" stroke-width="0.5"/>
<polygon points="1002.6,995.9 977.6,1039.2 927.6,1039.2 902.6,995.9 927.6,952.6 977.6,952.6" fill="none" stroke="#d4a020" stroke-width="0.5"/>
<polygon points="1089.2,995.9 1064.2,1039.2 1014.2,1039.2 989.2,995.9 1014.2,952.6 1064.2,952.6" fill="none" stroke="#d4a020" stroke-width="0.5"/>
<polygon points="1175.8,995.9 1150.8,1039.2 1100.8,1039.2 1075.8,995.9 1100.8,952.6 1150.8,952.6" fill="none" stroke="#d4a020" stroke-width="0.5"/>
<polygon points="-36.6,1039.2 -61.6,1082.5 -111.6,1082.5 -136.6,1039.2 -111.6,995.9 -61.6,995.9" fill="none" stroke="#d4a020" stroke-width="0.5"/>
<polygon points="50.0,1039.2 25.0,1082.5 -25.0,1082.5 -50.0,1039.2 -25.0,995.9 25.0,995.9" fill="none" stroke="#d4a020" stroke-width="0.5"/>
<polygon points="136.6,1039.2 111.6,1082.5 61.6,1082.5 36.6,1039.2 61.6,995.9 111.6,995.9" fill="none" stroke="#d4a020" stroke-width="0.5"/>
<polygon points="223.2,1039.2 198.2,1082.5 148.2,1082.5 123.2,1039.2 148.2,995.9 198.2,995.9" fill="none" stroke="#d4a020" stroke-width="0.5"/>
<polygon points="309.8,1039.2 284.8,1082.5 234.8,1082.5 209.8,1039.2 234.8,995.9 284.8,995.9" fill="none" stroke="#d4a020" stroke-width="0.5"/>
<polygon points="396.4,1039.2 371.4,1082.5 321.4,1082.5 296.4,1039.2 321.4,995.9 371.4,995.9" fill="none" stroke="#d4a020" stroke-width="0.5"/>
<polygon points="483.0,1039.2 458.0,1082.5 408.0,1082.5 383.0,1039.2 408.0,995.9 458.0,995.9" fill="none" stroke="#d4a020" stroke-width="0.5"/>
<polygon points="569.6,1039.2 544.6,1082.5 494.6,1082.5 469.6,1039.2 494.6,995.9 544.6,995.9" fill="none" stroke="#d4a020" stroke-width="0.5"/>
<polygon points="656.2,1039.2 631.2,1082.5 581.2,1082.5 556.2,1039.2 581.2,995.9 631.2,995.9" fill="none" stroke="#d4a020" stroke-width="0.5"/>
<polygon points="742.8,1039.2 717.8,1082.5 667.8,1082.5 642.8,1039.2 667.8,995.9 717.8,995.9" fill="none" stroke="#d4a020" stroke-width="0.5"/>
<polygon points="829.4,1039.2 804.4,1082.5 754.4,1082.5 729.4,1039.2 754.4,995.9 804.4,995.9" fill="none" stroke="#d4a020" stroke-width="0.5"/>
<polygon points="916.0,1039.2 891.0,1082.5 841.0,1082.5 816.0,1039.2 841.0,995.9 891.0,995.9" fill="none" stroke="#d4a020" stroke-width="0.5"/>
<polygon points="1002.6,1039.2 977.6,1082.5 927.6,1082.5 902.6,1039.2 927.6,995.9 977.6,995.9" fill="none" stroke="#d4a020" stroke-width="0.5"/>
<polygon points="1089.2,1039.2 1064.2,1082.5 1014.2,1082.5 989.2,1039.2 1014.2,995.9 1064.2,995.9" fill="none" stroke="#d4a020" stroke-width="0.5"/>
<polygon points="1175.8,1039.2 1150.8,1082.5 1100.8,1082.5 1075.8,1039.2 1100.8,995.9 1150.8,995.9" fill="none" stroke="#d4a020" stroke-width="0.5"/>
<polygon points="-36.6,1082.5 -61.6,1125.8 -111.6,1125.8 -136.6,1082.5 -111.6,1039.2 -61.6,1039.2" fill="none" stroke="#d4a020" stroke-width="0.5"/>
<polygon points="50.0,1082.5 25.0,1125.8 -25.0,1125.8 -50.0,1082.5 -25.0,1039.2 25.0,1039.2" fill="none" stroke="#d4a020" stroke-width="0.5"/>
<polygon points="136.6,1082.5 111.6,1125.8 61.6,1125.8 36.6,1082.5 61.6,1039.2 111.6,1039.2" fill="none" stroke="#d4a020" stroke-width="0.5"/>
<polygon points="223.2,1082.5 198.2,1125.8 148.2,1125.8 123.2,1082.5 148.2,1039.2 198.2,1039.2" fill="none" stroke="#d4a020" stroke-width="0.5"/>
<polygon points="309.8,1082.5 284.8,1125.8 234.8,1125.8 209.8,1082.5 234.8,1039.2 284.8,1039.2" fill="none" stroke="#d4a020" stroke-width="0.5"/>
<polygon points="396.4,1082.5 371.4,1125.8 321.4,1125.8 296.4,1082.5 321.4,1039.2 371.4,1039.2" fill="none" stroke="#d4a020" stroke-width="0.5"/>
<polygon points="483.0,1082.5 458.0,1125.8 408.0,1125.8 383.0,1082.5 408.0,1039.2 458.0,1039.2" fill="none" stroke="#d4a020" stroke-width="0.5"/>
<polygon points="569.6,1082.5 544.6,1125.8 494.6,1125.8 469.6,1082.5 494.6,1039.2 544.6,1039.2" fill="none" stroke="#d4a020" stroke-width="0.5"/>
<polygon points="656.2,1082.5 631.2,1125.8 581.2,1125.8 556.2,1082.5 581.2,1039.2 631.2,1039.2" fill="none" stroke="#d4a020" stroke-width="0.5"/>
<polygon points="742.8,1082.5 717.8,1125.8 667.8,1125.8 642.8,1082.5 667.8,1039.2 717.8,1039.2" fill="none" stroke="#d4a020" stroke-width="0.5"/>
<polygon points="829.4,1082.5 804.4,1125.8 754.4,1125.8 729.4,1082.5 754.4,1039.2 804.4,1039.2" fill="none" stroke="#d4a020" stroke-width="0.5"/>
<polygon points="916.0,1082.5 891.0,1125.8 841.0,1125.8 816.0,1082.5 841.0,1039.2 891.0,1039.2" fill="none" stroke="#d4a020" stroke-width="0.5"/>
<polygon points="1002.6,1082.5 977.6,1125.8 927.6,1125.8 902.6,1082.5 927.6,1039.2 977.6,1039.2" fill="none" stroke="#d4a020" stroke-width="0.5"/>
<polygon points="1089.2,1082.5 1064.2,1125.8 1014.2,1125.8 989.2,1082.5 1014.2,1039.2 1064.2,1039.2" fill="none" stroke="#d4a020" stroke-width="0.5"/>
<polygon points="1175.8,1082.5 1150.8,1125.8 1100.8,1125.8 1075.8,1082.5 1100.8,1039.2 1150.8,1039.2" fill="none" stroke="#d4a020" stroke-width="0.5"/>
<polygon points="-36.6,1125.8 -61.6,1169.1 -111.6,1169.1 -136.6,1125.8 -111.6,1082.5 -61.6,1082.5" fill="none" stroke="#d4a020" stroke-width="0.5"/>
<polygon points="50.0,1125.8 25.0,1169.1 -25.0,1169.1 -50.0,1125.8 -25.0,1082.5 25.0,1082.5" fill="none" stroke="#d4a020" stroke-width="0.5"/>
<polygon points="136.6,1125.8 111.6,1169.1 61.6,1169.1 36.6,1125.8 61.6,1082.5 111.6,1082.5" fill="none" stroke="#d4a020" stroke-width="0.5"/>
<polygon points="223.2,1125.8 198.2,1169.1 148.2,1169.1 123.2,1125.8 148.2,1082.5 198.2,1082.5" fill="none" stroke="#d4a020" stroke-width="0.5"/>
<polygon points="309.8,1125.8 284.8,1169.1 234.8,1169.1 209.8,1125.8 234.8,1082.5 284.8,1082.5" fill="none" stroke="#d4a020" stroke-width="0.5"/>
<polygon points="396.4,1125.8 371.4,1169.1 321.4,1169.1 296.4,1125.8 321.4,1082.5 371.4,1082.5" fill="none" stroke="#d4a020" stroke-width="0.5"/>
<polygon points="483.0,1125.8 458.0,1169.1 408.0,1169.1 383.0,1125.8 408.0,1082.5 458.0,1082.5" fill="none" stroke="#d4a020" stroke-width="0.5"/>
<polygon points="569.6,1125.8 544.6,1169.1 494.6,1169.1 469.6,1125.8 494.6,1082.5 544.6,1082.5" fill="none" stroke="#d4a020" stroke-width="0.5"/>
<polygon points="656.2,1125.8 631.2,1169.1 581.2,1169.1 556.2,1125.8 581.2,1082.5 631.2,1082.5" fill="none" stroke="#d4a020" stroke-width="0.5"/>
<polygon points="742.8,1125.8 717.8,1169.1 667.8,1169.1 642.8,1125.8 667.8,1082.5 717.8,1082.5" fill="none" stroke="#d4a020" stroke-width="0.5"/>
<polygon points="829.4,1125.8 804.4,1169.1 754.4,1169.1 729.4,1125.8 754.4,1082.5 804.4,1082.5" fill="none" stroke="#d4a020" stroke-width="0.5"/>
<polygon points="916.0,1125.8 891.0,1169.1 841.0,1169.1 816.0,1125.8 841.0,1082.5 891.0,1082.5" fill="none" stroke="#d4a020" stroke-width="0.5"/>
<polygon points="1002.6,1125.8 977.6,1169.1 927.6,1169.1 902.6,1125.8 927.6,1082.5 977.6,1082.5" fill="none" stroke="#d4a020" stroke-width="0.5"/>
<polygon points="1089.2,1125.8 1064.2,1169.1 1014.2,1169.1 989.2,1125.8 1014.2,1082.5 1064.2,1082.5" fill="none" stroke="#d4a020" stroke-width="0.5"/>
<polygon points="1175.8,1125.8 1150.8,1169.1 1100.8,1169.1 1075.8,1125.8 1100.8,1082.5 1150.8,1082.5" fill="none" stroke="#d4a020" stroke-width="0.5"/>
<polygon points="-36.6,1169.1 -61.6,1212.4 -111.6,1212.4 -136.6,1169.1 -111.6,1125.8 -61.6,1125.8" fill="none" stroke="#d4a020" stroke-width="0.5"/>
<polygon points="50.0,1169.1 25.0,1212.4 -25.0,1212.4 -50.0,1169.1 -25.0,1125.8 25.0,1125.8" fill="none" stroke="#d4a020" stroke-width="0.5"/>
<polygon points="136.6,1169.1 111.6,1212.4 61.6,1212.4 36.6,1169.1 61.6,1125.8 111.6,1125.8" fill="none" stroke="#d4a020" stroke-width="0.5"/>
<polygon points="223.2,1169.1 198.2,1212.4 148.2,1212.4 123.2,1169.1 148.2,1125.8 198.2,1125.8" fill="none" stroke="#d4a020" stroke-width="0.5"/>
<polygon points="309.8,1169.1 284.8,1212.4 234.8,1212.4 209.8,1169.1 234.8,1125.8 284.8,1125.8" fill="none" stroke="#d4a020" stroke-width="0.5"/>
<polygon points="396.4,1169.1 371.4,1212.4 321.4,1212.4 296.4,1169.1 321.4,1125.8 371.4,1125.8" fill="none" stroke="#d4a020" stroke-width="0.5"/>
<polygon points="483.0,1169.1 458.0,1212.4 408.0,1212.4 383.0,1169.1 408.0,1125.8 458.0,1125.8" fill="none" stroke="#d4a020" stroke-width="0.5"/>
<polygon points="569.6,1169.1 544.6,1212.4 494.6,1212.4 469.6,1169.1 494.6,1125.8 544.6,1125.8" fill="none" stroke="#d4a020" stroke-width="0.5"/>
<polygon points="656.2,1169.1 631.2,1212.4 581.2,1212.4 556.2,1169.1 581.2,1125.8 631.2,1125.8" fill="none" stroke="#d4a020" stroke-width="0.5"/>
<polygon points="742.8,1169.1 717.8,1212.4 667.8,1212.4 642.8,1169.1 667.8,1125.8 717.8,1125.8" fill="none" stroke="#d4a020" stroke-width="0.5"/>
<polygon points="829.4,1169.1 804.4,1212.4 754.4,1212.4 729.4,1169.1 754.4,1125.8 804.4,1125.8" fill="none" stroke="#d4a020" stroke-width="0.5"/>
<polygon points="916.0,1169.1 891.0,1212.4 841.0,1212.4 816.0,1169.1 841.0,1125.8 891.0,1125.8" fill="none" stroke="#d4a020" stroke-width="0.5"/>
<polygon points="1002.6,1169.1 977.6,1212.4 927.6,1212.4 902.6,1169.1 927.6,1125.8 977.6,1125.8" fill="none" stroke="#d4a020" stroke-width="0.5"/>
<polygon points="1089.2,1169.1 1064.2,1212.4 1014.2,1212.4 989.2,1169.1 1014.2,1125.8 1064.2,1125.8" fill="none" stroke="#d4a020" stroke-width="0.5"/>
<polygon points="1175.8,1169.1 1150.8,1212.4 1100.8,1212.4 1075.8,1169.1 1100.8,1125.8 1150.8,1125.8" fill="none" stroke="#d4a020" stroke-width="0.5"/>
<polygon points="-36.6,1212.4 -61.6,1255.7 -111.6,1255.7 -136.6,1212.4 -111.6,1169.1 -61.6,1169.1" fill="none" stroke="#d4a020" stroke-width="0.5"/>
<polygon points="50.0,1212.4 25.0,1255.7 -25.0,1255.7 -50.0,1212.4 -25.0,1169.1 25.0,1169.1" fill="none" stroke="#d4a020" stroke-width="0.5"/>
<polygon points="136.6,1212.4 111.6,1255.7 61.6,1255.7 36.6,1212.4 61.6,1169.1 111.6,1169.1" fill="none" stroke="#d4a020" stroke-width="0.5"/>
<polygon points="223.2,1212.4 198.2,1255.7 148.2,1255.7 123.2,1212.4 148.2,1169.1 198.2,1169.1" fill="none" stroke="#d4a020" stroke-width="0.5"/>
<polygon points="309.8,1212.4 284.8,1255.7 234.8,1255.7 209.8,1212.4 234.8,1169.1 284.8,1169.1" fill="none" stroke="#d4a020" stroke-width="0.5"/>
<polygon points="396.4,1212.4 371.4,1255.7 321.4,1255.7 296.4,1212.4 321.4,1169.1 371.4,1169.1" fill="none" stroke="#d4a020" stroke-width="0.5"/>
<polygon points="483.0,1212.4 458.0,1255.7 408.0,1255.7 383.0,1212.4 408.0,1169.1 458.0,1169.1" fill="none" stroke="#d4a020" stroke-width="0.5"/>
<polygon points="569.6,1212.4 544.6,1255.7 494.6,1255.7 469.6,1212.4 494.6,1169.1 544.6,1169.1" fill="none" stroke="#d4a020" stroke-width="0.5"/>
<polygon points="656.2,1212.4 631.2,1255.7 581.2,1255.7 556.2,1212.4 581.2,1169.1 631.2,1169.1" fill="none" stroke="#d4a020" stroke-width="0.5"/>
<polygon points="742.8,1212.4 717.8,1255.7 667.8,1255.7 642.8,1212.4 667.8,1169.1 717.8,1169.1" fill="none" stroke="#d4a020" stroke-width="0.5"/>
<polygon points="829.4,1212.4 804.4,1255.7 754.4,1255.7 729.4,1212.4 754.4,1169.1 804.4,1169.1" fill="none" stroke="#d4a020" stroke-width="0.5"/>
<polygon points="916.0,1212.4 891.0,1255.7 841.0,1255.7 816.0,1212.4 841.0,1169.1 891.0,1169.1" fill="none" stroke="#d4a020" stroke-width="0.5"/>
<polygon points="1002.6,1212.4 977.6,1255.7 927.6,1255.7 902.6,1212.4 927.6,1169.1 977.6,1169.1" fill="none" stroke="#d4a020" stroke-width="0.5"/>
<polygon points="1089.2,1212.4 1064.2,1255.7 1014.2,1255.7 989.2,1212.4 1014.2,1169.1 1064.2,1169.1" fill="none" stroke="#d4a020" stroke-width="0.5"/>
<polygon points="1175.8,1212.4 1150.8,1255.7 1100.8,1255.7 1075.8,1212.4 1100.8,1169.1 1150.8,1169.1" fill="none" stroke="#d4a020" stroke-width="0.5"/>
<polygon points="-36.6,1255.7 -61.6,1299.0 -111.6,1299.0 -136.6,1255.7 -111.6,1212.4 -61.6,1212.4" fill="none" stroke="#d4a020" stroke-width="0.5"/>
<polygon points="50.0,1255.7 25.0,1299.0 -25.0,1299.0 -50.0,1255.7 -25.0,1212.4 25.0,1212.4" fill="none" stroke="#d4a020" stroke-width="0.5"/>
<polygon points="136.6,1255.7 111.6,1299.0 61.6,1299.0 36.6,1255.7 61.6,1212.4 111.6,1212.4" fill="none" stroke="#d4a020" stroke-width="0.5"/>
<polygon points="223.2,1255.7 198.2,1299.0 148.2,1299.0 123.2,1255.7 148.2,1212.4 198.2,1212.4" fill="none" stroke="#d4a020" stroke-width="0.5"/>
<polygon points="309.8,1255.7 284.8,1299.0 234.8,1299.0 209.8,1255.7 234.8,1212.4 284.8,1212.4" fill="none" stroke="#d4a020" stroke-width="0.5"/>
<polygon points="396.4,1255.7 371.4,1299.0 321.4,1299.0 296.4,1255.7 321.4,1212.4 371.4,1212.4" fill="none" stroke="#d4a020" stroke-width="0.5"/>
<polygon points="483.0,1255.7 458.0,1299.0 408.0,1299.0 383.0,1255.7 408.0,1212.4 458.0,1212.4" fill="none" stroke="#d4a020" stroke-width="0.5"/>
<polygon points="569.6,1255.7 544.6,1299.0 494.6,1299.0 469.6,1255.7 494.6,1212.4 544.6,1212.4" fill="none" stroke="#d4a020" stroke-width="0.5"/>
<polygon points="656.2,1255.7 631.2,1299.0 581.2,1299.0 556.2,1255.7 581.2,1212.4 631.2,1212.4" fill="none" stroke="#d4a020" stroke-width="0.5"/>
<polygon points="742.8,1255.7 717.8,1299.0 667.8,1299.0 642.8,1255.7 667.8,1212.4 717.8,1212.4" fill="none" stroke="#d4a020" stroke-width="0.5"/>
<polygon points="829.4,1255.7 804.4,1299.0 754.4,1299.0 729.4,1255.7 754.4,1212.4 804.4,1212.4" fill="none" stroke="#d4a020" stroke-width="0.5"/>
<polygon points="916.0,1255.7 891.0,1299.0 841.0,1299.0 816.0,1255.7 841.0,1212.4 891.0,1212.4" fill="none" stroke="#d4a020" stroke-width="0.5"/>
<polygon points="1002.6,1255.7 977.6,1299.0 927.6,1299.0 902.6,1255.7 927.6,1212.4 977.6,1212.4" fill="none" stroke="#d4a020" stroke-width="0.5"/>
<polygon points="1089.2,1255.7 1064.2,1299.0 1014.2,1299.0 989.2,1255.7 1014.2,1212.4 1064.2,1212.4" fill="none" stroke="#d4a020" stroke-width="0.5"/>
<polygon points="1175.8,1255.7 1150.8,1299.0 1100.8,1299.0 1075.8,1255.7 1100.8,1212.4 1150.8,1212.4" fill="none" stroke="#d4a020" stroke-width="0.5"/>
<polygon points="-36.6,1299.0 -61.6,1342.3 -111.6,1342.3 -136.6,1299.0 -111.6,1255.7 -61.6,1255.7" fill="none" stroke="#d4a020" stroke-width="0.5"/>
<polygon points="50.0,1299.0 25.0,1342.3 -25.0,1342.3 -50.0,1299.0 -25.0,1255.7 25.0,1255.7" fill="none" stroke="#d4a020" stroke-width="0.5"/>
<polygon points="136.6,1299.0 111.6,1342.3 61.6,1342.3 36.6,1299.0 61.6,1255.7 111.6,1255.7" fill="none" stroke="#d4a020" stroke-width="0.5"/>
<polygon points="223.2,1299.0 198.2,1342.3 148.2,1342.3 123.2,1299.0 148.2,1255.7 198.2,1255.7" fill="none" stroke="#d4a020" stroke-width="0.5"/>
<polygon points="309.8,1299.0 284.8,1342.3 234.8,1342.3 209.8,1299.0 234.8,1255.7 284.8,1255.7" fill="none" stroke="#d4a020" stroke-width="0.5"/>
<polygon points="396.4,1299.0 371.4,1342.3 321.4,1342.3 296.4,1299.0 321.4,1255.7 371.4,1255.7" fill="none" stroke="#d4a020" stroke-width="0.5"/>
<polygon points="483.0,1299.0 458.0,1342.3 408.0,1342.3 383.0,1299.0 408.0,1255.7 458.0,1255.7" fill="none" stroke="#d4a020" stroke-width="0.5"/>
<polygon points="569.6,1299.0 544.6,1342.3 494.6,1342.3 469.6,1299.0 494.6,1255.7 544.6,1255.7" fill="none" stroke="#d4a020" stroke-width="0.5"/>
<polygon points="656.2,1299.0 631.2,1342.3 581.2,1342.3 556.2,1299.0 581.2,1255.7 631.2,1255.7" fill="none" stroke="#d4a020" stroke-width="0.5"/>
<polygon points="742.8,1299.0 717.8,1342.3 667.8,1342.3 642.8,1299.0 667.8,1255.7 717.8,1255.7" fill="none" stroke="#d4a020" stroke-width="0.5"/>
<polygon points="829.4,1299.0 804.4,1342.3 754.4,1342.3 729.4,1299.0 754.4,1255.7 804.4,1255.7" fill="none" stroke="#d4a020" stroke-width="0.5"/>
<polygon points="916.0,1299.0 891.0,1342.3 841.0,1342.3 816.0,1299.0 841.0,1255.7 891.0,1255.7" fill="none" stroke="#d4a020" stroke-width="0.5"/>
<polygon points="1002.6,1299.0 977.6,1342.3 927.6,1342.3 902.6,1299.0 927.6,1255.7 977.6,1255.7" fill="none" stroke="#d4a020" stroke-width="0.5"/>
<polygon points="1089.2,1299.0 1064.2,1342.3 1014.2,1342.3 989.2,1299.0 1014.2,1255.7 1064.2,1255.7" fill="none" stroke="#d4a020" stroke-width="0.5"/>
<polygon points="1175.8,1299.0 1150.8,1342.3 1100.8,1342.3 1075.8,1299.0 1100.8,1255.7 1150.8,1255.7" fill="none" stroke="#d4a020" stroke-width="0.5"/>
<polygon points="-36.6,1342.3 -61.6,1385.6 -111.6,1385.6 -136.6,1342.3 -111.6,1299.0 -61.6,1299.0" fill="none" stroke="#d4a020" stroke-width="0.5"/>
<polygon points="50.0,1342.3 25.0,1385.6 -25.0,1385.6 -50.0,1342.3 -25.0,1299.0 25.0,1299.0" fill="none" stroke="#d4a020" stroke-width="0.5"/>
<polygon points="136.6,1342.3 111.6,1385.6 61.6,1385.6 36.6,1342.3 61.6,1299.0 111.6,1299.0" fill="none" stroke="#d4a020" stroke-width="0.5"/>
<polygon points="223.2,1342.3 198.2,1385.6 148.2,1385.6 123.2,1342.3 148.2,1299.0 198.2,1299.0" fill="none" stroke="#d4a020" stroke-width="0.5"/>
<polygon points="309.8,1342.3 284.8,1385.6 234.8,1385.6 209.8,1342.3 234.8,1299.0 284.8,1299.0" fill="none" stroke="#d4a020" stroke-width="0.5"/>
<polygon points="396.4,1342.3 371.4,1385.6 321.4,1385.6 296.4,1342.3 321.4,1299.0 371.4,1299.0" fill="none" stroke="#d4a020" stroke-width="0.5"/>
<polygon points="483.0,1342.3 458.0,1385.6 408.0,1385.6 383.0,1342.3 408.0,1299.0 458.0,1299.0" fill="none" stroke="#d4a020" stroke-width="0.5"/>
<polygon points="569.6,1342.3 544.6,1385.6 494.6,1385.6 469.6,1342.3 494.6,1299.0 544.6,1299.0" fill="none" stroke="#d4a020" stroke-width="0.5"/>
<polygon points="656.2,1342.3 631.2,1385.6 581.2,1385.6 556.2,1342.3 581.2,1299.0 631.2,1299.0" fill="none" stroke="#d4a020" stroke-width="0.5"/>
<polygon points="742.8,1342.3 717.8,1385.6 667.8,1385.6 642.8,1342.3 667.8,1299.0 717.8,1299.0" fill="none" stroke="#d4a020" stroke-width="0.5"/>
<polygon points="829.4,1342.3 804.4,1385.6 754.4,1385.6 729.4,1342.3 754.4,1299.0 804.4,1299.0" fill="none" stroke="#d4a020" stroke-width="0.5"/>
<polygon points="916.0,1342.3 891.0,1385.6 841.0,1385.6 816.0,1342.3 841.0,1299.0 891.0,1299.0" fill="none" stroke="#d4a020" stroke-width="0.5"/>
<polygon points="1002.6,1342.3 977.6,1385.6 927.6,1385.6 902.6,1342.3 927.6,1299.0 977.6,1299.0" fill="none" stroke="#d4a020" stroke-width="0.5"/>
<polygon points="1089.2,1342.3 1064.2,1385.6 1014.2,1385.6 989.2,1342.3 1014.2,1299.0 1064.2,1299.0" fill="none" stroke="#d4a020" stroke-width="0.5"/>
<polygon points="1175.8,1342.3 1150.8,1385.6 1100.8,1385.6 1075.8,1342.3 1100.8,1299.0 1150.8,1299.0" fill="none" stroke="#d4a020" stroke-width="0.5"/>
<polygon points="-36.6,1385.6 -61.6,1428.9 -111.6,1428.9 -136.6,1385.6 -111.6,1342.3 -61.6,1342.3" fill="none" stroke="#d4a020" stroke-width="0.5"/>
<polygon points="50.0,1385.6 25.0,1428.9 -25.0,1428.9 -50.0,1385.6 -25.0,1342.3 25.0,1342.3" fill="none" stroke="#d4a020" stroke-width="0.5"/>
<polygon points="136.6,1385.6 111.6,1428.9 61.6,1428.9 36.6,1385.6 61.6,1342.3 111.6,1342.3" fill="none" stroke="#d4a020" stroke-width="0.5"/>
<polygon points="223.2,1385.6 198.2,1428.9 148.2,1428.9 123.2,1385.6 148.2,1342.3 198.2,1342.3" fill="none" stroke="#d4a020" stroke-width="0.5"/>
<polygon points="309.8,1385.6 284.8,1428.9 234.8,1428.9 209.8,1385.6 234.8,1342.3 284.8,1342.3" fill="none" stroke="#d4a020" stroke-width="0.5"/>
<polygon points="396.4,1385.6 371.4,1428.9 321.4,1428.9 296.4,1385.6 321.4,1342.3 371.4,1342.3" fill="none" stroke="#d4a020" stroke-width="0.5"/>
<polygon points="483.0,1385.6 458.0,1428.9 408.0,1428.9 383.0,1385.6 408.0,1342.3 458.0,1342.3" fill="none" stroke="#d4a020" stroke-width="0.5"/>
<polygon points="569.6,1385.6 544.6,1428.9 494.6,1428.9 469.6,1385.6 494.6,1342.3 544.6,1342.3" fill="none" stroke="#d4a020" stroke-width="0.5"/>
<polygon points="656.2,1385.6 631.2,1428.9 581.2,1428.9 556.2,1385.6 581.2,1342.3 631.2,1342.3" fill="none" stroke="#d4a020" stroke-width="0.5"/>
<polygon points="742.8,1385.6 717.8,1428.9 667.8,1428.9 642.8,1385.6 667.8,1342.3 717.8,1342.3" fill="none" stroke="#d4a020" stroke-width="0.5"/>
<polygon points="829.4,1385.6 804.4,1428.9 754.4,1428.9 729.4,1385.6 754.4,1342.3 804.4,1342.3" fill="none" stroke="#d4a020" stroke-width="0.5"/>
<polygon points="916.0,1385.6 891.0,1428.9 841.0,1428.9 816.0,1385.6 841.0,1342.3 891.0,1342.3" fill="none" stroke="#d4a020" stroke-width="0.5"/>
<polygon points="1002.6,1385.6 977.6,1428.9 927.6,1428.9 902.6,1385.6 927.6,1342.3 977.6,1342.3" fill="none" stroke="#d4a020" stroke-width="0.5"/>
<polygon points="1089.2,1385.6 1064.2,1428.9 1014.2,1428.9 989.2,1385.6 1014.2,1342.3 1064.2,1342.3" fill="none" stroke="#d4a020" stroke-width="0.5"/>
<polygon points="1175.8,1385.6 1150.8,1428.9 1100.8,1428.9 1075.8,1385.6 1100.8,1342.3 1150.8,1342.3" fill="none" stroke="#d4a020" stroke-width="0.5"/>
</g>

  <!-- Diagonal shine band (sweeping animation) -->
  <g class="shine-band">
    <rect x="-200" y="0" width="500" height="1350" fill="url(#foilShine)" transform="rotate(20 0 0)"/>
  </g>

  <!-- Twinkling sparkles -->
  <g fill="#fff8c8">
    <circle class="sparkle" cx="120" cy="180" r="2.5"/>
    <circle class="sparkle" cx="380" cy="320" r="2"/>
    <circle class="sparkle" cx="680" cy="150" r="2.5"/>
    <circle class="sparkle" cx="940" cy="280" r="2"/>
    <circle class="sparkle" cx="220" cy="540" r="2"/>
    <circle class="sparkle" cx="850" cy="640" r="2.5"/>
    <circle class="sparkle" cx="180" cy="920" r="2"/>
    <circle class="sparkle" cx="520" cy="1020" r="2.5"/>
    <circle class="sparkle" cx="900" cy="1100" r="2"/>
    <circle class="sparkle" cx="320" cy="1200" r="2.5"/>
    <circle class="sparkle" cx="700" cy="1240" r="2"/>
  </g>

  <!-- Asymmetric pitch lines (single arc, just suggestion) -->
  <g stroke="#d4a020" stroke-width="3" fill="none" opacity="0.3">
    <path d="M 40 600 Q 540 500 1040 600"/>
  </g>

  <!-- Brand mark: Seismic WC 2026 (foil variant) -->
  <g transform="translate(870 90)" opacity="0.95">
    <text x="0" y="0" font-family="Georgia, serif" font-size="14" font-weight="700" fill="#fff8c8" letter-spacing="3">SEISMIC</text>
    <text x="0" y="22" font-family="Georgia, serif" font-size="11" font-weight="500" fill="#d4a020" letter-spacing="2">WC 2026 ✦</text>
  </g>

  <!-- Vignette -->
  <rect width="1080" height="1350" fill="url(#vigFoil)"/>
</svg>