<svg xmlns="http://www.w3.org/2000/svg" viewBox="0 0 1080 1350" preserveAspectRatio="xMidYMid slice">
  <defs>
    <linearGradient id="bgAway" x1="0" y1="0" x2="0" y2="1">
      <stop offset="0%" stop-color="#0a1f3a"/>
      <stop offset="50%" stop-color="#050e20"/>
      <stop offset="100%" stop-color="#020714"/>
    </linearGradient>
    <linearGradient id="accAway" x1="0" y1="0" x2="1" y2="0">
      <stop offset="0%" stop-color="#5dd0e0" stop-opacity="0"/>
      <stop offset="50%" stop-color="#5dd0e0" stop-opacity="0.7"/>
      <stop offset="100%" stop-color="#5dd0e0" stop-opacity="0"/>
    </linearGradient>
    <radialGradient id="fixtureGlow" cx="50%" cy="50%" r="50%">
      <stop offset="0%" stop-color="#ffffff" stop-opacity="1"/>
      <stop offset="50%" stop-color="#5dd0e0" stop-opacity="0.7"/>
      <stop offset="100%" stop-color="#5dd0e0" stop-opacity="0"/>
    </radialGradient>
    <linearGradient id="beamAway" x1="0" y1="0" x2="0" y2="1">
      <stop offset="0%" stop-color="#5dd0e0" stop-opacity="0.4"/>
      <stop offset="100%" stop-color="#5dd0e0" stop-opacity="0"/>
    </linearGradient>
    <radialGradient id="vigAway" cx="50%" cy="50%" r="70%">
      <stop offset="55%" stop-color="#000" stop-opacity="0"/>
      <stop offset="100%" stop-color="#000" stop-opacity="0.5"/>
    </radialGradient>
    <style>
      @keyframes beamFlicker { 0%,100% { opacity: 0.5 } 50% { opacity: 0.8 } }
      .beam-rays { animation: beamFlicker 3s ease-in-out infinite; }
      @keyframes fixturePulse { 0%,100% { opacity: 1 } 50% { opacity: 0.85 } }
      .fixture { animation: fixturePulse 2.5s ease-in-out infinite; }
    </style>
  </defs>

  <rect width="1080" height="1350" fill="url(#bgAway)"/>

  <!-- Refractor diagonal stripes (more visible for night) -->
<g opacity="0.06">
<line x1="-1350" y1="0" x2="0" y2="1350" stroke="#5dd0e0" stroke-width="0.8"/>
<line x1="-1305" y1="0" x2="45" y2="1350" stroke="#5dd0e0" stroke-width="0.8"/>
<line x1="-1260" y1="0" x2="90" y2="1350" stroke="#5dd0e0" stroke-width="0.8"/>
<line x1="-1215" y1="0" x2="135" y2="1350" stroke="#5dd0e0" stroke-width="0.8"/>
<line x1="-1170" y1="0" x2="180" y2="1350" stroke="#5dd0e0" stroke-width="0.8"/>
<line x1="-1125" y1="0" x2="225" y2="1350" stroke="#5dd0e0" stroke-width="0.8"/>
<line x1="-1080" y1="0" x2="270" y2="1350" stroke="#5dd0e0" stroke-width="0.8"/>
<line x1="-1035" y1="0" x2="315" y2="1350" stroke="#5dd0e0" stroke-width="0.8"/>
<line x1="-990" y1="0" x2="360" y2="1350" stroke="#5dd0e0" stroke-width="0.8"/>
<line x1="-945" y1="0" x2="405" y2="1350" stroke="#5dd0e0" stroke-width="0.8"/>
<line x1="-900" y1="0" x2="450" y2="1350" stroke="#5dd0e0" stroke-width="0.8"/>
<line x1="-855" y1="0" x2="495" y2="1350" stroke="#5dd0e0" stroke-width="0.8"/>
<line x1="-810" y1="0" x2="540" y2="1350" stroke="#5dd0e0" stroke-width="0.8"/>
<line x1="-765" y1="0" x2="585" y2="1350" stroke="#5dd0e0" stroke-width="0.8"/>
<line x1="-720" y1="0" x2="630" y2="1350" stroke="#5dd0e0" stroke-width="0.8"/>
<line x1="-675" y1="0" x2="675" y2="1350" stroke="#5dd0e0" stroke-width="0.8"/>
<line x1="-630" y1="0" x2="720" y2="1350" stroke="#5dd0e0" stroke-width="0.8"/>
<line x1="-585" y1="0" x2="765" y2="1350" stroke="#5dd0e0" stroke-width="0.8"/>
<line x1="-540" y1="0" x2="810" y2="1350" stroke="#5dd0e0" stroke-width="0.8"/>
<line x1="-495" y1="0" x2="855" y2="1350" stroke="#5dd0e0" stroke-width="0.8"/>
<line x1="-450" y1="0" x2="900" y2="1350" stroke="#5dd0e0" stroke-width="0.8"/>
<line x1="-405" y1="0" x2="945" y2="1350" stroke="#5dd0e0" stroke-width="0.8"/>
<line x1="-360" y1="0" x2="990" y2="1350" stroke="#5dd0e0" stroke-width="0.8"/>
<line x1="-315" y1="0" x2="1035" y2="1350" stroke="#5dd0e0" stroke-width="0.8"/>
<line x1="-270" y1="0" x2="1080" y2="1350" stroke="#5dd0e0" stroke-width="0.8"/>
<line x1="-225" y1="0" x2="1125" y2="1350" stroke="#5dd0e0" stroke-width="0.8"/>
<line x1="-180" y1="0" x2="1170" y2="1350" stroke="#5dd0e0" stroke-width="0.8"/>
<line x1="-135" y1="0" x2="1215" y2="1350" stroke="#5dd0e0" stroke-width="0.8"/>
<line x1="-90" y1="0" x2="1260" y2="1350" stroke="#5dd0e0" stroke-width="0.8"/>
<line x1="-45" y1="0" x2="1305" y2="1350" stroke="#5dd0e0" stroke-width="0.8"/>
<line x1="0" y1="0" x2="1350" y2="1350" stroke="#5dd0e0" stroke-width="0.8"/>
<line x1="45" y1="0" x2="1395" y2="1350" stroke="#5dd0e0" stroke-width="0.8"/>
<line x1="90" y1="0" x2="1440" y2="1350" stroke="#5dd0e0" stroke-width="0.8"/>
<line x1="135" y1="0" x2="1485" y2="1350" stroke="#5dd0e0" stroke-width="0.8"/>
<line x1="180" y1="0" x2="1530" y2="1350" stroke="#5dd0e0" stroke-width="0.8"/>
<line x1="225" y1="0" x2="1575" y2="1350" stroke="#5dd0e0" stroke-width="0.8"/>
<line x1="270" y1="0" x2="1620" y2="1350" stroke="#5dd0e0" stroke-width="0.8"/>
<line x1="315" y1="0" x2="1665" y2="1350" stroke="#5dd0e0" stroke-width="0.8"/>
<line x1="360" y1="0" x2="1710" y2="1350" stroke="#5dd0e0" stroke-width="0.8"/>
<line x1="405" y1="0" x2="1755" y2="1350" stroke="#5dd0e0" stroke-width="0.8"/>
<line x1="450" y1="0" x2="1800" y2="1350" stroke="#5dd0e0" stroke-width="0.8"/>
<line x1="495" y1="0" x2="1845" y2="1350" stroke="#5dd0e0" stroke-width="0.8"/>
<line x1="540" y1="0" x2="1890" y2="1350" stroke="#5dd0e0" stroke-width="0.8"/>
<line x1="585" y1="0" x2="1935" y2="1350" stroke="#5dd0e0" stroke-width="0.8"/>
<line x1="630" y1="0" x2="1980" y2="1350" stroke="#5dd0e0" stroke-width="0.8"/>
<line x1="675" y1="0" x2="2025" y2="1350" stroke="#5dd0e0" stroke-width="0.8"/>
<line x1="720" y1="0" x2="2070" y2="1350" stroke="#5dd0e0" stroke-width="0.8"/>
<line x1="765" y1="0" x2="2115" y2="1350" stroke="#5dd0e0" stroke-width="0.8"/>
<line x1="810" y1="0" x2="2160" y2="1350" stroke="#5dd0e0" stroke-width="0.8"/>
<line x1="855" y1="0" x2="2205" y2="1350" stroke="#5dd0e0" stroke-width="0.8"/>
<line x1="900" y1="0" x2="2250" y2="1350" stroke="#5dd0e0" stroke-width="0.8"/>
<line x1="945" y1="0" x2="2295" y2="1350" stroke="#5dd0e0" stroke-width="0.8"/>
<line x1="990" y1="0" x2="2340" y2="1350" stroke="#5dd0e0" stroke-width="0.8"/>
<line x1="1035" y1="0" x2="2385" y2="1350" stroke="#5dd0e0" stroke-width="0.8"/>
<line x1="1080" y1="0" x2="2430" y2="1350" stroke="#5dd0e0" stroke-width="0.8"/>
<line x1="1125" y1="0" x2="2475" y2="1350" stroke="#5dd0e0" stroke-width="0.8"/>
<line x1="1170" y1="0" x2="2520" y2="1350" stroke="#5dd0e0" stroke-width="0.8"/>
<line x1="1215" y1="0" x2="2565" y2="1350" stroke="#5dd0e0" stroke-width="0.8"/>
<line x1="1260" y1="0" x2="2610" y2="1350" stroke="#5dd0e0" stroke-width="0.8"/>
<line x1="1305" y1="0" x2="2655" y2="1350" stroke="#5dd0e0" stroke-width="0.8"/>
<line x1="1350" y1="0" x2="2700" y2="1350" stroke="#5dd0e0" stroke-width="0.8"/>
<line x1="1395" y1="0" x2="2745" y2="1350" stroke="#5dd0e0" stroke-width="0.8"/>
<line x1="1440" y1="0" x2="2790" y2="1350" stroke="#5dd0e0" stroke-width="0.8"/>
<line x1="1485" y1="0" x2="2835" y2="1350" stroke="#5dd0e0" stroke-width="0.8"/>
<line x1="1530" y1="0" x2="2880" y2="1350" stroke="#5dd0e0" stroke-width="0.8"/>
<line x1="1575" y1="0" x2="2925" y2="1350" stroke="#5dd0e0" stroke-width="0.8"/>
<line x1="1620" y1="0" x2="2970" y2="1350" stroke="#5dd0e0" stroke-width="0.8"/>
<line x1="1665" y1="0" x2="3015" y2="1350" stroke="#5dd0e0" stroke-width="0.8"/>
<line x1="1710" y1="0" x2="3060" y2="1350" stroke="#5dd0e0" stroke-width="0.8"/>
<line x1="1755" y1="0" x2="3105" y2="1350" stroke="#5dd0e0" stroke-width="0.8"/>
<line x1="1800" y1="0" x2="3150" y2="1350" stroke="#5dd0e0" stroke-width="0.8"/>
<line x1="1845" y1="0" x2="3195" y2="1350" stroke="#5dd0e0" stroke-width="0.8"/>
<line x1="1890" y1="0" x2="3240" y2="1350" stroke="#5dd0e0" stroke-width="0.8"/>
<line x1="1935" y1="0" x2="3285" y2="1350" stroke="#5dd0e0" stroke-width="0.8"/>
<line x1="1980" y1="0" x2="3330" y2="1350" stroke="#5dd0e0" stroke-width="0.8"/>
<line x1="2025" y1="0" x2="3375" y2="1350" stroke="#5dd0e0" stroke-width="0.8"/>
<line x1="2070" y1="0" x2="3420" y2="1350" stroke="#5dd0e0" stroke-width="0.8"/>
<line x1="2115" y1="0" x2="3465" y2="1350" stroke="#5dd0e0" stroke-width="0.8"/>
<line x1="2160" y1="0" x2="3510" y2="1350" stroke="#5dd0e0" stroke-width="0.8"/>
<line x1="2205" y1="0" x2="3555" y2="1350" stroke="#5dd0e0" stroke-width="0.8"/>
<line x1="2250" y1="0" x2="3600" y2="1350" stroke="#5dd0e0" stroke-width="0.8"/>
<line x1="2295" y1="0" x2="3645" y2="1350" stroke="#5dd0e0" stroke-width="0.8"/>
<line x1="2340" y1="0" x2="3690" y2="1350" stroke="#5dd0e0" stroke-width="0.8"/>
<line x1="2385" y1="0" x2="3735" y2="1350" stroke="#5dd0e0" stroke-width="0.8"/>
</g>

  <!-- Subtle dot texture -->
<circle cx="40" cy="40" r="1.2" fill="#5dd0e0" opacity="0.08"/><circle cx="40" cy="95" r="1.2" fill="#5dd0e0" opacity="0.08"/><circle cx="40" cy="150" r="1.2" fill="#5dd0e0" opacity="0.08"/><circle cx="40" cy="205" r="1.2" fill="#5dd0e0" opacity="0.08"/><circle cx="40" cy="260" r="1.2" fill="#5dd0e0" opacity="0.08"/><circle cx="40" cy="315" r="1.2" fill="#5dd0e0" opacity="0.08"/><circle cx="40" cy="370" r="1.2" fill="#5dd0e0" opacity="0.08"/><circle cx="40" cy="425" r="1.2" fill="#5dd0e0" opacity="0.08"/><circle cx="40" cy="480" r="1.2" fill="#5dd0e0" opacity="0.08"/><circle cx="40" cy="535" r="1.2" fill="#5dd0e0" opacity="0.08"/><circle cx="40" cy="590" r="1.2" fill="#5dd0e0" opacity="0.08"/><circle cx="40" cy="645" r="1.2" fill="#5dd0e0" opacity="0.08"/><circle cx="40" cy="700" r="1.2" fill="#5dd0e0" opacity="0.08"/><circle cx="40" cy="755" r="1.2" fill="#5dd0e0" opacity="0.08"/><circle cx="40" cy="810" r="1.2" fill="#5dd0e0" opacity="0.08"/><circle cx="40" cy="865" r="1.2" fill="#5dd0e0" opacity="0.08"/><circle cx="40" cy="920" r="1.2" fill="#5dd0e0" opacity="0.08"/><circle cx="40" cy="975" r="1.2" fill="#5dd0e0" opacity="0.08"/><circle cx="40" cy="1030" r="1.2" fill="#5dd0e0" opacity="0.08"/><circle cx="40" cy="1085" r="1.2" fill="#5dd0e0" opacity="0.08"/><circle cx="40" cy="1140" r="1.2" fill="#5dd0e0" opacity="0.08"/><circle cx="40" cy="1195" r="1.2" fill="#5dd0e0" opacity="0.08"/><circle cx="40" cy="1250" r="1.2" fill="#5dd0e0" opacity="0.08"/><circle cx="40" cy="1305" r="1.2" fill="#5dd0e0" opacity="0.08"/><circle cx="95" cy="40" r="1.2" fill="#5dd0e0" opacity="0.08"/><circle cx="95" cy="95" r="1.2" fill="#5dd0e0" opacity="0.08"/><circle cx="95" cy="150" r="1.2" fill="#5dd0e0" opacity="0.08"/><circle cx="95" cy="205" r="1.2" fill="#5dd0e0" opacity="0.08"/><circle cx="95" cy="260" r="1.2" fill="#5dd0e0" opacity="0.08"/><circle cx="95" cy="315" r="1.2" fill="#5dd0e0" opacity="0.08"/><circle cx="95" cy="370" r="1.2" fill="#5dd0e0" opacity="0.08"/><circle cx="95" cy="425" r="1.2" fill="#5dd0e0" opacity="0.08"/><circle cx="95" cy="480" r="1.2" fill="#5dd0e0" opacity="0.08"/><circle cx="95" cy="535" r="1.2" fill="#5dd0e0" opacity="0.08"/><circle cx="95" cy="590" r="1.2" fill="#5dd0e0" opacity="0.08"/><circle cx="95" cy="645" r="1.2" fill="#5dd0e0" opacity="0.08"/><circle cx="95" cy="700" r="1.2" fill="#5dd0e0" opacity="0.08"/><circle cx="95" cy="755" r="1.2" fill="#5dd0e0" opacity="0.08"/><circle cx="95" cy="810" r="1.2" fill="#5dd0e0" opacity="0.08"/><circle cx="95" cy="865" r="1.2" fill="#5dd0e0" opacity="0.08"/><circle cx="95" cy="920" r="1.2" fill="#5dd0e0" opacity="0.08"/><circle cx="95" cy="975" r="1.2" fill="#5dd0e0" opacity="0.08"/><circle cx="95" cy="1030" r="1.2" fill="#5dd0e0" opacity="0.08"/><circle cx="95" cy="1085" r="1.2" fill="#5dd0e0" opacity="0.08"/><circle cx="95" cy="1140" r="1.2" fill="#5dd0e0" opacity="0.08"/><circle cx="95" cy="1195" r="1.2" fill="#5dd0e0" opacity="0.08"/><circle cx="95" cy="1250" r="1.2" fill="#5dd0e0" opacity="0.08"/><circle cx="95" cy="1305" r="1.2" fill="#5dd0e0" opacity="0.08"/><circle cx="150" cy="40" r="1.2" fill="#5dd0e0" opacity="0.08"/><circle cx="150" cy="95" r="1.2" fill="#5dd0e0" opacity="0.08"/><circle cx="150" cy="150" r="1.2" fill="#5dd0e0" opacity="0.08"/><circle cx="150" cy="205" r="1.2" fill="#5dd0e0" opacity="0.08"/><circle cx="150" cy="260" r="1.2" fill="#5dd0e0" opacity="0.08"/><circle cx="150" cy="315" r="1.2" fill="#5dd0e0" opacity="0.08"/><circle cx="150" cy="370" r="1.2" fill="#5dd0e0" opacity="0.08"/><circle cx="150" cy="425" r="1.2" fill="#5dd0e0" opacity="0.08"/><circle cx="150" cy="480" r="1.2" fill="#5dd0e0" opacity="0.08"/><circle cx="150" cy="535" r="1.2" fill="#5dd0e0" opacity="0.08"/><circle cx="150" cy="590" r="1.2" fill="#5dd0e0" opacity="0.08"/><circle cx="150" cy="645" r="1.2" fill="#5dd0e0" opacity="0.08"/><circle cx="150" cy="700" r="1.2" fill="#5dd0e0" opacity="0.08"/><circle cx="150" cy="755" r="1.2" fill="#5dd0e0" opacity="0.08"/><circle cx="150" cy="810" r="1.2" fill="#5dd0e0" opacity="0.08"/><circle cx="150" cy="865" r="1.2" fill="#5dd0e0" opacity="0.08"/><circle cx="150" cy="920" r="1.2" fill="#5dd0e0" opacity="0.08"/><circle cx="150" cy="975" r="1.2" fill="#5dd0e0" opacity="0.08"/><circle cx="150" cy="1030" r="1.2" fill="#5dd0e0" opacity="0.08"/><circle cx="150" cy="1085" r="1.2" fill="#5dd0e0" opacity="0.08"/><circle cx="150" cy="1140" r="1.2" fill="#5dd0e0" opacity="0.08"/><circle cx="150" cy="1195" r="1.2" fill="#5dd0e0" opacity="0.08"/><circle cx="150" cy="1250" r="1.2" fill="#5dd0e0" opacity="0.08"/><circle cx="150" cy="1305" r="1.2" fill="#5dd0e0" opacity="0.08"/><circle cx="205" cy="40" r="1.2" fill="#5dd0e0" opacity="0.08"/><circle cx="205" cy="95" r="1.2" fill="#5dd0e0" opacity="0.08"/><circle cx="205" cy="150" r="1.2" fill="#5dd0e0" opacity="0.08"/><circle cx="205" cy="205" r="1.2" fill="#5dd0e0" opacity="0.08"/><circle cx="205" cy="260" r="1.2" fill="#5dd0e0" opacity="0.08"/><circle cx="205" cy="315" r="1.2" fill="#5dd0e0" opacity="0.08"/><circle cx="205" cy="370" r="1.2" fill="#5dd0e0" opacity="0.08"/><circle cx="205" cy="425" r="1.2" fill="#5dd0e0" opacity="0.08"/><circle cx="205" cy="480" r="1.2" fill="#5dd0e0" opacity="0.08"/><circle cx="205" cy="535" r="1.2" fill="#5dd0e0" opacity="0.08"/><circle cx="205" cy="590" r="1.2" fill="#5dd0e0" opacity="0.08"/><circle cx="205" cy="645" r="1.2" fill="#5dd0e0" opacity="0.08"/><circle cx="205" cy="700" r="1.2" fill="#5dd0e0" opacity="0.08"/><circle cx="205" cy="755" r="1.2" fill="#5dd0e0" opacity="0.08"/><circle cx="205" cy="810" r="1.2" fill="#5dd0e0" opacity="0.08"/><circle cx="205" cy="865" r="1.2" fill="#5dd0e0" opacity="0.08"/><circle cx="205" cy="920" r="1.2" fill="#5dd0e0" opacity="0.08"/><circle cx="205" cy="975" r="1.2" fill="#5dd0e0" opacity="0.08"/><circle cx="205" cy="1030" r="1.2" fill="#5dd0e0" opacity="0.08"/><circle cx="205" cy="1085" r="1.2" fill="#5dd0e0" opacity="0.08"/><circle cx="205" cy="1140" r="1.2" fill="#5dd0e0" opacity="0.08"/><circle cx="205" cy="1195" r="1.2" fill="#5dd0e0" opacity="0.08"/><circle cx="205" cy="1250" r="1.2" fill="#5dd0e0" opacity="0.08"/><circle cx="205" cy="1305" r="1.2" fill="#5dd0e0" opacity="0.08"/><circle cx="260" cy="40" r="1.2" fill="#5dd0e0" opacity="0.08"/><circle cx="260" cy="95" r="1.2" fill="#5dd0e0" opacity="0.08"/><circle cx="260" cy="150" r="1.2" fill="#5dd0e0" opacity="0.08"/><circle cx="260" cy="205" r="1.2" fill="#5dd0e0" opacity="0.08"/><circle cx="260" cy="260" r="1.2" fill="#5dd0e0" opacity="0.08"/><circle cx="260" cy="315" r="1.2" fill="#5dd0e0" opacity="0.08"/><circle cx="260" cy="370" r="1.2" fill="#5dd0e0" opacity="0.08"/><circle cx="260" cy="425" r="1.2" fill="#5dd0e0" opacity="0.08"/><circle cx="260" cy="480" r="1.2" fill="#5dd0e0" opacity="0.08"/><circle cx="260" cy="535" r="1.2" fill="#5dd0e0" opacity="0.08"/><circle cx="260" cy="590" r="1.2" fill="#5dd0e0" opacity="0.08"/><circle cx="260" cy="645" r="1.2" fill="#5dd0e0" opacity="0.08"/><circle cx="260" cy="700" r="1.2" fill="#5dd0e0" opacity="0.08"/><circle cx="260" cy="755" r="1.2" fill="#5dd0e0" opacity="0.08"/><circle cx="260" cy="810" r="1.2" fill="#5dd0e0" opacity="0.08"/><circle cx="260" cy="865" r="1.2" fill="#5dd0e0" opacity="0.08"/><circle cx="260" cy="920" r="1.2" fill="#5dd0e0" opacity="0.08"/><circle cx="260" cy="975" r="1.2" fill="#5dd0e0" opacity="0.08"/><circle cx="260" cy="1030" r="1.2" fill="#5dd0e0" opacity="0.08"/><circle cx="260" cy="1085" r="1.2" fill="#5dd0e0" opacity="0.08"/><circle cx="260" cy="1140" r="1.2" fill="#5dd0e0" opacity="0.08"/><circle cx="260" cy="1195" r="1.2" fill="#5dd0e0" opacity="0.08"/><circle cx="260" cy="1250" r="1.2" fill="#5dd0e0" opacity="0.08"/><circle cx="260" cy="1305" r="1.2" fill="#5dd0e0" opacity="0.08"/><circle cx="315" cy="40" r="1.2" fill="#5dd0e0" opacity="0.08"/><circle cx="315" cy="95" r="1.2" fill="#5dd0e0" opacity="0.08"/><circle cx="315" cy="150" r="1.2" fill="#5dd0e0" opacity="0.08"/><circle cx="315" cy="205" r="1.2" fill="#5dd0e0" opacity="0.08"/><circle cx="315" cy="260" r="1.2" fill="#5dd0e0" opacity="0.08"/><circle cx="315" cy="315" r="1.2" fill="#5dd0e0" opacity="0.08"/><circle cx="315" cy="370" r="1.2" fill="#5dd0e0" opacity="0.08"/><circle cx="315" cy="425" r="1.2" fill="#5dd0e0" opacity="0.08"/><circle cx="315" cy="480" r="1.2" fill="#5dd0e0" opacity="0.08"/><circle cx="315" cy="535" r="1.2" fill="#5dd0e0" opacity="0.08"/><circle cx="315" cy="590" r="1.2" fill="#5dd0e0" opacity="0.08"/><circle cx="315" cy="645" r="1.2" fill="#5dd0e0" opacity="0.08"/><circle cx="315" cy="700" r="1.2" fill="#5dd0e0" opacity="0.08"/><circle cx="315" cy="755" r="1.2" fill="#5dd0e0" opacity="0.08"/><circle cx="315" cy="810" r="1.2" fill="#5dd0e0" opacity="0.08"/><circle cx="315" cy="865" r="1.2" fill="#5dd0e0" opacity="0.08"/><circle cx="315" cy="920" r="1.2" fill="#5dd0e0" opacity="0.08"/><circle cx="315" cy="975" r="1.2" fill="#5dd0e0" opacity="0.08"/><circle cx="315" cy="1030" r="1.2" fill="#5dd0e0" opacity="0.08"/><circle cx="315" cy="1085" r="1.2" fill="#5dd0e0" opacity="0.08"/><circle cx="315" cy="1140" r="1.2" fill="#5dd0e0" opacity="0.08"/><circle cx="315" cy="1195" r="1.2" fill="#5dd0e0" opacity="0.08"/><circle cx="315" cy="1250" r="1.2" fill="#5dd0e0" opacity="0.08"/><circle cx="315" cy="1305" r="1.2" fill="#5dd0e0" opacity="0.08"/><circle cx="370" cy="40" r="1.2" fill="#5dd0e0" opacity="0.08"/><circle cx="370" cy="95" r="1.2" fill="#5dd0e0" opacity="0.08"/><circle cx="370" cy="150" r="1.2" fill="#5dd0e0" opacity="0.08"/><circle cx="370" cy="205" r="1.2" fill="#5dd0e0" opacity="0.08"/><circle cx="370" cy="260" r="1.2" fill="#5dd0e0" opacity="0.08"/><circle cx="370" cy="315" r="1.2" fill="#5dd0e0" opacity="0.08"/><circle cx="370" cy="370" r="1.2" fill="#5dd0e0" opacity="0.08"/><circle cx="370" cy="425" r="1.2" fill="#5dd0e0" opacity="0.08"/><circle cx="370" cy="480" r="1.2" fill="#5dd0e0" opacity="0.08"/><circle cx="370" cy="535" r="1.2" fill="#5dd0e0" opacity="0.08"/><circle cx="370" cy="590" r="1.2" fill="#5dd0e0" opacity="0.08"/><circle cx="370" cy="645" r="1.2" fill="#5dd0e0" opacity="0.08"/><circle cx="370" cy="700" r="1.2" fill="#5dd0e0" opacity="0.08"/><circle cx="370" cy="755" r="1.2" fill="#5dd0e0" opacity="0.08"/><circle cx="370" cy="810" r="1.2" fill="#5dd0e0" opacity="0.08"/><circle cx="370" cy="865" r="1.2" fill="#5dd0e0" opacity="0.08"/><circle cx="370" cy="920" r="1.2" fill="#5dd0e0" opacity="0.08"/><circle cx="370" cy="975" r="1.2" fill="#5dd0e0" opacity="0.08"/><circle cx="370" cy="1030" r="1.2" fill="#5dd0e0" opacity="0.08"/><circle cx="370" cy="1085" r="1.2" fill="#5dd0e0" opacity="0.08"/><circle cx="370" cy="1140" r="1.2" fill="#5dd0e0" opacity="0.08"/><circle cx="370" cy="1195" r="1.2" fill="#5dd0e0" opacity="0.08"/><circle cx="370" cy="1250" r="1.2" fill="#5dd0e0" opacity="0.08"/><circle cx="370" cy="1305" r="1.2" fill="#5dd0e0" opacity="0.08"/><circle cx="425" cy="40" r="1.2" fill="#5dd0e0" opacity="0.08"/><circle cx="425" cy="95" r="1.2" fill="#5dd0e0" opacity="0.08"/><circle cx="425" cy="150" r="1.2" fill="#5dd0e0" opacity="0.08"/><circle cx="425" cy="205" r="1.2" fill="#5dd0e0" opacity="0.08"/><circle cx="425" cy="260" r="1.2" fill="#5dd0e0" opacity="0.08"/><circle cx="425" cy="315" r="1.2" fill="#5dd0e0" opacity="0.08"/><circle cx="425" cy="370" r="1.2" fill="#5dd0e0" opacity="0.08"/><circle cx="425" cy="425" r="1.2" fill="#5dd0e0" opacity="0.08"/><circle cx="425" cy="480" r="1.2" fill="#5dd0e0" opacity="0.08"/><circle cx="425" cy="535" r="1.2" fill="#5dd0e0" opacity="0.08"/><circle cx="425" cy="590" r="1.2" fill="#5dd0e0" opacity="0.08"/><circle cx="425" cy="645" r="1.2" fill="#5dd0e0" opacity="0.08"/><circle cx="425" cy="700" r="1.2" fill="#5dd0e0" opacity="0.08"/><circle cx="425" cy="755" r="1.2" fill="#5dd0e0" opacity="0.08"/><circle cx="425" cy="810" r="1.2" fill="#5dd0e0" opacity="0.08"/><circle cx="425" cy="865" r="1.2" fill="#5dd0e0" opacity="0.08"/><circle cx="425" cy="920" r="1.2" fill="#5dd0e0" opacity="0.08"/><circle cx="425" cy="975" r="1.2" fill="#5dd0e0" opacity="0.08"/><circle cx="425" cy="1030" r="1.2" fill="#5dd0e0" opacity="0.08"/><circle cx="425" cy="1085" r="1.2" fill="#5dd0e0" opacity="0.08"/><circle cx="425" cy="1140" r="1.2" fill="#5dd0e0" opacity="0.08"/><circle cx="425" cy="1195" r="1.2" fill="#5dd0e0" opacity="0.08"/><circle cx="425" cy="1250" r="1.2" fill="#5dd0e0" opacity="0.08"/><circle cx="425" cy="1305" r="1.2" fill="#5dd0e0" opacity="0.08"/><circle cx="480" cy="40" r="1.2" fill="#5dd0e0" opacity="0.08"/><circle cx="480" cy="95" r="1.2" fill="#5dd0e0" opacity="0.08"/><circle cx="480" cy="150" r="1.2" fill="#5dd0e0" opacity="0.08"/><circle cx="480" cy="205" r="1.2" fill="#5dd0e0" opacity="0.08"/><circle cx="480" cy="260" r="1.2" fill="#5dd0e0" opacity="0.08"/><circle cx="480" cy="315" r="1.2" fill="#5dd0e0" opacity="0.08"/><circle cx="480" cy="370" r="1.2" fill="#5dd0e0" opacity="0.08"/><circle cx="480" cy="425" r="1.2" fill="#5dd0e0" opacity="0.08"/><circle cx="480" cy="480" r="1.2" fill="#5dd0e0" opacity="0.08"/><circle cx="480" cy="535" r="1.2" fill="#5dd0e0" opacity="0.08"/><circle cx="480" cy="590" r="1.2" fill="#5dd0e0" opacity="0.08"/><circle cx="480" cy="645" r="1.2" fill="#5dd0e0" opacity="0.08"/><circle cx="480" cy="700" r="1.2" fill="#5dd0e0" opacity="0.08"/><circle cx="480" cy="755" r="1.2" fill="#5dd0e0" opacity="0.08"/><circle cx="480" cy="810" r="1.2" fill="#5dd0e0" opacity="0.08"/><circle cx="480" cy="865" r="1.2" fill="#5dd0e0" opacity="0.08"/><circle cx="480" cy="920" r="1.2" fill="#5dd0e0" opacity="0.08"/><circle cx="480" cy="975" r="1.2" fill="#5dd0e0" opacity="0.08"/><circle cx="480" cy="1030" r="1.2" fill="#5dd0e0" opacity="0.08"/><circle cx="480" cy="1085" r="1.2" fill="#5dd0e0" opacity="0.08"/><circle cx="480" cy="1140" r="1.2" fill="#5dd0e0" opacity="0.08"/><circle cx="480" cy="1195" r="1.2" fill="#5dd0e0" opacity="0.08"/><circle cx="480" cy="1250" r="1.2" fill="#5dd0e0" opacity="0.08"/><circle cx="480" cy="1305" r="1.2" fill="#5dd0e0" opacity="0.08"/><circle cx="535" cy="40" r="1.2" fill="#5dd0e0" opacity="0.08"/><circle cx="535" cy="95" r="1.2" fill="#5dd0e0" opacity="0.08"/><circle cx="535" cy="150" r="1.2" fill="#5dd0e0" opacity="0.08"/><circle cx="535" cy="205" r="1.2" fill="#5dd0e0" opacity="0.08"/><circle cx="535" cy="260" r="1.2" fill="#5dd0e0" opacity="0.08"/><circle cx="535" cy="315" r="1.2" fill="#5dd0e0" opacity="0.08"/><circle cx="535" cy="370" r="1.2" fill="#5dd0e0" opacity="0.08"/><circle cx="535" cy="425" r="1.2" fill="#5dd0e0" opacity="0.08"/><circle cx="535" cy="480" r="1.2" fill="#5dd0e0" opacity="0.08"/><circle cx="535" cy="535" r="1.2" fill="#5dd0e0" opacity="0.08"/><circle cx="535" cy="590" r="1.2" fill="#5dd0e0" opacity="0.08"/><circle cx="535" cy="645" r="1.2" fill="#5dd0e0" opacity="0.08"/><circle cx="535" cy="700" r="1.2" fill="#5dd0e0" opacity="0.08"/><circle cx="535" cy="755" r="1.2" fill="#5dd0e0" opacity="0.08"/><circle cx="535" cy="810" r="1.2" fill="#5dd0e0" opacity="0.08"/><circle cx="535" cy="865" r="1.2" fill="#5dd0e0" opacity="0.08"/><circle cx="535" cy="920" r="1.2" fill="#5dd0e0" opacity="0.08"/><circle cx="535" cy="975" r="1.2" fill="#5dd0e0" opacity="0.08"/><circle cx="535" cy="1030" r="1.2" fill="#5dd0e0" opacity="0.08"/><circle cx="535" cy="1085" r="1.2" fill="#5dd0e0" opacity="0.08"/><circle cx="535" cy="1140" r="1.2" fill="#5dd0e0" opacity="0.08"/><circle cx="535" cy="1195" r="1.2" fill="#5dd0e0" opacity="0.08"/><circle cx="535" cy="1250" r="1.2" fill="#5dd0e0" opacity="0.08"/><circle cx="535" cy="1305" r="1.2" fill="#5dd0e0" opacity="0.08"/><circle cx="590" cy="40" r="1.2" fill="#5dd0e0" opacity="0.08"/><circle cx="590" cy="95" r="1.2" fill="#5dd0e0" opacity="0.08"/><circle cx="590" cy="150" r="1.2" fill="#5dd0e0" opacity="0.08"/><circle cx="590" cy="205" r="1.2" fill="#5dd0e0" opacity="0.08"/><circle cx="590" cy="260" r="1.2" fill="#5dd0e0" opacity="0.08"/><circle cx="590" cy="315" r="1.2" fill="#5dd0e0" opacity="0.08"/><circle cx="590" cy="370" r="1.2" fill="#5dd0e0" opacity="0.08"/><circle cx="590" cy="425" r="1.2" fill="#5dd0e0" opacity="0.08"/><circle cx="590" cy="480" r="1.2" fill="#5dd0e0" opacity="0.08"/><circle cx="590" cy="535" r="1.2" fill="#5dd0e0" opacity="0.08"/><circle cx="590" cy="590" r="1.2" fill="#5dd0e0" opacity="0.08"/><circle cx="590" cy="645" r="1.2" fill="#5dd0e0" opacity="0.08"/><circle cx="590" cy="700" r="1.2" fill="#5dd0e0" opacity="0.08"/><circle cx="590" cy="755" r="1.2" fill="#5dd0e0" opacity="0.08"/><circle cx="590" cy="810" r="1.2" fill="#5dd0e0" opacity="0.08"/><circle cx="590" cy="865" r="1.2" fill="#5dd0e0" opacity="0.08"/><circle cx="590" cy="920" r="1.2" fill="#5dd0e0" opacity="0.08"/><circle cx="590" cy="975" r="1.2" fill="#5dd0e0" opacity="0.08"/><circle cx="590" cy="1030" r="1.2" fill="#5dd0e0" opacity="0.08"/><circle cx="590" cy="1085" r="1.2" fill="#5dd0e0" opacity="0.08"/><circle cx="590" cy="1140" r="1.2" fill="#5dd0e0" opacity="0.08"/><circle cx="590" cy="1195" r="1.2" fill="#5dd0e0" opacity="0.08"/><circle cx="590" cy="1250" r="1.2" fill="#5dd0e0" opacity="0.08"/><circle cx="590" cy="1305" r="1.2" fill="#5dd0e0" opacity="0.08"/><circle cx="645" cy="40" r="1.2" fill="#5dd0e0" opacity="0.08"/><circle cx="645" cy="95" r="1.2" fill="#5dd0e0" opacity="0.08"/><circle cx="645" cy="150" r="1.2" fill="#5dd0e0" opacity="0.08"/><circle cx="645" cy="205" r="1.2" fill="#5dd0e0" opacity="0.08"/><circle cx="645" cy="260" r="1.2" fill="#5dd0e0" opacity="0.08"/><circle cx="645" cy="315" r="1.2" fill="#5dd0e0" opacity="0.08"/><circle cx="645" cy="370" r="1.2" fill="#5dd0e0" opacity="0.08"/><circle cx="645" cy="425" r="1.2" fill="#5dd0e0" opacity="0.08"/><circle cx="645" cy="480" r="1.2" fill="#5dd0e0" opacity="0.08"/><circle cx="645" cy="535" r="1.2" fill="#5dd0e0" opacity="0.08"/><circle cx="645" cy="590" r="1.2" fill="#5dd0e0" opacity="0.08"/><circle cx="645" cy="645" r="1.2" fill="#5dd0e0" opacity="0.08"/><circle cx="645" cy="700" r="1.2" fill="#5dd0e0" opacity="0.08"/><circle cx="645" cy="755" r="1.2" fill="#5dd0e0" opacity="0.08"/><circle cx="645" cy="810" r="1.2" fill="#5dd0e0" opacity="0.08"/><circle cx="645" cy="865" r="1.2" fill="#5dd0e0" opacity="0.08"/><circle cx="645" cy="920" r="1.2" fill="#5dd0e0" opacity="0.08"/><circle cx="645" cy="975" r="1.2" fill="#5dd0e0" opacity="0.08"/><circle cx="645" cy="1030" r="1.2" fill="#5dd0e0" opacity="0.08"/><circle cx="645" cy="1085" r="1.2" fill="#5dd0e0" opacity="0.08"/><circle cx="645" cy="1140" r="1.2" fill="#5dd0e0" opacity="0.08"/><circle cx="645" cy="1195" r="1.2" fill="#5dd0e0" opacity="0.08"/><circle cx="645" cy="1250" r="1.2" fill="#5dd0e0" opacity="0.08"/><circle cx="645" cy="1305" r="1.2" fill="#5dd0e0" opacity="0.08"/><circle cx="700" cy="40" r="1.2" fill="#5dd0e0" opacity="0.08"/><circle cx="700" cy="95" r="1.2" fill="#5dd0e0" opacity="0.08"/><circle cx="700" cy="150" r="1.2" fill="#5dd0e0" opacity="0.08"/><circle cx="700" cy="205" r="1.2" fill="#5dd0e0" opacity="0.08"/><circle cx="700" cy="260" r="1.2" fill="#5dd0e0" opacity="0.08"/><circle cx="700" cy="315" r="1.2" fill="#5dd0e0" opacity="0.08"/><circle cx="700" cy="370" r="1.2" fill="#5dd0e0" opacity="0.08"/><circle cx="700" cy="425" r="1.2" fill="#5dd0e0" opacity="0.08"/><circle cx="700" cy="480" r="1.2" fill="#5dd0e0" opacity="0.08"/><circle cx="700" cy="535" r="1.2" fill="#5dd0e0" opacity="0.08"/><circle cx="700" cy="590" r="1.2" fill="#5dd0e0" opacity="0.08"/><circle cx="700" cy="645" r="1.2" fill="#5dd0e0" opacity="0.08"/><circle cx="700" cy="700" r="1.2" fill="#5dd0e0" opacity="0.08"/><circle cx="700" cy="755" r="1.2" fill="#5dd0e0" opacity="0.08"/><circle cx="700" cy="810" r="1.2" fill="#5dd0e0" opacity="0.08"/><circle cx="700" cy="865" r="1.2" fill="#5dd0e0" opacity="0.08"/><circle cx="700" cy="920" r="1.2" fill="#5dd0e0" opacity="0.08"/><circle cx="700" cy="975" r="1.2" fill="#5dd0e0" opacity="0.08"/><circle cx="700" cy="1030" r="1.2" fill="#5dd0e0" opacity="0.08"/><circle cx="700" cy="1085" r="1.2" fill="#5dd0e0" opacity="0.08"/><circle cx="700" cy="1140" r="1.2" fill="#5dd0e0" opacity="0.08"/><circle cx="700" cy="1195" r="1.2" fill="#5dd0e0" opacity="0.08"/><circle cx="700" cy="1250" r="1.2" fill="#5dd0e0" opacity="0.08"/><circle cx="700" cy="1305" r="1.2" fill="#5dd0e0" opacity="0.08"/><circle cx="755" cy="40" r="1.2" fill="#5dd0e0" opacity="0.08"/><circle cx="755" cy="95" r="1.2" fill="#5dd0e0" opacity="0.08"/><circle cx="755" cy="150" r="1.2" fill="#5dd0e0" opacity="0.08"/><circle cx="755" cy="205" r="1.2" fill="#5dd0e0" opacity="0.08"/><circle cx="755" cy="260" r="1.2" fill="#5dd0e0" opacity="0.08"/><circle cx="755" cy="315" r="1.2" fill="#5dd0e0" opacity="0.08"/><circle cx="755" cy="370" r="1.2" fill="#5dd0e0" opacity="0.08"/><circle cx="755" cy="425" r="1.2" fill="#5dd0e0" opacity="0.08"/><circle cx="755" cy="480" r="1.2" fill="#5dd0e0" opacity="0.08"/><circle cx="755" cy="535" r="1.2" fill="#5dd0e0" opacity="0.08"/><circle cx="755" cy="590" r="1.2" fill="#5dd0e0" opacity="0.08"/><circle cx="755" cy="645" r="1.2" fill="#5dd0e0" opacity="0.08"/><circle cx="755" cy="700" r="1.2" fill="#5dd0e0" opacity="0.08"/><circle cx="755" cy="755" r="1.2" fill="#5dd0e0" opacity="0.08"/><circle cx="755" cy="810" r="1.2" fill="#5dd0e0" opacity="0.08"/><circle cx="755" cy="865" r="1.2" fill="#5dd0e0" opacity="0.08"/><circle cx="755" cy="920" r="1.2" fill="#5dd0e0" opacity="0.08"/><circle cx="755" cy="975" r="1.2" fill="#5dd0e0" opacity="0.08"/><circle cx="755" cy="1030" r="1.2" fill="#5dd0e0" opacity="0.08"/><circle cx="755" cy="1085" r="1.2" fill="#5dd0e0" opacity="0.08"/><circle cx="755" cy="1140" r="1.2" fill="#5dd0e0" opacity="0.08"/><circle cx="755" cy="1195" r="1.2" fill="#5dd0e0" opacity="0.08"/><circle cx="755" cy="1250" r="1.2" fill="#5dd0e0" opacity="0.08"/><circle cx="755" cy="1305" r="1.2" fill="#5dd0e0" opacity="0.08"/><circle cx="810" cy="40" r="1.2" fill="#5dd0e0" opacity="0.08"/><circle cx="810" cy="95" r="1.2" fill="#5dd0e0" opacity="0.08"/><circle cx="810" cy="150" r="1.2" fill="#5dd0e0" opacity="0.08"/><circle cx="810" cy="205" r="1.2" fill="#5dd0e0" opacity="0.08"/><circle cx="810" cy="260" r="1.2" fill="#5dd0e0" opacity="0.08"/><circle cx="810" cy="315" r="1.2" fill="#5dd0e0" opacity="0.08"/><circle cx="810" cy="370" r="1.2" fill="#5dd0e0" opacity="0.08"/><circle cx="810" cy="425" r="1.2" fill="#5dd0e0" opacity="0.08"/><circle cx="810" cy="480" r="1.2" fill="#5dd0e0" opacity="0.08"/><circle cx="810" cy="535" r="1.2" fill="#5dd0e0" opacity="0.08"/><circle cx="810" cy="590" r="1.2" fill="#5dd0e0" opacity="0.08"/><circle cx="810" cy="645" r="1.2" fill="#5dd0e0" opacity="0.08"/><circle cx="810" cy="700" r="1.2" fill="#5dd0e0" opacity="0.08"/><circle cx="810" cy="755" r="1.2" fill="#5dd0e0" opacity="0.08"/><circle cx="810" cy="810" r="1.2" fill="#5dd0e0" opacity="0.08"/><circle cx="810" cy="865" r="1.2" fill="#5dd0e0" opacity="0.08"/><circle cx="810" cy="920" r="1.2" fill="#5dd0e0" opacity="0.08"/><circle cx="810" cy="975" r="1.2" fill="#5dd0e0" opacity="0.08"/><circle cx="810" cy="1030" r="1.2" fill="#5dd0e0" opacity="0.08"/><circle cx="810" cy="1085" r="1.2" fill="#5dd0e0" opacity="0.08"/><circle cx="810" cy="1140" r="1.2" fill="#5dd0e0" opacity="0.08"/><circle cx="810" cy="1195" r="1.2" fill="#5dd0e0" opacity="0.08"/><circle cx="810" cy="1250" r="1.2" fill="#5dd0e0" opacity="0.08"/><circle cx="810" cy="1305" r="1.2" fill="#5dd0e0" opacity="0.08"/><circle cx="865" cy="40" r="1.2" fill="#5dd0e0" opacity="0.08"/><circle cx="865" cy="95" r="1.2" fill="#5dd0e0" opacity="0.08"/><circle cx="865" cy="150" r="1.2" fill="#5dd0e0" opacity="0.08"/><circle cx="865" cy="205" r="1.2" fill="#5dd0e0" opacity="0.08"/><circle cx="865" cy="260" r="1.2" fill="#5dd0e0" opacity="0.08"/><circle cx="865" cy="315" r="1.2" fill="#5dd0e0" opacity="0.08"/><circle cx="865" cy="370" r="1.2" fill="#5dd0e0" opacity="0.08"/><circle cx="865" cy="425" r="1.2" fill="#5dd0e0" opacity="0.08"/><circle cx="865" cy="480" r="1.2" fill="#5dd0e0" opacity="0.08"/><circle cx="865" cy="535" r="1.2" fill="#5dd0e0" opacity="0.08"/><circle cx="865" cy="590" r="1.2" fill="#5dd0e0" opacity="0.08"/><circle cx="865" cy="645" r="1.2" fill="#5dd0e0" opacity="0.08"/><circle cx="865" cy="700" r="1.2" fill="#5dd0e0" opacity="0.08"/><circle cx="865" cy="755" r="1.2" fill="#5dd0e0" opacity="0.08"/><circle cx="865" cy="810" r="1.2" fill="#5dd0e0" opacity="0.08"/><circle cx="865" cy="865" r="1.2" fill="#5dd0e0" opacity="0.08"/><circle cx="865" cy="920" r="1.2" fill="#5dd0e0" opacity="0.08"/><circle cx="865" cy="975" r="1.2" fill="#5dd0e0" opacity="0.08"/><circle cx="865" cy="1030" r="1.2" fill="#5dd0e0" opacity="0.08"/><circle cx="865" cy="1085" r="1.2" fill="#5dd0e0" opacity="0.08"/><circle cx="865" cy="1140" r="1.2" fill="#5dd0e0" opacity="0.08"/><circle cx="865" cy="1195" r="1.2" fill="#5dd0e0" opacity="0.08"/><circle cx="865" cy="1250" r="1.2" fill="#5dd0e0" opacity="0.08"/><circle cx="865" cy="1305" r="1.2" fill="#5dd0e0" opacity="0.08"/><circle cx="920" cy="40" r="1.2" fill="#5dd0e0" opacity="0.08"/><circle cx="920" cy="95" r="1.2" fill="#5dd0e0" opacity="0.08"/><circle cx="920" cy="150" r="1.2" fill="#5dd0e0" opacity="0.08"/><circle cx="920" cy="205" r="1.2" fill="#5dd0e0" opacity="0.08"/><circle cx="920" cy="260" r="1.2" fill="#5dd0e0" opacity="0.08"/><circle cx="920" cy="315" r="1.2" fill="#5dd0e0" opacity="0.08"/><circle cx="920" cy="370" r="1.2" fill="#5dd0e0" opacity="0.08"/><circle cx="920" cy="425" r="1.2" fill="#5dd0e0" opacity="0.08"/><circle cx="920" cy="480" r="1.2" fill="#5dd0e0" opacity="0.08"/><circle cx="920" cy="535" r="1.2" fill="#5dd0e0" opacity="0.08"/><circle cx="920" cy="590" r="1.2" fill="#5dd0e0" opacity="0.08"/><circle cx="920" cy="645" r="1.2" fill="#5dd0e0" opacity="0.08"/><circle cx="920" cy="700" r="1.2" fill="#5dd0e0" opacity="0.08"/><circle cx="920" cy="755" r="1.2" fill="#5dd0e0" opacity="0.08"/><circle cx="920" cy="810" r="1.2" fill="#5dd0e0" opacity="0.08"/><circle cx="920" cy="865" r="1.2" fill="#5dd0e0" opacity="0.08"/><circle cx="920" cy="920" r="1.2" fill="#5dd0e0" opacity="0.08"/><circle cx="920" cy="975" r="1.2" fill="#5dd0e0" opacity="0.08"/><circle cx="920" cy="1030" r="1.2" fill="#5dd0e0" opacity="0.08"/><circle cx="920" cy="1085" r="1.2" fill="#5dd0e0" opacity="0.08"/><circle cx="920" cy="1140" r="1.2" fill="#5dd0e0" opacity="0.08"/><circle cx="920" cy="1195" r="1.2" fill="#5dd0e0" opacity="0.08"/><circle cx="920" cy="1250" r="1.2" fill="#5dd0e0" opacity="0.08"/><circle cx="920" cy="1305" r="1.2" fill="#5dd0e0" opacity="0.08"/><circle cx="975" cy="40" r="1.2" fill="#5dd0e0" opacity="0.08"/><circle cx="975" cy="95" r="1.2" fill="#5dd0e0" opacity="0.08"/><circle cx="975" cy="150" r="1.2" fill="#5dd0e0" opacity="0.08"/><circle cx="975" cy="205" r="1.2" fill="#5dd0e0" opacity="0.08"/><circle cx="975" cy="260" r="1.2" fill="#5dd0e0" opacity="0.08"/><circle cx="975" cy="315" r="1.2" fill="#5dd0e0" opacity="0.08"/><circle cx="975" cy="370" r="1.2" fill="#5dd0e0" opacity="0.08"/><circle cx="975" cy="425" r="1.2" fill="#5dd0e0" opacity="0.08"/><circle cx="975" cy="480" r="1.2" fill="#5dd0e0" opacity="0.08"/><circle cx="975" cy="535" r="1.2" fill="#5dd0e0" opacity="0.08"/><circle cx="975" cy="590" r="1.2" fill="#5dd0e0" opacity="0.08"/><circle cx="975" cy="645" r="1.2" fill="#5dd0e0" opacity="0.08"/><circle cx="975" cy="700" r="1.2" fill="#5dd0e0" opacity="0.08"/><circle cx="975" cy="755" r="1.2" fill="#5dd0e0" opacity="0.08"/><circle cx="975" cy="810" r="1.2" fill="#5dd0e0" opacity="0.08"/><circle cx="975" cy="865" r="1.2" fill="#5dd0e0" opacity="0.08"/><circle cx="975" cy="920" r="1.2" fill="#5dd0e0" opacity="0.08"/><circle cx="975" cy="975" r="1.2" fill="#5dd0e0" opacity="0.08"/><circle cx="975" cy="1030" r="1.2" fill="#5dd0e0" opacity="0.08"/><circle cx="975" cy="1085" r="1.2" fill="#5dd0e0" opacity="0.08"/><circle cx="975" cy="1140" r="1.2" fill="#5dd0e0" opacity="0.08"/><circle cx="975" cy="1195" r="1.2" fill="#5dd0e0" opacity="0.08"/><circle cx="975" cy="1250" r="1.2" fill="#5dd0e0" opacity="0.08"/><circle cx="975" cy="1305" r="1.2" fill="#5dd0e0" opacity="0.08"/><circle cx="1030" cy="40" r="1.2" fill="#5dd0e0" opacity="0.08"/><circle cx="1030" cy="95" r="1.2" fill="#5dd0e0" opacity="0.08"/><circle cx="1030" cy="150" r="1.2" fill="#5dd0e0" opacity="0.08"/><circle cx="1030" cy="205" r="1.2" fill="#5dd0e0" opacity="0.08"/><circle cx="1030" cy="260" r="1.2" fill="#5dd0e0" opacity="0.08"/><circle cx="1030" cy="315" r="1.2" fill="#5dd0e0" opacity="0.08"/><circle cx="1030" cy="370" r="1.2" fill="#5dd0e0" opacity="0.08"/><circle cx="1030" cy="425" r="1.2" fill="#5dd0e0" opacity="0.08"/><circle cx="1030" cy="480" r="1.2" fill="#5dd0e0" opacity="0.08"/><circle cx="1030" cy="535" r="1.2" fill="#5dd0e0" opacity="0.08"/><circle cx="1030" cy="590" r="1.2" fill="#5dd0e0" opacity="0.08"/><circle cx="1030" cy="645" r="1.2" fill="#5dd0e0" opacity="0.08"/><circle cx="1030" cy="700" r="1.2" fill="#5dd0e0" opacity="0.08"/><circle cx="1030" cy="755" r="1.2" fill="#5dd0e0" opacity="0.08"/><circle cx="1030" cy="810" r="1.2" fill="#5dd0e0" opacity="0.08"/><circle cx="1030" cy="865" r="1.2" fill="#5dd0e0" opacity="0.08"/><circle cx="1030" cy="920" r="1.2" fill="#5dd0e0" opacity="0.08"/><circle cx="1030" cy="975" r="1.2" fill="#5dd0e0" opacity="0.08"/><circle cx="1030" cy="1030" r="1.2" fill="#5dd0e0" opacity="0.08"/><circle cx="1030" cy="1085" r="1.2" fill="#5dd0e0" opacity="0.08"/><circle cx="1030" cy="1140" r="1.2" fill="#5dd0e0" opacity="0.08"/><circle cx="1030" cy="1195" r="1.2" fill="#5dd0e0" opacity="0.08"/><circle cx="1030" cy="1250" r="1.2" fill="#5dd0e0" opacity="0.08"/><circle cx="1030" cy="1305" r="1.2" fill="#5dd0e0" opacity="0.08"/>

  <!-- Sharp floodlight beam rays (flickering) -->
  <g class="beam-rays">
    <!-- Left fixture beam -->
    <polygon points="120,0 0,0 380,800 480,800" fill="url(#beamAway)"/>
    <line x1="120" y1="0" x2="380" y2="800" stroke="#5dd0e0" stroke-width="1.5" opacity="0.5"/>
    <line x1="120" y1="0" x2="430" y2="800" stroke="#5dd0e0" stroke-width="1" opacity="0.3"/>
    <!-- Right fixture beam -->
    <polygon points="960,0 1080,0 700,800 600,800" fill="url(#beamAway)"/>
    <line x1="960" y1="0" x2="700" y2="800" stroke="#5dd0e0" stroke-width="1.5" opacity="0.5"/>
    <line x1="960" y1="0" x2="650" y2="800" stroke="#5dd0e0" stroke-width="1" opacity="0.3"/>
  </g>

  <!-- Stadium floodlight fixtures (pulsing) -->
  <g class="fixture">
    <circle cx="120" cy="40" r="60" fill="url(#fixtureGlow)"/>
    <circle cx="120" cy="40" r="20" fill="#ffffff"/>
    <circle cx="960" cy="40" r="60" fill="url(#fixtureGlow)"/>
    <circle cx="960" cy="40" r="20" fill="#ffffff"/>
  </g>

  <!-- Single bold accent line (asymmetric, low) -->
  <rect x="0" y="1180" width="1080" height="3" fill="url(#accAway)"/>

  <!-- Asymmetric pitch lines (just top portion for night stadium feel) -->
  <g stroke="#5dd0e0" stroke-width="3" fill="none" opacity="0.3">
    <line x1="40" y1="450" x2="1040" y2="450"/>
    <circle cx="540" cy="450" r="80"/>
  </g>

  <!-- Brand mark: Seismic WC 2026 -->
  <g transform="translate(870 90)" opacity="0.9">
    <text x="0" y="0" font-family="Georgia, serif" font-size="14" font-weight="700" fill="#5dd0e0" letter-spacing="3">SEISMIC</text>
    <text x="0" y="22" font-family="Georgia, serif" font-size="11" font-weight="500" fill="#ffffff" letter-spacing="2">WC 2026</text>
  </g>

  <!-- Vignette -->
  <rect width="1080" height="1350" fill="url(#vigAway)"/>
</svg>