<svg xmlns="http://www.w3.org/2000/svg" viewBox="0 0 1080 1350" preserveAspectRatio="xMidYMid slice">
  <defs>
    <linearGradient id="bgHome" x1="0" y1="0" x2="0" y2="1">
      <stop offset="0%" stop-color="#3a6b2a"/>
      <stop offset="50%" stop-color="#1f4218"/>
      <stop offset="100%" stop-color="#0d2008"/>
    </linearGradient>
    <radialGradient id="vigHome" cx="50%" cy="50%" r="70%">
      <stop offset="55%" stop-color="#000" stop-opacity="0"/>
      <stop offset="100%" stop-color="#000" stop-opacity="0.4"/>
    </radialGradient>
    <linearGradient id="accHome" x1="0" y1="0" x2="1" y2="0">
      <stop offset="0%" stop-color="#f5ebd7" stop-opacity="0"/>
      <stop offset="50%" stop-color="#f5ebd7" stop-opacity="0.6"/>
      <stop offset="100%" stop-color="#f5ebd7" stop-opacity="0"/>
    </linearGradient>
    <linearGradient id="rayHome" x1="0" y1="0" x2="1" y2="1">
      <stop offset="0%" stop-color="#fff8c8" stop-opacity="0.5"/>
      <stop offset="100%" stop-color="#fff8c8" stop-opacity="0"/>
    </linearGradient>
    <radialGradient id="sunCore" cx="50%" cy="50%" r="50%">
      <stop offset="0%" stop-color="#fff8c8" stop-opacity="1"/>
      <stop offset="40%" stop-color="#fff5b0" stop-opacity="0.6"/>
      <stop offset="100%" stop-color="#fff5b0" stop-opacity="0"/>
    </radialGradient>
  </defs>

  <rect width="1080" height="1350" fill="url(#bgHome)"/>
<g fill="#f5ebd7" opacity="0.1">
<circle cx="36" cy="36" r="1.8"/>
<circle cx="36" cy="72" r="1.8"/>
<circle cx="36" cy="108" r="1.8"/>
<circle cx="36" cy="144" r="1.8"/>
<circle cx="36" cy="180" r="1.8"/>
<circle cx="36" cy="216" r="1.8"/>
<circle cx="36" cy="252" r="1.8"/>
<circle cx="36" cy="288" r="1.8"/>
<circle cx="36" cy="324" r="1.8"/>
<circle cx="36" cy="360" r="1.8"/>
<circle cx="36" cy="396" r="1.8"/>
<circle cx="36" cy="432" r="1.8"/>
<circle cx="36" cy="468" r="1.8"/>
<circle cx="36" cy="504" r="1.8"/>
<circle cx="36" cy="540" r="1.8"/>
<circle cx="36" cy="576" r="1.8"/>
<circle cx="36" cy="612" r="1.8"/>
<circle cx="36" cy="648" r="1.8"/>
<circle cx="36" cy="684" r="1.8"/>
<circle cx="36" cy="720" r="1.8"/>
<circle cx="36" cy="756" r="1.8"/>
<circle cx="36" cy="792" r="1.8"/>
<circle cx="36" cy="828" r="1.8"/>
<circle cx="36" cy="864" r="1.8"/>
<circle cx="36" cy="900" r="1.8"/>
<circle cx="36" cy="936" r="1.8"/>
<circle cx="36" cy="972" r="1.8"/>
<circle cx="36" cy="1008" r="1.8"/>
<circle cx="36" cy="1044" r="1.8"/>
<circle cx="36" cy="1080" r="1.8"/>
<circle cx="36" cy="1116" r="1.8"/>
<circle cx="36" cy="1152" r="1.8"/>
<circle cx="36" cy="1188" r="1.8"/>
<circle cx="36" cy="1224" r="1.8"/>
<circle cx="36" cy="1260" r="1.8"/>
<circle cx="36" cy="1296" r="1.8"/>
<circle cx="36" cy="1332" r="1.8"/>
<circle cx="72" cy="36" r="1.8"/>
<circle cx="72" cy="72" r="1.8"/>
<circle cx="72" cy="108" r="1.8"/>
<circle cx="72" cy="144" r="1.8"/>
<circle cx="72" cy="180" r="1.8"/>
<circle cx="72" cy="216" r="1.8"/>
<circle cx="72" cy="252" r="1.8"/>
<circle cx="72" cy="288" r="1.8"/>
<circle cx="72" cy="324" r="1.8"/>
<circle cx="72" cy="360" r="1.8"/>
<circle cx="72" cy="396" r="1.8"/>
<circle cx="72" cy="432" r="1.8"/>
<circle cx="72" cy="468" r="1.8"/>
<circle cx="72" cy="504" r="1.8"/>
<circle cx="72" cy="540" r="1.8"/>
<circle cx="72" cy="576" r="1.8"/>
<circle cx="72" cy="612" r="1.8"/>
<circle cx="72" cy="648" r="1.8"/>
<circle cx="72" cy="684" r="1.8"/>
<circle cx="72" cy="720" r="1.8"/>
<circle cx="72" cy="756" r="1.8"/>
<circle cx="72" cy="792" r="1.8"/>
<circle cx="72" cy="828" r="1.8"/>
<circle cx="72" cy="864" r="1.8"/>
<circle cx="72" cy="900" r="1.8"/>
<circle cx="72" cy="936" r="1.8"/>
<circle cx="72" cy="972" r="1.8"/>
<circle cx="72" cy="1008" r="1.8"/>
<circle cx="72" cy="1044" r="1.8"/>
<circle cx="72" cy="1080" r="1.8"/>
<circle cx="72" cy="1116" r="1.8"/>
<circle cx="72" cy="1152" r="1.8"/>
<circle cx="72" cy="1188" r="1.8"/>
<circle cx="72" cy="1224" r="1.8"/>
<circle cx="72" cy="1260" r="1.8"/>
<circle cx="72" cy="1296" r="1.8"/>
<circle cx="72" cy="1332" r="1.8"/>
<circle cx="108" cy="36" r="1.8"/>
<circle cx="108" cy="72" r="1.8"/>
<circle cx="108" cy="108" r="1.8"/>
<circle cx="108" cy="144" r="1.8"/>
<circle cx="108" cy="180" r="1.8"/>
<circle cx="108" cy="216" r="1.8"/>
<circle cx="108" cy="252" r="1.8"/>
<circle cx="108" cy="288" r="1.8"/>
<circle cx="108" cy="324" r="1.8"/>
<circle cx="108" cy="360" r="1.8"/>
<circle cx="108" cy="396" r="1.8"/>
<circle cx="108" cy="432" r="1.8"/>
<circle cx="108" cy="468" r="1.8"/>
<circle cx="108" cy="504" r="1.8"/>
<circle cx="108" cy="540" r="1.8"/>
<circle cx="108" cy="576" r="1.8"/>
<circle cx="108" cy="612" r="1.8"/>
<circle cx="108" cy="648" r="1.8"/>
<circle cx="108" cy="684" r="1.8"/>
<circle cx="108" cy="720" r="1.8"/>
<circle cx="108" cy="756" r="1.8"/>
<circle cx="108" cy="792" r="1.8"/>
<circle cx="108" cy="828" r="1.8"/>
<circle cx="108" cy="864" r="1.8"/>
<circle cx="108" cy="900" r="1.8"/>
<circle cx="108" cy="936" r="1.8"/>
<circle cx="108" cy="972" r="1.8"/>
<circle cx="108" cy="1008" r="1.8"/>
<circle cx="108" cy="1044" r="1.8"/>
<circle cx="108" cy="1080" r="1.8"/>
<circle cx="108" cy="1116" r="1.8"/>
<circle cx="108" cy="1152" r="1.8"/>
<circle cx="108" cy="1188" r="1.8"/>
<circle cx="108" cy="1224" r="1.8"/>
<circle cx="108" cy="1260" r="1.8"/>
<circle cx="108" cy="1296" r="1.8"/>
<circle cx="108" cy="1332" r="1.8"/>
<circle cx="144" cy="36" r="1.8"/>
<circle cx="144" cy="72" r="1.8"/>
<circle cx="144" cy="108" r="1.8"/>
<circle cx="144" cy="144" r="1.8"/>
<circle cx="144" cy="180" r="1.8"/>
<circle cx="144" cy="216" r="1.8"/>
<circle cx="144" cy="252" r="1.8"/>
<circle cx="144" cy="288" r="1.8"/>
<circle cx="144" cy="324" r="1.8"/>
<circle cx="144" cy="360" r="1.8"/>
<circle cx="144" cy="396" r="1.8"/>
<circle cx="144" cy="432" r="1.8"/>
<circle cx="144" cy="468" r="1.8"/>
<circle cx="144" cy="504" r="1.8"/>
<circle cx="144" cy="540" r="1.8"/>
<circle cx="144" cy="576" r="1.8"/>
<circle cx="144" cy="612" r="1.8"/>
<circle cx="144" cy="648" r="1.8"/>
<circle cx="144" cy="684" r="1.8"/>
<circle cx="144" cy="720" r="1.8"/>
<circle cx="144" cy="756" r="1.8"/>
<circle cx="144" cy="792" r="1.8"/>
<circle cx="144" cy="828" r="1.8"/>
<circle cx="144" cy="864" r="1.8"/>
<circle cx="144" cy="900" r="1.8"/>
<circle cx="144" cy="936" r="1.8"/>
<circle cx="144" cy="972" r="1.8"/>
<circle cx="144" cy="1008" r="1.8"/>
<circle cx="144" cy="1044" r="1.8"/>
<circle cx="144" cy="1080" r="1.8"/>
<circle cx="144" cy="1116" r="1.8"/>
<circle cx="144" cy="1152" r="1.8"/>
<circle cx="144" cy="1188" r="1.8"/>
<circle cx="144" cy="1224" r="1.8"/>
<circle cx="144" cy="1260" r="1.8"/>
<circle cx="144" cy="1296" r="1.8"/>
<circle cx="144" cy="1332" r="1.8"/>
<circle cx="180" cy="36" r="1.8"/>
<circle cx="180" cy="72" r="1.8"/>
<circle cx="180" cy="108" r="1.8"/>
<circle cx="180" cy="144" r="1.8"/>
<circle cx="180" cy="180" r="1.8"/>
<circle cx="180" cy="216" r="1.8"/>
<circle cx="180" cy="252" r="1.8"/>
<circle cx="180" cy="288" r="1.8"/>
<circle cx="180" cy="324" r="1.8"/>
<circle cx="180" cy="360" r="1.8"/>
<circle cx="180" cy="396" r="1.8"/>
<circle cx="180" cy="432" r="1.8"/>
<circle cx="180" cy="468" r="1.8"/>
<circle cx="180" cy="504" r="1.8"/>
<circle cx="180" cy="540" r="1.8"/>
<circle cx="180" cy="576" r="1.8"/>
<circle cx="180" cy="612" r="1.8"/>
<circle cx="180" cy="648" r="1.8"/>
<circle cx="180" cy="684" r="1.8"/>
<circle cx="180" cy="720" r="1.8"/>
<circle cx="180" cy="756" r="1.8"/>
<circle cx="180" cy="792" r="1.8"/>
<circle cx="180" cy="828" r="1.8"/>
<circle cx="180" cy="864" r="1.8"/>
<circle cx="180" cy="900" r="1.8"/>
<circle cx="180" cy="936" r="1.8"/>
<circle cx="180" cy="972" r="1.8"/>
<circle cx="180" cy="1008" r="1.8"/>
<circle cx="180" cy="1044" r="1.8"/>
<circle cx="180" cy="1080" r="1.8"/>
<circle cx="180" cy="1116" r="1.8"/>
<circle cx="180" cy="1152" r="1.8"/>
<circle cx="180" cy="1188" r="1.8"/>
<circle cx="180" cy="1224" r="1.8"/>
<circle cx="180" cy="1260" r="1.8"/>
<circle cx="180" cy="1296" r="1.8"/>
<circle cx="180" cy="1332" r="1.8"/>
<circle cx="216" cy="36" r="1.8"/>
<circle cx="216" cy="72" r="1.8"/>
<circle cx="216" cy="108" r="1.8"/>
<circle cx="216" cy="144" r="1.8"/>
<circle cx="216" cy="180" r="1.8"/>
<circle cx="216" cy="216" r="1.8"/>
<circle cx="216" cy="252" r="1.8"/>
<circle cx="216" cy="288" r="1.8"/>
<circle cx="216" cy="324" r="1.8"/>
<circle cx="216" cy="360" r="1.8"/>
<circle cx="216" cy="396" r="1.8"/>
<circle cx="216" cy="432" r="1.8"/>
<circle cx="216" cy="468" r="1.8"/>
<circle cx="216" cy="504" r="1.8"/>
<circle cx="216" cy="540" r="1.8"/>
<circle cx="216" cy="576" r="1.8"/>
<circle cx="216" cy="612" r="1.8"/>
<circle cx="216" cy="648" r="1.8"/>
<circle cx="216" cy="684" r="1.8"/>
<circle cx="216" cy="720" r="1.8"/>
<circle cx="216" cy="756" r="1.8"/>
<circle cx="216" cy="792" r="1.8"/>
<circle cx="216" cy="828" r="1.8"/>
<circle cx="216" cy="864" r="1.8"/>
<circle cx="216" cy="900" r="1.8"/>
<circle cx="216" cy="936" r="1.8"/>
<circle cx="216" cy="972" r="1.8"/>
<circle cx="216" cy="1008" r="1.8"/>
<circle cx="216" cy="1044" r="1.8"/>
<circle cx="216" cy="1080" r="1.8"/>
<circle cx="216" cy="1116" r="1.8"/>
<circle cx="216" cy="1152" r="1.8"/>
<circle cx="216" cy="1188" r="1.8"/>
<circle cx="216" cy="1224" r="1.8"/>
<circle cx="216" cy="1260" r="1.8"/>
<circle cx="216" cy="1296" r="1.8"/>
<circle cx="216" cy="1332" r="1.8"/>
<circle cx="252" cy="36" r="1.8"/>
<circle cx="252" cy="72" r="1.8"/>
<circle cx="252" cy="108" r="1.8"/>
<circle cx="252" cy="144" r="1.8"/>
<circle cx="252" cy="180" r="1.8"/>
<circle cx="252" cy="216" r="1.8"/>
<circle cx="252" cy="252" r="1.8"/>
<circle cx="252" cy="288" r="1.8"/>
<circle cx="252" cy="324" r="1.8"/>
<circle cx="252" cy="360" r="1.8"/>
<circle cx="252" cy="396" r="1.8"/>
<circle cx="252" cy="432" r="1.8"/>
<circle cx="252" cy="468" r="1.8"/>
<circle cx="252" cy="504" r="1.8"/>
<circle cx="252" cy="540" r="1.8"/>
<circle cx="252" cy="576" r="1.8"/>
<circle cx="252" cy="612" r="1.8"/>
<circle cx="252" cy="648" r="1.8"/>
<circle cx="252" cy="684" r="1.8"/>
<circle cx="252" cy="720" r="1.8"/>
<circle cx="252" cy="756" r="1.8"/>
<circle cx="252" cy="792" r="1.8"/>
<circle cx="252" cy="828" r="1.8"/>
<circle cx="252" cy="864" r="1.8"/>
<circle cx="252" cy="900" r="1.8"/>
<circle cx="252" cy="936" r="1.8"/>
<circle cx="252" cy="972" r="1.8"/>
<circle cx="252" cy="1008" r="1.8"/>
<circle cx="252" cy="1044" r="1.8"/>
<circle cx="252" cy="1080" r="1.8"/>
<circle cx="252" cy="1116" r="1.8"/>
<circle cx="252" cy="1152" r="1.8"/>
<circle cx="252" cy="1188" r="1.8"/>
<circle cx="252" cy="1224" r="1.8"/>
<circle cx="252" cy="1260" r="1.8"/>
<circle cx="252" cy="1296" r="1.8"/>
<circle cx="252" cy="1332" r="1.8"/>
<circle cx="288" cy="36" r="1.8"/>
<circle cx="288" cy="72" r="1.8"/>
<circle cx="288" cy="108" r="1.8"/>
<circle cx="288" cy="144" r="1.8"/>
<circle cx="288" cy="180" r="1.8"/>
<circle cx="288" cy="216" r="1.8"/>
<circle cx="288" cy="252" r="1.8"/>
<circle cx="288" cy="288" r="1.8"/>
<circle cx="288" cy="324" r="1.8"/>
<circle cx="288" cy="360" r="1.8"/>
<circle cx="288" cy="396" r="1.8"/>
<circle cx="288" cy="432" r="1.8"/>
<circle cx="288" cy="468" r="1.8"/>
<circle cx="288" cy="504" r="1.8"/>
<circle cx="288" cy="540" r="1.8"/>
<circle cx="288" cy="576" r="1.8"/>
<circle cx="288" cy="612" r="1.8"/>
<circle cx="288" cy="648" r="1.8"/>
<circle cx="288" cy="684" r="1.8"/>
<circle cx="288" cy="720" r="1.8"/>
<circle cx="288" cy="756" r="1.8"/>
<circle cx="288" cy="792" r="1.8"/>
<circle cx="288" cy="828" r="1.8"/>
<circle cx="288" cy="864" r="1.8"/>
<circle cx="288" cy="900" r="1.8"/>
<circle cx="288" cy="936" r="1.8"/>
<circle cx="288" cy="972" r="1.8"/>
<circle cx="288" cy="1008" r="1.8"/>
<circle cx="288" cy="1044" r="1.8"/>
<circle cx="288" cy="1080" r="1.8"/>
<circle cx="288" cy="1116" r="1.8"/>
<circle cx="288" cy="1152" r="1.8"/>
<circle cx="288" cy="1188" r="1.8"/>
<circle cx="288" cy="1224" r="1.8"/>
<circle cx="288" cy="1260" r="1.8"/>
<circle cx="288" cy="1296" r="1.8"/>
<circle cx="288" cy="1332" r="1.8"/>
<circle cx="324" cy="36" r="1.8"/>
<circle cx="324" cy="72" r="1.8"/>
<circle cx="324" cy="108" r="1.8"/>
<circle cx="324" cy="144" r="1.8"/>
<circle cx="324" cy="180" r="1.8"/>
<circle cx="324" cy="216" r="1.8"/>
<circle cx="324" cy="252" r="1.8"/>
<circle cx="324" cy="288" r="1.8"/>
<circle cx="324" cy="324" r="1.8"/>
<circle cx="324" cy="360" r="1.8"/>
<circle cx="324" cy="396" r="1.8"/>
<circle cx="324" cy="432" r="1.8"/>
<circle cx="324" cy="468" r="1.8"/>
<circle cx="324" cy="504" r="1.8"/>
<circle cx="324" cy="540" r="1.8"/>
<circle cx="324" cy="576" r="1.8"/>
<circle cx="324" cy="612" r="1.8"/>
<circle cx="324" cy="648" r="1.8"/>
<circle cx="324" cy="684" r="1.8"/>
<circle cx="324" cy="720" r="1.8"/>
<circle cx="324" cy="756" r="1.8"/>
<circle cx="324" cy="792" r="1.8"/>
<circle cx="324" cy="828" r="1.8"/>
<circle cx="324" cy="864" r="1.8"/>
<circle cx="324" cy="900" r="1.8"/>
<circle cx="324" cy="936" r="1.8"/>
<circle cx="324" cy="972" r="1.8"/>
<circle cx="324" cy="1008" r="1.8"/>
<circle cx="324" cy="1044" r="1.8"/>
<circle cx="324" cy="1080" r="1.8"/>
<circle cx="324" cy="1116" r="1.8"/>
<circle cx="324" cy="1152" r="1.8"/>
<circle cx="324" cy="1188" r="1.8"/>
<circle cx="324" cy="1224" r="1.8"/>
<circle cx="324" cy="1260" r="1.8"/>
<circle cx="324" cy="1296" r="1.8"/>
<circle cx="324" cy="1332" r="1.8"/>
<circle cx="360" cy="36" r="1.8"/>
<circle cx="360" cy="72" r="1.8"/>
<circle cx="360" cy="108" r="1.8"/>
<circle cx="360" cy="144" r="1.8"/>
<circle cx="360" cy="180" r="1.8"/>
<circle cx="360" cy="216" r="1.8"/>
<circle cx="360" cy="252" r="1.8"/>
<circle cx="360" cy="288" r="1.8"/>
<circle cx="360" cy="324" r="1.8"/>
<circle cx="360" cy="360" r="1.8"/>
<circle cx="360" cy="396" r="1.8"/>
<circle cx="360" cy="432" r="1.8"/>
<circle cx="360" cy="468" r="1.8"/>
<circle cx="360" cy="504" r="1.8"/>
<circle cx="360" cy="540" r="1.8"/>
<circle cx="360" cy="576" r="1.8"/>
<circle cx="360" cy="612" r="1.8"/>
<circle cx="360" cy="648" r="1.8"/>
<circle cx="360" cy="684" r="1.8"/>
<circle cx="360" cy="720" r="1.8"/>
<circle cx="360" cy="756" r="1.8"/>
<circle cx="360" cy="792" r="1.8"/>
<circle cx="360" cy="828" r="1.8"/>
<circle cx="360" cy="864" r="1.8"/>
<circle cx="360" cy="900" r="1.8"/>
<circle cx="360" cy="936" r="1.8"/>
<circle cx="360" cy="972" r="1.8"/>
<circle cx="360" cy="1008" r="1.8"/>
<circle cx="360" cy="1044" r="1.8"/>
<circle cx="360" cy="1080" r="1.8"/>
<circle cx="360" cy="1116" r="1.8"/>
<circle cx="360" cy="1152" r="1.8"/>
<circle cx="360" cy="1188" r="1.8"/>
<circle cx="360" cy="1224" r="1.8"/>
<circle cx="360" cy="1260" r="1.8"/>
<circle cx="360" cy="1296" r="1.8"/>
<circle cx="360" cy="1332" r="1.8"/>
<circle cx="396" cy="36" r="1.8"/>
<circle cx="396" cy="72" r="1.8"/>
<circle cx="396" cy="108" r="1.8"/>
<circle cx="396" cy="144" r="1.8"/>
<circle cx="396" cy="180" r="1.8"/>
<circle cx="396" cy="216" r="1.8"/>
<circle cx="396" cy="252" r="1.8"/>
<circle cx="396" cy="288" r="1.8"/>
<circle cx="396" cy="324" r="1.8"/>
<circle cx="396" cy="360" r="1.8"/>
<circle cx="396" cy="396" r="1.8"/>
<circle cx="396" cy="432" r="1.8"/>
<circle cx="396" cy="468" r="1.8"/>
<circle cx="396" cy="504" r="1.8"/>
<circle cx="396" cy="540" r="1.8"/>
<circle cx="396" cy="576" r="1.8"/>
<circle cx="396" cy="612" r="1.8"/>
<circle cx="396" cy="648" r="1.8"/>
<circle cx="396" cy="684" r="1.8"/>
<circle cx="396" cy="720" r="1.8"/>
<circle cx="396" cy="756" r="1.8"/>
<circle cx="396" cy="792" r="1.8"/>
<circle cx="396" cy="828" r="1.8"/>
<circle cx="396" cy="864" r="1.8"/>
<circle cx="396" cy="900" r="1.8"/>
<circle cx="396" cy="936" r="1.8"/>
<circle cx="396" cy="972" r="1.8"/>
<circle cx="396" cy="1008" r="1.8"/>
<circle cx="396" cy="1044" r="1.8"/>
<circle cx="396" cy="1080" r="1.8"/>
<circle cx="396" cy="1116" r="1.8"/>
<circle cx="396" cy="1152" r="1.8"/>
<circle cx="396" cy="1188" r="1.8"/>
<circle cx="396" cy="1224" r="1.8"/>
<circle cx="396" cy="1260" r="1.8"/>
<circle cx="396" cy="1296" r="1.8"/>
<circle cx="396" cy="1332" r="1.8"/>
<circle cx="432" cy="36" r="1.8"/>
<circle cx="432" cy="72" r="1.8"/>
<circle cx="432" cy="108" r="1.8"/>
<circle cx="432" cy="144" r="1.8"/>
<circle cx="432" cy="180" r="1.8"/>
<circle cx="432" cy="216" r="1.8"/>
<circle cx="432" cy="252" r="1.8"/>
<circle cx="432" cy="288" r="1.8"/>
<circle cx="432" cy="324" r="1.8"/>
<circle cx="432" cy="360" r="1.8"/>
<circle cx="432" cy="396" r="1.8"/>
<circle cx="432" cy="432" r="1.8"/>
<circle cx="432" cy="468" r="1.8"/>
<circle cx="432" cy="504" r="1.8"/>
<circle cx="432" cy="540" r="1.8"/>
<circle cx="432" cy="576" r="1.8"/>
<circle cx="432" cy="612" r="1.8"/>
<circle cx="432" cy="648" r="1.8"/>
<circle cx="432" cy="684" r="1.8"/>
<circle cx="432" cy="720" r="1.8"/>
<circle cx="432" cy="756" r="1.8"/>
<circle cx="432" cy="792" r="1.8"/>
<circle cx="432" cy="828" r="1.8"/>
<circle cx="432" cy="864" r="1.8"/>
<circle cx="432" cy="900" r="1.8"/>
<circle cx="432" cy="936" r="1.8"/>
<circle cx="432" cy="972" r="1.8"/>
<circle cx="432" cy="1008" r="1.8"/>
<circle cx="432" cy="1044" r="1.8"/>
<circle cx="432" cy="1080" r="1.8"/>
<circle cx="432" cy="1116" r="1.8"/>
<circle cx="432" cy="1152" r="1.8"/>
<circle cx="432" cy="1188" r="1.8"/>
<circle cx="432" cy="1224" r="1.8"/>
<circle cx="432" cy="1260" r="1.8"/>
<circle cx="432" cy="1296" r="1.8"/>
<circle cx="432" cy="1332" r="1.8"/>
<circle cx="468" cy="36" r="1.8"/>
<circle cx="468" cy="72" r="1.8"/>
<circle cx="468" cy="108" r="1.8"/>
<circle cx="468" cy="144" r="1.8"/>
<circle cx="468" cy="180" r="1.8"/>
<circle cx="468" cy="216" r="1.8"/>
<circle cx="468" cy="252" r="1.8"/>
<circle cx="468" cy="288" r="1.8"/>
<circle cx="468" cy="324" r="1.8"/>
<circle cx="468" cy="360" r="1.8"/>
<circle cx="468" cy="396" r="1.8"/>
<circle cx="468" cy="432" r="1.8"/>
<circle cx="468" cy="468" r="1.8"/>
<circle cx="468" cy="504" r="1.8"/>
<circle cx="468" cy="540" r="1.8"/>
<circle cx="468" cy="576" r="1.8"/>
<circle cx="468" cy="612" r="1.8"/>
<circle cx="468" cy="648" r="1.8"/>
<circle cx="468" cy="684" r="1.8"/>
<circle cx="468" cy="720" r="1.8"/>
<circle cx="468" cy="756" r="1.8"/>
<circle cx="468" cy="792" r="1.8"/>
<circle cx="468" cy="828" r="1.8"/>
<circle cx="468" cy="864" r="1.8"/>
<circle cx="468" cy="900" r="1.8"/>
<circle cx="468" cy="936" r="1.8"/>
<circle cx="468" cy="972" r="1.8"/>
<circle cx="468" cy="1008" r="1.8"/>
<circle cx="468" cy="1044" r="1.8"/>
<circle cx="468" cy="1080" r="1.8"/>
<circle cx="468" cy="1116" r="1.8"/>
<circle cx="468" cy="1152" r="1.8"/>
<circle cx="468" cy="1188" r="1.8"/>
<circle cx="468" cy="1224" r="1.8"/>
<circle cx="468" cy="1260" r="1.8"/>
<circle cx="468" cy="1296" r="1.8"/>
<circle cx="468" cy="1332" r="1.8"/>
<circle cx="504" cy="36" r="1.8"/>
<circle cx="504" cy="72" r="1.8"/>
<circle cx="504" cy="108" r="1.8"/>
<circle cx="504" cy="144" r="1.8"/>
<circle cx="504" cy="180" r="1.8"/>
<circle cx="504" cy="216" r="1.8"/>
<circle cx="504" cy="252" r="1.8"/>
<circle cx="504" cy="288" r="1.8"/>
<circle cx="504" cy="324" r="1.8"/>
<circle cx="504" cy="360" r="1.8"/>
<circle cx="504" cy="396" r="1.8"/>
<circle cx="504" cy="432" r="1.8"/>
<circle cx="504" cy="468" r="1.8"/>
<circle cx="504" cy="504" r="1.8"/>
<circle cx="504" cy="540" r="1.8"/>
<circle cx="504" cy="576" r="1.8"/>
<circle cx="504" cy="612" r="1.8"/>
<circle cx="504" cy="648" r="1.8"/>
<circle cx="504" cy="684" r="1.8"/>
<circle cx="504" cy="720" r="1.8"/>
<circle cx="504" cy="756" r="1.8"/>
<circle cx="504" cy="792" r="1.8"/>
<circle cx="504" cy="828" r="1.8"/>
<circle cx="504" cy="864" r="1.8"/>
<circle cx="504" cy="900" r="1.8"/>
<circle cx="504" cy="936" r="1.8"/>
<circle cx="504" cy="972" r="1.8"/>
<circle cx="504" cy="1008" r="1.8"/>
<circle cx="504" cy="1044" r="1.8"/>
<circle cx="504" cy="1080" r="1.8"/>
<circle cx="504" cy="1116" r="1.8"/>
<circle cx="504" cy="1152" r="1.8"/>
<circle cx="504" cy="1188" r="1.8"/>
<circle cx="504" cy="1224" r="1.8"/>
<circle cx="504" cy="1260" r="1.8"/>
<circle cx="504" cy="1296" r="1.8"/>
<circle cx="504" cy="1332" r="1.8"/>
<circle cx="540" cy="36" r="1.8"/>
<circle cx="540" cy="72" r="1.8"/>
<circle cx="540" cy="108" r="1.8"/>
<circle cx="540" cy="144" r="1.8"/>
<circle cx="540" cy="180" r="1.8"/>
<circle cx="540" cy="216" r="1.8"/>
<circle cx="540" cy="252" r="1.8"/>
<circle cx="540" cy="288" r="1.8"/>
<circle cx="540" cy="324" r="1.8"/>
<circle cx="540" cy="360" r="1.8"/>
<circle cx="540" cy="396" r="1.8"/>
<circle cx="540" cy="432" r="1.8"/>
<circle cx="540" cy="468" r="1.8"/>
<circle cx="540" cy="504" r="1.8"/>
<circle cx="540" cy="540" r="1.8"/>
<circle cx="540" cy="576" r="1.8"/>
<circle cx="540" cy="612" r="1.8"/>
<circle cx="540" cy="648" r="1.8"/>
<circle cx="540" cy="684" r="1.8"/>
<circle cx="540" cy="720" r="1.8"/>
<circle cx="540" cy="756" r="1.8"/>
<circle cx="540" cy="792" r="1.8"/>
<circle cx="540" cy="828" r="1.8"/>
<circle cx="540" cy="864" r="1.8"/>
<circle cx="540" cy="900" r="1.8"/>
<circle cx="540" cy="936" r="1.8"/>
<circle cx="540" cy="972" r="1.8"/>
<circle cx="540" cy="1008" r="1.8"/>
<circle cx="540" cy="1044" r="1.8"/>
<circle cx="540" cy="1080" r="1.8"/>
<circle cx="540" cy="1116" r="1.8"/>
<circle cx="540" cy="1152" r="1.8"/>
<circle cx="540" cy="1188" r="1.8"/>
<circle cx="540" cy="1224" r="1.8"/>
<circle cx="540" cy="1260" r="1.8"/>
<circle cx="540" cy="1296" r="1.8"/>
<circle cx="540" cy="1332" r="1.8"/>
<circle cx="576" cy="36" r="1.8"/>
<circle cx="576" cy="72" r="1.8"/>
<circle cx="576" cy="108" r="1.8"/>
<circle cx="576" cy="144" r="1.8"/>
<circle cx="576" cy="180" r="1.8"/>
<circle cx="576" cy="216" r="1.8"/>
<circle cx="576" cy="252" r="1.8"/>
<circle cx="576" cy="288" r="1.8"/>
<circle cx="576" cy="324" r="1.8"/>
<circle cx="576" cy="360" r="1.8"/>
<circle cx="576" cy="396" r="1.8"/>
<circle cx="576" cy="432" r="1.8"/>
<circle cx="576" cy="468" r="1.8"/>
<circle cx="576" cy="504" r="1.8"/>
<circle cx="576" cy="540" r="1.8"/>
<circle cx="576" cy="576" r="1.8"/>
<circle cx="576" cy="612" r="1.8"/>
<circle cx="576" cy="648" r="1.8"/>
<circle cx="576" cy="684" r="1.8"/>
<circle cx="576" cy="720" r="1.8"/>
<circle cx="576" cy="756" r="1.8"/>
<circle cx="576" cy="792" r="1.8"/>
<circle cx="576" cy="828" r="1.8"/>
<circle cx="576" cy="864" r="1.8"/>
<circle cx="576" cy="900" r="1.8"/>
<circle cx="576" cy="936" r="1.8"/>
<circle cx="576" cy="972" r="1.8"/>
<circle cx="576" cy="1008" r="1.8"/>
<circle cx="576" cy="1044" r="1.8"/>
<circle cx="576" cy="1080" r="1.8"/>
<circle cx="576" cy="1116" r="1.8"/>
<circle cx="576" cy="1152" r="1.8"/>
<circle cx="576" cy="1188" r="1.8"/>
<circle cx="576" cy="1224" r="1.8"/>
<circle cx="576" cy="1260" r="1.8"/>
<circle cx="576" cy="1296" r="1.8"/>
<circle cx="576" cy="1332" r="1.8"/>
<circle cx="612" cy="36" r="1.8"/>
<circle cx="612" cy="72" r="1.8"/>
<circle cx="612" cy="108" r="1.8"/>
<circle cx="612" cy="144" r="1.8"/>
<circle cx="612" cy="180" r="1.8"/>
<circle cx="612" cy="216" r="1.8"/>
<circle cx="612" cy="252" r="1.8"/>
<circle cx="612" cy="288" r="1.8"/>
<circle cx="612" cy="324" r="1.8"/>
<circle cx="612" cy="360" r="1.8"/>
<circle cx="612" cy="396" r="1.8"/>
<circle cx="612" cy="432" r="1.8"/>
<circle cx="612" cy="468" r="1.8"/>
<circle cx="612" cy="504" r="1.8"/>
<circle cx="612" cy="540" r="1.8"/>
<circle cx="612" cy="576" r="1.8"/>
<circle cx="612" cy="612" r="1.8"/>
<circle cx="612" cy="648" r="1.8"/>
<circle cx="612" cy="684" r="1.8"/>
<circle cx="612" cy="720" r="1.8"/>
<circle cx="612" cy="756" r="1.8"/>
<circle cx="612" cy="792" r="1.8"/>
<circle cx="612" cy="828" r="1.8"/>
<circle cx="612" cy="864" r="1.8"/>
<circle cx="612" cy="900" r="1.8"/>
<circle cx="612" cy="936" r="1.8"/>
<circle cx="612" cy="972" r="1.8"/>
<circle cx="612" cy="1008" r="1.8"/>
<circle cx="612" cy="1044" r="1.8"/>
<circle cx="612" cy="1080" r="1.8"/>
<circle cx="612" cy="1116" r="1.8"/>
<circle cx="612" cy="1152" r="1.8"/>
<circle cx="612" cy="1188" r="1.8"/>
<circle cx="612" cy="1224" r="1.8"/>
<circle cx="612" cy="1260" r="1.8"/>
<circle cx="612" cy="1296" r="1.8"/>
<circle cx="612" cy="1332" r="1.8"/>
<circle cx="648" cy="36" r="1.8"/>
<circle cx="648" cy="72" r="1.8"/>
<circle cx="648" cy="108" r="1.8"/>
<circle cx="648" cy="144" r="1.8"/>
<circle cx="648" cy="180" r="1.8"/>
<circle cx="648" cy="216" r="1.8"/>
<circle cx="648" cy="252" r="1.8"/>
<circle cx="648" cy="288" r="1.8"/>
<circle cx="648" cy="324" r="1.8"/>
<circle cx="648" cy="360" r="1.8"/>
<circle cx="648" cy="396" r="1.8"/>
<circle cx="648" cy="432" r="1.8"/>
<circle cx="648" cy="468" r="1.8"/>
<circle cx="648" cy="504" r="1.8"/>
<circle cx="648" cy="540" r="1.8"/>
<circle cx="648" cy="576" r="1.8"/>
<circle cx="648" cy="612" r="1.8"/>
<circle cx="648" cy="648" r="1.8"/>
<circle cx="648" cy="684" r="1.8"/>
<circle cx="648" cy="720" r="1.8"/>
<circle cx="648" cy="756" r="1.8"/>
<circle cx="648" cy="792" r="1.8"/>
<circle cx="648" cy="828" r="1.8"/>
<circle cx="648" cy="864" r="1.8"/>
<circle cx="648" cy="900" r="1.8"/>
<circle cx="648" cy="936" r="1.8"/>
<circle cx="648" cy="972" r="1.8"/>
<circle cx="648" cy="1008" r="1.8"/>
<circle cx="648" cy="1044" r="1.8"/>
<circle cx="648" cy="1080" r="1.8"/>
<circle cx="648" cy="1116" r="1.8"/>
<circle cx="648" cy="1152" r="1.8"/>
<circle cx="648" cy="1188" r="1.8"/>
<circle cx="648" cy="1224" r="1.8"/>
<circle cx="648" cy="1260" r="1.8"/>
<circle cx="648" cy="1296" r="1.8"/>
<circle cx="648" cy="1332" r="1.8"/>
<circle cx="684" cy="36" r="1.8"/>
<circle cx="684" cy="72" r="1.8"/>
<circle cx="684" cy="108" r="1.8"/>
<circle cx="684" cy="144" r="1.8"/>
<circle cx="684" cy="180" r="1.8"/>
<circle cx="684" cy="216" r="1.8"/>
<circle cx="684" cy="252" r="1.8"/>
<circle cx="684" cy="288" r="1.8"/>
<circle cx="684" cy="324" r="1.8"/>
<circle cx="684" cy="360" r="1.8"/>
<circle cx="684" cy="396" r="1.8"/>
<circle cx="684" cy="432" r="1.8"/>
<circle cx="684" cy="468" r="1.8"/>
<circle cx="684" cy="504" r="1.8"/>
<circle cx="684" cy="540" r="1.8"/>
<circle cx="684" cy="576" r="1.8"/>
<circle cx="684" cy="612" r="1.8"/>
<circle cx="684" cy="648" r="1.8"/>
<circle cx="684" cy="684" r="1.8"/>
<circle cx="684" cy="720" r="1.8"/>
<circle cx="684" cy="756" r="1.8"/>
<circle cx="684" cy="792" r="1.8"/>
<circle cx="684" cy="828" r="1.8"/>
<circle cx="684" cy="864" r="1.8"/>
<circle cx="684" cy="900" r="1.8"/>
<circle cx="684" cy="936" r="1.8"/>
<circle cx="684" cy="972" r="1.8"/>
<circle cx="684" cy="1008" r="1.8"/>
<circle cx="684" cy="1044" r="1.8"/>
<circle cx="684" cy="1080" r="1.8"/>
<circle cx="684" cy="1116" r="1.8"/>
<circle cx="684" cy="1152" r="1.8"/>
<circle cx="684" cy="1188" r="1.8"/>
<circle cx="684" cy="1224" r="1.8"/>
<circle cx="684" cy="1260" r="1.8"/>
<circle cx="684" cy="1296" r="1.8"/>
<circle cx="684" cy="1332" r="1.8"/>
<circle cx="720" cy="36" r="1.8"/>
<circle cx="720" cy="72" r="1.8"/>
<circle cx="720" cy="108" r="1.8"/>
<circle cx="720" cy="144" r="1.8"/>
<circle cx="720" cy="180" r="1.8"/>
<circle cx="720" cy="216" r="1.8"/>
<circle cx="720" cy="252" r="1.8"/>
<circle cx="720" cy="288" r="1.8"/>
<circle cx="720" cy="324" r="1.8"/>
<circle cx="720" cy="360" r="1.8"/>
<circle cx="720" cy="396" r="1.8"/>
<circle cx="720" cy="432" r="1.8"/>
<circle cx="720" cy="468" r="1.8"/>
<circle cx="720" cy="504" r="1.8"/>
<circle cx="720" cy="540" r="1.8"/>
<circle cx="720" cy="576" r="1.8"/>
<circle cx="720" cy="612" r="1.8"/>
<circle cx="720" cy="648" r="1.8"/>
<circle cx="720" cy="684" r="1.8"/>
<circle cx="720" cy="720" r="1.8"/>
<circle cx="720" cy="756" r="1.8"/>
<circle cx="720" cy="792" r="1.8"/>
<circle cx="720" cy="828" r="1.8"/>
<circle cx="720" cy="864" r="1.8"/>
<circle cx="720" cy="900" r="1.8"/>
<circle cx="720" cy="936" r="1.8"/>
<circle cx="720" cy="972" r="1.8"/>
<circle cx="720" cy="1008" r="1.8"/>
<circle cx="720" cy="1044" r="1.8"/>
<circle cx="720" cy="1080" r="1.8"/>
<circle cx="720" cy="1116" r="1.8"/>
<circle cx="720" cy="1152" r="1.8"/>
<circle cx="720" cy="1188" r="1.8"/>
<circle cx="720" cy="1224" r="1.8"/>
<circle cx="720" cy="1260" r="1.8"/>
<circle cx="720" cy="1296" r="1.8"/>
<circle cx="720" cy="1332" r="1.8"/>
<circle cx="756" cy="36" r="1.8"/>
<circle cx="756" cy="72" r="1.8"/>
<circle cx="756" cy="108" r="1.8"/>
<circle cx="756" cy="144" r="1.8"/>
<circle cx="756" cy="180" r="1.8"/>
<circle cx="756" cy="216" r="1.8"/>
<circle cx="756" cy="252" r="1.8"/>
<circle cx="756" cy="288" r="1.8"/>
<circle cx="756" cy="324" r="1.8"/>
<circle cx="756" cy="360" r="1.8"/>
<circle cx="756" cy="396" r="1.8"/>
<circle cx="756" cy="432" r="1.8"/>
<circle cx="756" cy="468" r="1.8"/>
<circle cx="756" cy="504" r="1.8"/>
<circle cx="756" cy="540" r="1.8"/>
<circle cx="756" cy="576" r="1.8"/>
<circle cx="756" cy="612" r="1.8"/>
<circle cx="756" cy="648" r="1.8"/>
<circle cx="756" cy="684" r="1.8"/>
<circle cx="756" cy="720" r="1.8"/>
<circle cx="756" cy="756" r="1.8"/>
<circle cx="756" cy="792" r="1.8"/>
<circle cx="756" cy="828" r="1.8"/>
<circle cx="756" cy="864" r="1.8"/>
<circle cx="756" cy="900" r="1.8"/>
<circle cx="756" cy="936" r="1.8"/>
<circle cx="756" cy="972" r="1.8"/>
<circle cx="756" cy="1008" r="1.8"/>
<circle cx="756" cy="1044" r="1.8"/>
<circle cx="756" cy="1080" r="1.8"/>
<circle cx="756" cy="1116" r="1.8"/>
<circle cx="756" cy="1152" r="1.8"/>
<circle cx="756" cy="1188" r="1.8"/>
<circle cx="756" cy="1224" r="1.8"/>
<circle cx="756" cy="1260" r="1.8"/>
<circle cx="756" cy="1296" r="1.8"/>
<circle cx="756" cy="1332" r="1.8"/>
<circle cx="792" cy="36" r="1.8"/>
<circle cx="792" cy="72" r="1.8"/>
<circle cx="792" cy="108" r="1.8"/>
<circle cx="792" cy="144" r="1.8"/>
<circle cx="792" cy="180" r="1.8"/>
<circle cx="792" cy="216" r="1.8"/>
<circle cx="792" cy="252" r="1.8"/>
<circle cx="792" cy="288" r="1.8"/>
<circle cx="792" cy="324" r="1.8"/>
<circle cx="792" cy="360" r="1.8"/>
<circle cx="792" cy="396" r="1.8"/>
<circle cx="792" cy="432" r="1.8"/>
<circle cx="792" cy="468" r="1.8"/>
<circle cx="792" cy="504" r="1.8"/>
<circle cx="792" cy="540" r="1.8"/>
<circle cx="792" cy="576" r="1.8"/>
<circle cx="792" cy="612" r="1.8"/>
<circle cx="792" cy="648" r="1.8"/>
<circle cx="792" cy="684" r="1.8"/>
<circle cx="792" cy="720" r="1.8"/>
<circle cx="792" cy="756" r="1.8"/>
<circle cx="792" cy="792" r="1.8"/>
<circle cx="792" cy="828" r="1.8"/>
<circle cx="792" cy="864" r="1.8"/>
<circle cx="792" cy="900" r="1.8"/>
<circle cx="792" cy="936" r="1.8"/>
<circle cx="792" cy="972" r="1.8"/>
<circle cx="792" cy="1008" r="1.8"/>
<circle cx="792" cy="1044" r="1.8"/>
<circle cx="792" cy="1080" r="1.8"/>
<circle cx="792" cy="1116" r="1.8"/>
<circle cx="792" cy="1152" r="1.8"/>
<circle cx="792" cy="1188" r="1.8"/>
<circle cx="792" cy="1224" r="1.8"/>
<circle cx="792" cy="1260" r="1.8"/>
<circle cx="792" cy="1296" r="1.8"/>
<circle cx="792" cy="1332" r="1.8"/>
<circle cx="828" cy="36" r="1.8"/>
<circle cx="828" cy="72" r="1.8"/>
<circle cx="828" cy="108" r="1.8"/>
<circle cx="828" cy="144" r="1.8"/>
<circle cx="828" cy="180" r="1.8"/>
<circle cx="828" cy="216" r="1.8"/>
<circle cx="828" cy="252" r="1.8"/>
<circle cx="828" cy="288" r="1.8"/>
<circle cx="828" cy="324" r="1.8"/>
<circle cx="828" cy="360" r="1.8"/>
<circle cx="828" cy="396" r="1.8"/>
<circle cx="828" cy="432" r="1.8"/>
<circle cx="828" cy="468" r="1.8"/>
<circle cx="828" cy="504" r="1.8"/>
<circle cx="828" cy="540" r="1.8"/>
<circle cx="828" cy="576" r="1.8"/>
<circle cx="828" cy="612" r="1.8"/>
<circle cx="828" cy="648" r="1.8"/>
<circle cx="828" cy="684" r="1.8"/>
<circle cx="828" cy="720" r="1.8"/>
<circle cx="828" cy="756" r="1.8"/>
<circle cx="828" cy="792" r="1.8"/>
<circle cx="828" cy="828" r="1.8"/>
<circle cx="828" cy="864" r="1.8"/>
<circle cx="828" cy="900" r="1.8"/>
<circle cx="828" cy="936" r="1.8"/>
<circle cx="828" cy="972" r="1.8"/>
<circle cx="828" cy="1008" r="1.8"/>
<circle cx="828" cy="1044" r="1.8"/>
<circle cx="828" cy="1080" r="1.8"/>
<circle cx="828" cy="1116" r="1.8"/>
<circle cx="828" cy="1152" r="1.8"/>
<circle cx="828" cy="1188" r="1.8"/>
<circle cx="828" cy="1224" r="1.8"/>
<circle cx="828" cy="1260" r="1.8"/>
<circle cx="828" cy="1296" r="1.8"/>
<circle cx="828" cy="1332" r="1.8"/>
<circle cx="864" cy="36" r="1.8"/>
<circle cx="864" cy="72" r="1.8"/>
<circle cx="864" cy="108" r="1.8"/>
<circle cx="864" cy="144" r="1.8"/>
<circle cx="864" cy="180" r="1.8"/>
<circle cx="864" cy="216" r="1.8"/>
<circle cx="864" cy="252" r="1.8"/>
<circle cx="864" cy="288" r="1.8"/>
<circle cx="864" cy="324" r="1.8"/>
<circle cx="864" cy="360" r="1.8"/>
<circle cx="864" cy="396" r="1.8"/>
<circle cx="864" cy="432" r="1.8"/>
<circle cx="864" cy="468" r="1.8"/>
<circle cx="864" cy="504" r="1.8"/>
<circle cx="864" cy="540" r="1.8"/>
<circle cx="864" cy="576" r="1.8"/>
<circle cx="864" cy="612" r="1.8"/>
<circle cx="864" cy="648" r="1.8"/>
<circle cx="864" cy="684" r="1.8"/>
<circle cx="864" cy="720" r="1.8"/>
<circle cx="864" cy="756" r="1.8"/>
<circle cx="864" cy="792" r="1.8"/>
<circle cx="864" cy="828" r="1.8"/>
<circle cx="864" cy="864" r="1.8"/>
<circle cx="864" cy="900" r="1.8"/>
<circle cx="864" cy="936" r="1.8"/>
<circle cx="864" cy="972" r="1.8"/>
<circle cx="864" cy="1008" r="1.8"/>
<circle cx="864" cy="1044" r="1.8"/>
<circle cx="864" cy="1080" r="1.8"/>
<circle cx="864" cy="1116" r="1.8"/>
<circle cx="864" cy="1152" r="1.8"/>
<circle cx="864" cy="1188" r="1.8"/>
<circle cx="864" cy="1224" r="1.8"/>
<circle cx="864" cy="1260" r="1.8"/>
<circle cx="864" cy="1296" r="1.8"/>
<circle cx="864" cy="1332" r="1.8"/>
<circle cx="900" cy="36" r="1.8"/>
<circle cx="900" cy="72" r="1.8"/>
<circle cx="900" cy="108" r="1.8"/>
<circle cx="900" cy="144" r="1.8"/>
<circle cx="900" cy="180" r="1.8"/>
<circle cx="900" cy="216" r="1.8"/>
<circle cx="900" cy="252" r="1.8"/>
<circle cx="900" cy="288" r="1.8"/>
<circle cx="900" cy="324" r="1.8"/>
<circle cx="900" cy="360" r="1.8"/>
<circle cx="900" cy="396" r="1.8"/>
<circle cx="900" cy="432" r="1.8"/>
<circle cx="900" cy="468" r="1.8"/>
<circle cx="900" cy="504" r="1.8"/>
<circle cx="900" cy="540" r="1.8"/>
<circle cx="900" cy="576" r="1.8"/>
<circle cx="900" cy="612" r="1.8"/>
<circle cx="900" cy="648" r="1.8"/>
<circle cx="900" cy="684" r="1.8"/>
<circle cx="900" cy="720" r="1.8"/>
<circle cx="900" cy="756" r="1.8"/>
<circle cx="900" cy="792" r="1.8"/>
<circle cx="900" cy="828" r="1.8"/>
<circle cx="900" cy="864" r="1.8"/>
<circle cx="900" cy="900" r="1.8"/>
<circle cx="900" cy="936" r="1.8"/>
<circle cx="900" cy="972" r="1.8"/>
<circle cx="900" cy="1008" r="1.8"/>
<circle cx="900" cy="1044" r="1.8"/>
<circle cx="900" cy="1080" r="1.8"/>
<circle cx="900" cy="1116" r="1.8"/>
<circle cx="900" cy="1152" r="1.8"/>
<circle cx="900" cy="1188" r="1.8"/>
<circle cx="900" cy="1224" r="1.8"/>
<circle cx="900" cy="1260" r="1.8"/>
<circle cx="900" cy="1296" r="1.8"/>
<circle cx="900" cy="1332" r="1.8"/>
<circle cx="936" cy="36" r="1.8"/>
<circle cx="936" cy="72" r="1.8"/>
<circle cx="936" cy="108" r="1.8"/>
<circle cx="936" cy="144" r="1.8"/>
<circle cx="936" cy="180" r="1.8"/>
<circle cx="936" cy="216" r="1.8"/>
<circle cx="936" cy="252" r="1.8"/>
<circle cx="936" cy="288" r="1.8"/>
<circle cx="936" cy="324" r="1.8"/>
<circle cx="936" cy="360" r="1.8"/>
<circle cx="936" cy="396" r="1.8"/>
<circle cx="936" cy="432" r="1.8"/>
<circle cx="936" cy="468" r="1.8"/>
<circle cx="936" cy="504" r="1.8"/>
<circle cx="936" cy="540" r="1.8"/>
<circle cx="936" cy="576" r="1.8"/>
<circle cx="936" cy="612" r="1.8"/>
<circle cx="936" cy="648" r="1.8"/>
<circle cx="936" cy="684" r="1.8"/>
<circle cx="936" cy="720" r="1.8"/>
<circle cx="936" cy="756" r="1.8"/>
<circle cx="936" cy="792" r="1.8"/>
<circle cx="936" cy="828" r="1.8"/>
<circle cx="936" cy="864" r="1.8"/>
<circle cx="936" cy="900" r="1.8"/>
<circle cx="936" cy="936" r="1.8"/>
<circle cx="936" cy="972" r="1.8"/>
<circle cx="936" cy="1008" r="1.8"/>
<circle cx="936" cy="1044" r="1.8"/>
<circle cx="936" cy="1080" r="1.8"/>
<circle cx="936" cy="1116" r="1.8"/>
<circle cx="936" cy="1152" r="1.8"/>
<circle cx="936" cy="1188" r="1.8"/>
<circle cx="936" cy="1224" r="1.8"/>
<circle cx="936" cy="1260" r="1.8"/>
<circle cx="936" cy="1296" r="1.8"/>
<circle cx="936" cy="1332" r="1.8"/>
<circle cx="972" cy="36" r="1.8"/>
<circle cx="972" cy="72" r="1.8"/>
<circle cx="972" cy="108" r="1.8"/>
<circle cx="972" cy="144" r="1.8"/>
<circle cx="972" cy="180" r="1.8"/>
<circle cx="972" cy="216" r="1.8"/>
<circle cx="972" cy="252" r="1.8"/>
<circle cx="972" cy="288" r="1.8"/>
<circle cx="972" cy="324" r="1.8"/>
<circle cx="972" cy="360" r="1.8"/>
<circle cx="972" cy="396" r="1.8"/>
<circle cx="972" cy="432" r="1.8"/>
<circle cx="972" cy="468" r="1.8"/>
<circle cx="972" cy="504" r="1.8"/>
<circle cx="972" cy="540" r="1.8"/>
<circle cx="972" cy="576" r="1.8"/>
<circle cx="972" cy="612" r="1.8"/>
<circle cx="972" cy="648" r="1.8"/>
<circle cx="972" cy="684" r="1.8"/>
<circle cx="972" cy="720" r="1.8"/>
<circle cx="972" cy="756" r="1.8"/>
<circle cx="972" cy="792" r="1.8"/>
<circle cx="972" cy="828" r="1.8"/>
<circle cx="972" cy="864" r="1.8"/>
<circle cx="972" cy="900" r="1.8"/>
<circle cx="972" cy="936" r="1.8"/>
<circle cx="972" cy="972" r="1.8"/>
<circle cx="972" cy="1008" r="1.8"/>
<circle cx="972" cy="1044" r="1.8"/>
<circle cx="972" cy="1080" r="1.8"/>
<circle cx="972" cy="1116" r="1.8"/>
<circle cx="972" cy="1152" r="1.8"/>
<circle cx="972" cy="1188" r="1.8"/>
<circle cx="972" cy="1224" r="1.8"/>
<circle cx="972" cy="1260" r="1.8"/>
<circle cx="972" cy="1296" r="1.8"/>
<circle cx="972" cy="1332" r="1.8"/>
<circle cx="1008" cy="36" r="1.8"/>
<circle cx="1008" cy="72" r="1.8"/>
<circle cx="1008" cy="108" r="1.8"/>
<circle cx="1008" cy="144" r="1.8"/>
<circle cx="1008" cy="180" r="1.8"/>
<circle cx="1008" cy="216" r="1.8"/>
<circle cx="1008" cy="252" r="1.8"/>
<circle cx="1008" cy="288" r="1.8"/>
<circle cx="1008" cy="324" r="1.8"/>
<circle cx="1008" cy="360" r="1.8"/>
<circle cx="1008" cy="396" r="1.8"/>
<circle cx="1008" cy="432" r="1.8"/>
<circle cx="1008" cy="468" r="1.8"/>
<circle cx="1008" cy="504" r="1.8"/>
<circle cx="1008" cy="540" r="1.8"/>
<circle cx="1008" cy="576" r="1.8"/>
<circle cx="1008" cy="612" r="1.8"/>
<circle cx="1008" cy="648" r="1.8"/>
<circle cx="1008" cy="684" r="1.8"/>
<circle cx="1008" cy="720" r="1.8"/>
<circle cx="1008" cy="756" r="1.8"/>
<circle cx="1008" cy="792" r="1.8"/>
<circle cx="1008" cy="828" r="1.8"/>
<circle cx="1008" cy="864" r="1.8"/>
<circle cx="1008" cy="900" r="1.8"/>
<circle cx="1008" cy="936" r="1.8"/>
<circle cx="1008" cy="972" r="1.8"/>
<circle cx="1008" cy="1008" r="1.8"/>
<circle cx="1008" cy="1044" r="1.8"/>
<circle cx="1008" cy="1080" r="1.8"/>
<circle cx="1008" cy="1116" r="1.8"/>
<circle cx="1008" cy="1152" r="1.8"/>
<circle cx="1008" cy="1188" r="1.8"/>
<circle cx="1008" cy="1224" r="1.8"/>
<circle cx="1008" cy="1260" r="1.8"/>
<circle cx="1008" cy="1296" r="1.8"/>
<circle cx="1008" cy="1332" r="1.8"/>
<circle cx="1044" cy="36" r="1.8"/>
<circle cx="1044" cy="72" r="1.8"/>
<circle cx="1044" cy="108" r="1.8"/>
<circle cx="1044" cy="144" r="1.8"/>
<circle cx="1044" cy="180" r="1.8"/>
<circle cx="1044" cy="216" r="1.8"/>
<circle cx="1044" cy="252" r="1.8"/>
<circle cx="1044" cy="288" r="1.8"/>
<circle cx="1044" cy="324" r="1.8"/>
<circle cx="1044" cy="360" r="1.8"/>
<circle cx="1044" cy="396" r="1.8"/>
<circle cx="1044" cy="432" r="1.8"/>
<circle cx="1044" cy="468" r="1.8"/>
<circle cx="1044" cy="504" r="1.8"/>
<circle cx="1044" cy="540" r="1.8"/>
<circle cx="1044" cy="576" r="1.8"/>
<circle cx="1044" cy="612" r="1.8"/>
<circle cx="1044" cy="648" r="1.8"/>
<circle cx="1044" cy="684" r="1.8"/>
<circle cx="1044" cy="720" r="1.8"/>
<circle cx="1044" cy="756" r="1.8"/>
<circle cx="1044" cy="792" r="1.8"/>
<circle cx="1044" cy="828" r="1.8"/>
<circle cx="1044" cy="864" r="1.8"/>
<circle cx="1044" cy="900" r="1.8"/>
<circle cx="1044" cy="936" r="1.8"/>
<circle cx="1044" cy="972" r="1.8"/>
<circle cx="1044" cy="1008" r="1.8"/>
<circle cx="1044" cy="1044" r="1.8"/>
<circle cx="1044" cy="1080" r="1.8"/>
<circle cx="1044" cy="1116" r="1.8"/>
<circle cx="1044" cy="1152" r="1.8"/>
<circle cx="1044" cy="1188" r="1.8"/>
<circle cx="1044" cy="1224" r="1.8"/>
<circle cx="1044" cy="1260" r="1.8"/>
<circle cx="1044" cy="1296" r="1.8"/>
<circle cx="1044" cy="1332" r="1.8"/>
</g>

  <!-- BIG diagonal sun rays (much more luminous) -->
  <g>
    <polygon points="0,0 600,0 0,500" fill="url(#rayHome)" opacity="0.9"/>
    <polygon points="0,0 450,0 0,400" fill="url(#rayHome)" opacity="0.7"/>
    <polygon points="0,0 300,0 0,280" fill="url(#rayHome)" opacity="0.8"/>
    <polygon points="0,0 180,0 0,180" fill="url(#rayHome)" opacity="0.6"/>
  </g>

  <!-- Visible sun source (lens flare) -->
  <circle cx="180" cy="180" r="180" fill="url(#sunCore)"/>
  <circle cx="180" cy="180" r="50" fill="#fff8c8" opacity="0.95"/>
  <circle cx="180" cy="180" r="22" fill="#ffffff"/>

  <!-- Bold horizontal accent lines -->
  <rect x="0" y="235" width="1080" height="4" fill="url(#accHome)"/>
  <rect x="0" y="1110" width="1080" height="4" fill="url(#accHome)"/>

  <!-- Pitch lines -->
  <g stroke="#f5ebd7" stroke-width="4" fill="none" opacity="0.4">
    <line x1="40" y1="675" x2="1040" y2="675"/>
    <circle cx="540" cy="675" r="110"/>
    <circle cx="540" cy="675" r="6" fill="#f5ebd7"/>
  </g>
  <g stroke="#f5ebd7" stroke-width="3" fill="none" opacity="0.3">
    <rect x="40" y="40" width="1000" height="1270" rx="6"/>
  </g>

  <!-- Central diamond/chevron focal -->
  <g transform="translate(540 600)" opacity="0.7">
    <path d="M 0 -180 L 165 0 L 0 180 L -165 0 Z" fill="none" stroke="#f5ebd7" stroke-width="4"/>
    <path d="M 0 -115 L 105 0 L 0 115 L -105 0 Z" fill="none" stroke="#f5ebd7" stroke-width="3"/>
    <circle r="42" fill="none" stroke="#d4a020" stroke-width="5"/>
    <circle r="8" fill="#d4a020"/>
  </g>

  <!-- Vignette -->
  <rect width="1080" height="1350" fill="url(#vigHome)"/>
</svg>