<svg xmlns="http://www.w3.org/2000/svg" viewBox="0 0 1080 1350" preserveAspectRatio="xMidYMid slice">
  <defs>
    <linearGradient id="bgHome" x1="0" y1="0" x2="0" y2="1">
      <stop offset="0%" stop-color="#5a8c3a"/>
      <stop offset="40%" stop-color="#2a5218"/>
      <stop offset="100%" stop-color="#0a1808"/>
    </linearGradient>
    <linearGradient id="skyHome" x1="0" y1="0" x2="0" y2="1">
      <stop offset="0%" stop-color="#7ec0ff" stop-opacity="0.4"/>
      <stop offset="100%" stop-color="#7ec0ff" stop-opacity="0"/>
    </linearGradient>
    <radialGradient id="sunGlow" cx="50%" cy="50%" r="50%">
      <stop offset="0%" stop-color="#fff8c8" stop-opacity="1"/>
      <stop offset="40%" stop-color="#fff5b0" stop-opacity="0.5"/>
      <stop offset="100%" stop-color="#fff5b0" stop-opacity="0"/>
    </radialGradient>
    <linearGradient id="accHome" x1="0" y1="0" x2="1" y2="0">
      <stop offset="0%" stop-color="#f5ebd7" stop-opacity="0"/>
      <stop offset="50%" stop-color="#f5ebd7" stop-opacity="0.5"/>
      <stop offset="100%" stop-color="#f5ebd7" stop-opacity="0"/>
    </linearGradient>
    <radialGradient id="vigHome" cx="50%" cy="50%" r="70%">
      <stop offset="55%" stop-color="#000" stop-opacity="0"/>
      <stop offset="100%" stop-color="#000" stop-opacity="0.5"/>
    </radialGradient>
    <style>
      @keyframes sunPulse { 0%,100% { opacity: 0.95 } 50% { opacity: 0.6 } }
      .sun-core { animation: sunPulse 4s ease-in-out infinite; transform-origin: 180px 180px; }
      @keyframes rayShift { 0% { opacity: 0.5 } 50% { opacity: 0.8 } 100% { opacity: 0.5 } }
      .sun-rays { animation: rayShift 6s ease-in-out infinite; }
    </style>
  </defs>

  <rect width="1080" height="1350" fill="url(#bgHome)"/>

  <!-- Sky gradient band at top -->
  <rect x="0" y="0" width="1080" height="400" fill="url(#skyHome)"/>

  <!-- Bold sun rays from top-left -->
  <g class="sun-rays">
    <polygon points="0,0 700,0 0,600" fill="url(#sunGlow)" opacity="0.6"/>
    <polygon points="0,0 500,0 0,450" fill="url(#sunGlow)" opacity="0.7"/>
    <polygon points="0,0 300,0 0,300" fill="url(#sunGlow)" opacity="0.8"/>
  </g>

  <!-- Sun source (pulsing) -->
  <circle cx="180" cy="180" r="200" fill="url(#sunGlow)"/>
  <circle class="sun-core" cx="180" cy="180" r="55" fill="#fff8c8"/>
  <circle cx="180" cy="180" r="25" fill="#ffffff"/>

  <!-- Refractor pattern overlay (subtle, premium feel) -->
<g opacity="0.04">
<line x1="-1350" y1="0" x2="0" y2="1350" stroke="#f5ebd7" stroke-width="0.8"/>
<line x1="-1290" y1="0" x2="60" y2="1350" stroke="#f5ebd7" stroke-width="0.8"/>
<line x1="-1230" y1="0" x2="120" y2="1350" stroke="#f5ebd7" stroke-width="0.8"/>
<line x1="-1170" y1="0" x2="180" y2="1350" stroke="#f5ebd7" stroke-width="0.8"/>
<line x1="-1110" y1="0" x2="240" y2="1350" stroke="#f5ebd7" stroke-width="0.8"/>
<line x1="-1050" y1="0" x2="300" y2="1350" stroke="#f5ebd7" stroke-width="0.8"/>
<line x1="-990" y1="0" x2="360" y2="1350" stroke="#f5ebd7" stroke-width="0.8"/>
<line x1="-930" y1="0" x2="420" y2="1350" stroke="#f5ebd7" stroke-width="0.8"/>
<line x1="-870" y1="0" x2="480" y2="1350" stroke="#f5ebd7" stroke-width="0.8"/>
<line x1="-810" y1="0" x2="540" y2="1350" stroke="#f5ebd7" stroke-width="0.8"/>
<line x1="-750" y1="0" x2="600" y2="1350" stroke="#f5ebd7" stroke-width="0.8"/>
<line x1="-690" y1="0" x2="660" y2="1350" stroke="#f5ebd7" stroke-width="0.8"/>
<line x1="-630" y1="0" x2="720" y2="1350" stroke="#f5ebd7" stroke-width="0.8"/>
<line x1="-570" y1="0" x2="780" y2="1350" stroke="#f5ebd7" stroke-width="0.8"/>
<line x1="-510" y1="0" x2="840" y2="1350" stroke="#f5ebd7" stroke-width="0.8"/>
<line x1="-450" y1="0" x2="900" y2="1350" stroke="#f5ebd7" stroke-width="0.8"/>
<line x1="-390" y1="0" x2="960" y2="1350" stroke="#f5ebd7" stroke-width="0.8"/>
<line x1="-330" y1="0" x2="1020" y2="1350" stroke="#f5ebd7" stroke-width="0.8"/>
<line x1="-270" y1="0" x2="1080" y2="1350" stroke="#f5ebd7" stroke-width="0.8"/>
<line x1="-210" y1="0" x2="1140" y2="1350" stroke="#f5ebd7" stroke-width="0.8"/>
<line x1="-150" y1="0" x2="1200" y2="1350" stroke="#f5ebd7" stroke-width="0.8"/>
<line x1="-90" y1="0" x2="1260" y2="1350" stroke="#f5ebd7" stroke-width="0.8"/>
<line x1="-30" y1="0" x2="1320" y2="1350" stroke="#f5ebd7" stroke-width="0.8"/>
<line x1="30" y1="0" x2="1380" y2="1350" stroke="#f5ebd7" stroke-width="0.8"/>
<line x1="90" y1="0" x2="1440" y2="1350" stroke="#f5ebd7" stroke-width="0.8"/>
<line x1="150" y1="0" x2="1500" y2="1350" stroke="#f5ebd7" stroke-width="0.8"/>
<line x1="210" y1="0" x2="1560" y2="1350" stroke="#f5ebd7" stroke-width="0.8"/>
<line x1="270" y1="0" x2="1620" y2="1350" stroke="#f5ebd7" stroke-width="0.8"/>
<line x1="330" y1="0" x2="1680" y2="1350" stroke="#f5ebd7" stroke-width="0.8"/>
<line x1="390" y1="0" x2="1740" y2="1350" stroke="#f5ebd7" stroke-width="0.8"/>
<line x1="450" y1="0" x2="1800" y2="1350" stroke="#f5ebd7" stroke-width="0.8"/>
<line x1="510" y1="0" x2="1860" y2="1350" stroke="#f5ebd7" stroke-width="0.8"/>
<line x1="570" y1="0" x2="1920" y2="1350" stroke="#f5ebd7" stroke-width="0.8"/>
<line x1="630" y1="0" x2="1980" y2="1350" stroke="#f5ebd7" stroke-width="0.8"/>
<line x1="690" y1="0" x2="2040" y2="1350" stroke="#f5ebd7" stroke-width="0.8"/>
<line x1="750" y1="0" x2="2100" y2="1350" stroke="#f5ebd7" stroke-width="0.8"/>
<line x1="810" y1="0" x2="2160" y2="1350" stroke="#f5ebd7" stroke-width="0.8"/>
<line x1="870" y1="0" x2="2220" y2="1350" stroke="#f5ebd7" stroke-width="0.8"/>
<line x1="930" y1="0" x2="2280" y2="1350" stroke="#f5ebd7" stroke-width="0.8"/>
<line x1="990" y1="0" x2="2340" y2="1350" stroke="#f5ebd7" stroke-width="0.8"/>
<line x1="1050" y1="0" x2="2400" y2="1350" stroke="#f5ebd7" stroke-width="0.8"/>
<line x1="1110" y1="0" x2="2460" y2="1350" stroke="#f5ebd7" stroke-width="0.8"/>
<line x1="1170" y1="0" x2="2520" y2="1350" stroke="#f5ebd7" stroke-width="0.8"/>
<line x1="1230" y1="0" x2="2580" y2="1350" stroke="#f5ebd7" stroke-width="0.8"/>
<line x1="1290" y1="0" x2="2640" y2="1350" stroke="#f5ebd7" stroke-width="0.8"/>
<line x1="1350" y1="0" x2="2700" y2="1350" stroke="#f5ebd7" stroke-width="0.8"/>
<line x1="1410" y1="0" x2="2760" y2="1350" stroke="#f5ebd7" stroke-width="0.8"/>
<line x1="1470" y1="0" x2="2820" y2="1350" stroke="#f5ebd7" stroke-width="0.8"/>
<line x1="1530" y1="0" x2="2880" y2="1350" stroke="#f5ebd7" stroke-width="0.8"/>
<line x1="1590" y1="0" x2="2940" y2="1350" stroke="#f5ebd7" stroke-width="0.8"/>
<line x1="1650" y1="0" x2="3000" y2="1350" stroke="#f5ebd7" stroke-width="0.8"/>
<line x1="1710" y1="0" x2="3060" y2="1350" stroke="#f5ebd7" stroke-width="0.8"/>
<line x1="1770" y1="0" x2="3120" y2="1350" stroke="#f5ebd7" stroke-width="0.8"/>
<line x1="1830" y1="0" x2="3180" y2="1350" stroke="#f5ebd7" stroke-width="0.8"/>
<line x1="1890" y1="0" x2="3240" y2="1350" stroke="#f5ebd7" stroke-width="0.8"/>
<line x1="1950" y1="0" x2="3300" y2="1350" stroke="#f5ebd7" stroke-width="0.8"/>
<line x1="2010" y1="0" x2="3360" y2="1350" stroke="#f5ebd7" stroke-width="0.8"/>
<line x1="2070" y1="0" x2="3420" y2="1350" stroke="#f5ebd7" stroke-width="0.8"/>
<line x1="2130" y1="0" x2="3480" y2="1350" stroke="#f5ebd7" stroke-width="0.8"/>
<line x1="2190" y1="0" x2="3540" y2="1350" stroke="#f5ebd7" stroke-width="0.8"/>
<line x1="2250" y1="0" x2="3600" y2="1350" stroke="#f5ebd7" stroke-width="0.8"/>
<line x1="2310" y1="0" x2="3660" y2="1350" stroke="#f5ebd7" stroke-width="0.8"/>
<line x1="2370" y1="0" x2="3720" y2="1350" stroke="#f5ebd7" stroke-width="0.8"/>
</g>

  <!-- Subtle grass texture dots -->
<circle cx="40" cy="40" r="1.5" fill="#f5ebd7" opacity="0.08"/><circle cx="40" cy="90" r="1.5" fill="#f5ebd7" opacity="0.08"/><circle cx="40" cy="140" r="1.5" fill="#f5ebd7" opacity="0.08"/><circle cx="40" cy="190" r="1.5" fill="#f5ebd7" opacity="0.08"/><circle cx="40" cy="240" r="1.5" fill="#f5ebd7" opacity="0.08"/><circle cx="40" cy="290" r="1.5" fill="#f5ebd7" opacity="0.08"/><circle cx="40" cy="340" r="1.5" fill="#f5ebd7" opacity="0.08"/><circle cx="40" cy="390" r="1.5" fill="#f5ebd7" opacity="0.08"/><circle cx="40" cy="440" r="1.5" fill="#f5ebd7" opacity="0.08"/><circle cx="40" cy="490" r="1.5" fill="#f5ebd7" opacity="0.08"/><circle cx="40" cy="540" r="1.5" fill="#f5ebd7" opacity="0.08"/><circle cx="40" cy="590" r="1.5" fill="#f5ebd7" opacity="0.08"/><circle cx="40" cy="640" r="1.5" fill="#f5ebd7" opacity="0.08"/><circle cx="40" cy="690" r="1.5" fill="#f5ebd7" opacity="0.08"/><circle cx="40" cy="740" r="1.5" fill="#f5ebd7" opacity="0.08"/><circle cx="40" cy="790" r="1.5" fill="#f5ebd7" opacity="0.08"/><circle cx="40" cy="840" r="1.5" fill="#f5ebd7" opacity="0.08"/><circle cx="40" cy="890" r="1.5" fill="#f5ebd7" opacity="0.08"/><circle cx="40" cy="940" r="1.5" fill="#f5ebd7" opacity="0.08"/><circle cx="40" cy="990" r="1.5" fill="#f5ebd7" opacity="0.08"/><circle cx="40" cy="1040" r="1.5" fill="#f5ebd7" opacity="0.08"/><circle cx="40" cy="1090" r="1.5" fill="#f5ebd7" opacity="0.08"/><circle cx="40" cy="1140" r="1.5" fill="#f5ebd7" opacity="0.08"/><circle cx="40" cy="1190" r="1.5" fill="#f5ebd7" opacity="0.08"/><circle cx="40" cy="1240" r="1.5" fill="#f5ebd7" opacity="0.08"/><circle cx="40" cy="1290" r="1.5" fill="#f5ebd7" opacity="0.08"/><circle cx="40" cy="1340" r="1.5" fill="#f5ebd7" opacity="0.08"/><circle cx="90" cy="40" r="1.5" fill="#f5ebd7" opacity="0.08"/><circle cx="90" cy="90" r="1.5" fill="#f5ebd7" opacity="0.08"/><circle cx="90" cy="140" r="1.5" fill="#f5ebd7" opacity="0.08"/><circle cx="90" cy="190" r="1.5" fill="#f5ebd7" opacity="0.08"/><circle cx="90" cy="240" r="1.5" fill="#f5ebd7" opacity="0.08"/><circle cx="90" cy="290" r="1.5" fill="#f5ebd7" opacity="0.08"/><circle cx="90" cy="340" r="1.5" fill="#f5ebd7" opacity="0.08"/><circle cx="90" cy="390" r="1.5" fill="#f5ebd7" opacity="0.08"/><circle cx="90" cy="440" r="1.5" fill="#f5ebd7" opacity="0.08"/><circle cx="90" cy="490" r="1.5" fill="#f5ebd7" opacity="0.08"/><circle cx="90" cy="540" r="1.5" fill="#f5ebd7" opacity="0.08"/><circle cx="90" cy="590" r="1.5" fill="#f5ebd7" opacity="0.08"/><circle cx="90" cy="640" r="1.5" fill="#f5ebd7" opacity="0.08"/><circle cx="90" cy="690" r="1.5" fill="#f5ebd7" opacity="0.08"/><circle cx="90" cy="740" r="1.5" fill="#f5ebd7" opacity="0.08"/><circle cx="90" cy="790" r="1.5" fill="#f5ebd7" opacity="0.08"/><circle cx="90" cy="840" r="1.5" fill="#f5ebd7" opacity="0.08"/><circle cx="90" cy="890" r="1.5" fill="#f5ebd7" opacity="0.08"/><circle cx="90" cy="940" r="1.5" fill="#f5ebd7" opacity="0.08"/><circle cx="90" cy="990" r="1.5" fill="#f5ebd7" opacity="0.08"/><circle cx="90" cy="1040" r="1.5" fill="#f5ebd7" opacity="0.08"/><circle cx="90" cy="1090" r="1.5" fill="#f5ebd7" opacity="0.08"/><circle cx="90" cy="1140" r="1.5" fill="#f5ebd7" opacity="0.08"/><circle cx="90" cy="1190" r="1.5" fill="#f5ebd7" opacity="0.08"/><circle cx="90" cy="1240" r="1.5" fill="#f5ebd7" opacity="0.08"/><circle cx="90" cy="1290" r="1.5" fill="#f5ebd7" opacity="0.08"/><circle cx="90" cy="1340" r="1.5" fill="#f5ebd7" opacity="0.08"/><circle cx="140" cy="40" r="1.5" fill="#f5ebd7" opacity="0.08"/><circle cx="140" cy="90" r="1.5" fill="#f5ebd7" opacity="0.08"/><circle cx="140" cy="140" r="1.5" fill="#f5ebd7" opacity="0.08"/><circle cx="140" cy="190" r="1.5" fill="#f5ebd7" opacity="0.08"/><circle cx="140" cy="240" r="1.5" fill="#f5ebd7" opacity="0.08"/><circle cx="140" cy="290" r="1.5" fill="#f5ebd7" opacity="0.08"/><circle cx="140" cy="340" r="1.5" fill="#f5ebd7" opacity="0.08"/><circle cx="140" cy="390" r="1.5" fill="#f5ebd7" opacity="0.08"/><circle cx="140" cy="440" r="1.5" fill="#f5ebd7" opacity="0.08"/><circle cx="140" cy="490" r="1.5" fill="#f5ebd7" opacity="0.08"/><circle cx="140" cy="540" r="1.5" fill="#f5ebd7" opacity="0.08"/><circle cx="140" cy="590" r="1.5" fill="#f5ebd7" opacity="0.08"/><circle cx="140" cy="640" r="1.5" fill="#f5ebd7" opacity="0.08"/><circle cx="140" cy="690" r="1.5" fill="#f5ebd7" opacity="0.08"/><circle cx="140" cy="740" r="1.5" fill="#f5ebd7" opacity="0.08"/><circle cx="140" cy="790" r="1.5" fill="#f5ebd7" opacity="0.08"/><circle cx="140" cy="840" r="1.5" fill="#f5ebd7" opacity="0.08"/><circle cx="140" cy="890" r="1.5" fill="#f5ebd7" opacity="0.08"/><circle cx="140" cy="940" r="1.5" fill="#f5ebd7" opacity="0.08"/><circle cx="140" cy="990" r="1.5" fill="#f5ebd7" opacity="0.08"/><circle cx="140" cy="1040" r="1.5" fill="#f5ebd7" opacity="0.08"/><circle cx="140" cy="1090" r="1.5" fill="#f5ebd7" opacity="0.08"/><circle cx="140" cy="1140" r="1.5" fill="#f5ebd7" opacity="0.08"/><circle cx="140" cy="1190" r="1.5" fill="#f5ebd7" opacity="0.08"/><circle cx="140" cy="1240" r="1.5" fill="#f5ebd7" opacity="0.08"/><circle cx="140" cy="1290" r="1.5" fill="#f5ebd7" opacity="0.08"/><circle cx="140" cy="1340" r="1.5" fill="#f5ebd7" opacity="0.08"/><circle cx="190" cy="40" r="1.5" fill="#f5ebd7" opacity="0.08"/><circle cx="190" cy="90" r="1.5" fill="#f5ebd7" opacity="0.08"/><circle cx="190" cy="140" r="1.5" fill="#f5ebd7" opacity="0.08"/><circle cx="190" cy="190" r="1.5" fill="#f5ebd7" opacity="0.08"/><circle cx="190" cy="240" r="1.5" fill="#f5ebd7" opacity="0.08"/><circle cx="190" cy="290" r="1.5" fill="#f5ebd7" opacity="0.08"/><circle cx="190" cy="340" r="1.5" fill="#f5ebd7" opacity="0.08"/><circle cx="190" cy="390" r="1.5" fill="#f5ebd7" opacity="0.08"/><circle cx="190" cy="440" r="1.5" fill="#f5ebd7" opacity="0.08"/><circle cx="190" cy="490" r="1.5" fill="#f5ebd7" opacity="0.08"/><circle cx="190" cy="540" r="1.5" fill="#f5ebd7" opacity="0.08"/><circle cx="190" cy="590" r="1.5" fill="#f5ebd7" opacity="0.08"/><circle cx="190" cy="640" r="1.5" fill="#f5ebd7" opacity="0.08"/><circle cx="190" cy="690" r="1.5" fill="#f5ebd7" opacity="0.08"/><circle cx="190" cy="740" r="1.5" fill="#f5ebd7" opacity="0.08"/><circle cx="190" cy="790" r="1.5" fill="#f5ebd7" opacity="0.08"/><circle cx="190" cy="840" r="1.5" fill="#f5ebd7" opacity="0.08"/><circle cx="190" cy="890" r="1.5" fill="#f5ebd7" opacity="0.08"/><circle cx="190" cy="940" r="1.5" fill="#f5ebd7" opacity="0.08"/><circle cx="190" cy="990" r="1.5" fill="#f5ebd7" opacity="0.08"/><circle cx="190" cy="1040" r="1.5" fill="#f5ebd7" opacity="0.08"/><circle cx="190" cy="1090" r="1.5" fill="#f5ebd7" opacity="0.08"/><circle cx="190" cy="1140" r="1.5" fill="#f5ebd7" opacity="0.08"/><circle cx="190" cy="1190" r="1.5" fill="#f5ebd7" opacity="0.08"/><circle cx="190" cy="1240" r="1.5" fill="#f5ebd7" opacity="0.08"/><circle cx="190" cy="1290" r="1.5" fill="#f5ebd7" opacity="0.08"/><circle cx="190" cy="1340" r="1.5" fill="#f5ebd7" opacity="0.08"/><circle cx="240" cy="40" r="1.5" fill="#f5ebd7" opacity="0.08"/><circle cx="240" cy="90" r="1.5" fill="#f5ebd7" opacity="0.08"/><circle cx="240" cy="140" r="1.5" fill="#f5ebd7" opacity="0.08"/><circle cx="240" cy="190" r="1.5" fill="#f5ebd7" opacity="0.08"/><circle cx="240" cy="240" r="1.5" fill="#f5ebd7" opacity="0.08"/><circle cx="240" cy="290" r="1.5" fill="#f5ebd7" opacity="0.08"/><circle cx="240" cy="340" r="1.5" fill="#f5ebd7" opacity="0.08"/><circle cx="240" cy="390" r="1.5" fill="#f5ebd7" opacity="0.08"/><circle cx="240" cy="440" r="1.5" fill="#f5ebd7" opacity="0.08"/><circle cx="240" cy="490" r="1.5" fill="#f5ebd7" opacity="0.08"/><circle cx="240" cy="540" r="1.5" fill="#f5ebd7" opacity="0.08"/><circle cx="240" cy="590" r="1.5" fill="#f5ebd7" opacity="0.08"/><circle cx="240" cy="640" r="1.5" fill="#f5ebd7" opacity="0.08"/><circle cx="240" cy="690" r="1.5" fill="#f5ebd7" opacity="0.08"/><circle cx="240" cy="740" r="1.5" fill="#f5ebd7" opacity="0.08"/><circle cx="240" cy="790" r="1.5" fill="#f5ebd7" opacity="0.08"/><circle cx="240" cy="840" r="1.5" fill="#f5ebd7" opacity="0.08"/><circle cx="240" cy="890" r="1.5" fill="#f5ebd7" opacity="0.08"/><circle cx="240" cy="940" r="1.5" fill="#f5ebd7" opacity="0.08"/><circle cx="240" cy="990" r="1.5" fill="#f5ebd7" opacity="0.08"/><circle cx="240" cy="1040" r="1.5" fill="#f5ebd7" opacity="0.08"/><circle cx="240" cy="1090" r="1.5" fill="#f5ebd7" opacity="0.08"/><circle cx="240" cy="1140" r="1.5" fill="#f5ebd7" opacity="0.08"/><circle cx="240" cy="1190" r="1.5" fill="#f5ebd7" opacity="0.08"/><circle cx="240" cy="1240" r="1.5" fill="#f5ebd7" opacity="0.08"/><circle cx="240" cy="1290" r="1.5" fill="#f5ebd7" opacity="0.08"/><circle cx="240" cy="1340" r="1.5" fill="#f5ebd7" opacity="0.08"/><circle cx="290" cy="40" r="1.5" fill="#f5ebd7" opacity="0.08"/><circle cx="290" cy="90" r="1.5" fill="#f5ebd7" opacity="0.08"/><circle cx="290" cy="140" r="1.5" fill="#f5ebd7" opacity="0.08"/><circle cx="290" cy="190" r="1.5" fill="#f5ebd7" opacity="0.08"/><circle cx="290" cy="240" r="1.5" fill="#f5ebd7" opacity="0.08"/><circle cx="290" cy="290" r="1.5" fill="#f5ebd7" opacity="0.08"/><circle cx="290" cy="340" r="1.5" fill="#f5ebd7" opacity="0.08"/><circle cx="290" cy="390" r="1.5" fill="#f5ebd7" opacity="0.08"/><circle cx="290" cy="440" r="1.5" fill="#f5ebd7" opacity="0.08"/><circle cx="290" cy="490" r="1.5" fill="#f5ebd7" opacity="0.08"/><circle cx="290" cy="540" r="1.5" fill="#f5ebd7" opacity="0.08"/><circle cx="290" cy="590" r="1.5" fill="#f5ebd7" opacity="0.08"/><circle cx="290" cy="640" r="1.5" fill="#f5ebd7" opacity="0.08"/><circle cx="290" cy="690" r="1.5" fill="#f5ebd7" opacity="0.08"/><circle cx="290" cy="740" r="1.5" fill="#f5ebd7" opacity="0.08"/><circle cx="290" cy="790" r="1.5" fill="#f5ebd7" opacity="0.08"/><circle cx="290" cy="840" r="1.5" fill="#f5ebd7" opacity="0.08"/><circle cx="290" cy="890" r="1.5" fill="#f5ebd7" opacity="0.08"/><circle cx="290" cy="940" r="1.5" fill="#f5ebd7" opacity="0.08"/><circle cx="290" cy="990" r="1.5" fill="#f5ebd7" opacity="0.08"/><circle cx="290" cy="1040" r="1.5" fill="#f5ebd7" opacity="0.08"/><circle cx="290" cy="1090" r="1.5" fill="#f5ebd7" opacity="0.08"/><circle cx="290" cy="1140" r="1.5" fill="#f5ebd7" opacity="0.08"/><circle cx="290" cy="1190" r="1.5" fill="#f5ebd7" opacity="0.08"/><circle cx="290" cy="1240" r="1.5" fill="#f5ebd7" opacity="0.08"/><circle cx="290" cy="1290" r="1.5" fill="#f5ebd7" opacity="0.08"/><circle cx="290" cy="1340" r="1.5" fill="#f5ebd7" opacity="0.08"/><circle cx="340" cy="40" r="1.5" fill="#f5ebd7" opacity="0.08"/><circle cx="340" cy="90" r="1.5" fill="#f5ebd7" opacity="0.08"/><circle cx="340" cy="140" r="1.5" fill="#f5ebd7" opacity="0.08"/><circle cx="340" cy="190" r="1.5" fill="#f5ebd7" opacity="0.08"/><circle cx="340" cy="240" r="1.5" fill="#f5ebd7" opacity="0.08"/><circle cx="340" cy="290" r="1.5" fill="#f5ebd7" opacity="0.08"/><circle cx="340" cy="340" r="1.5" fill="#f5ebd7" opacity="0.08"/><circle cx="340" cy="390" r="1.5" fill="#f5ebd7" opacity="0.08"/><circle cx="340" cy="440" r="1.5" fill="#f5ebd7" opacity="0.08"/><circle cx="340" cy="490" r="1.5" fill="#f5ebd7" opacity="0.08"/><circle cx="340" cy="540" r="1.5" fill="#f5ebd7" opacity="0.08"/><circle cx="340" cy="590" r="1.5" fill="#f5ebd7" opacity="0.08"/><circle cx="340" cy="640" r="1.5" fill="#f5ebd7" opacity="0.08"/><circle cx="340" cy="690" r="1.5" fill="#f5ebd7" opacity="0.08"/><circle cx="340" cy="740" r="1.5" fill="#f5ebd7" opacity="0.08"/><circle cx="340" cy="790" r="1.5" fill="#f5ebd7" opacity="0.08"/><circle cx="340" cy="840" r="1.5" fill="#f5ebd7" opacity="0.08"/><circle cx="340" cy="890" r="1.5" fill="#f5ebd7" opacity="0.08"/><circle cx="340" cy="940" r="1.5" fill="#f5ebd7" opacity="0.08"/><circle cx="340" cy="990" r="1.5" fill="#f5ebd7" opacity="0.08"/><circle cx="340" cy="1040" r="1.5" fill="#f5ebd7" opacity="0.08"/><circle cx="340" cy="1090" r="1.5" fill="#f5ebd7" opacity="0.08"/><circle cx="340" cy="1140" r="1.5" fill="#f5ebd7" opacity="0.08"/><circle cx="340" cy="1190" r="1.5" fill="#f5ebd7" opacity="0.08"/><circle cx="340" cy="1240" r="1.5" fill="#f5ebd7" opacity="0.08"/><circle cx="340" cy="1290" r="1.5" fill="#f5ebd7" opacity="0.08"/><circle cx="340" cy="1340" r="1.5" fill="#f5ebd7" opacity="0.08"/><circle cx="390" cy="40" r="1.5" fill="#f5ebd7" opacity="0.08"/><circle cx="390" cy="90" r="1.5" fill="#f5ebd7" opacity="0.08"/><circle cx="390" cy="140" r="1.5" fill="#f5ebd7" opacity="0.08"/><circle cx="390" cy="190" r="1.5" fill="#f5ebd7" opacity="0.08"/><circle cx="390" cy="240" r="1.5" fill="#f5ebd7" opacity="0.08"/><circle cx="390" cy="290" r="1.5" fill="#f5ebd7" opacity="0.08"/><circle cx="390" cy="340" r="1.5" fill="#f5ebd7" opacity="0.08"/><circle cx="390" cy="390" r="1.5" fill="#f5ebd7" opacity="0.08"/><circle cx="390" cy="440" r="1.5" fill="#f5ebd7" opacity="0.08"/><circle cx="390" cy="490" r="1.5" fill="#f5ebd7" opacity="0.08"/><circle cx="390" cy="540" r="1.5" fill="#f5ebd7" opacity="0.08"/><circle cx="390" cy="590" r="1.5" fill="#f5ebd7" opacity="0.08"/><circle cx="390" cy="640" r="1.5" fill="#f5ebd7" opacity="0.08"/><circle cx="390" cy="690" r="1.5" fill="#f5ebd7" opacity="0.08"/><circle cx="390" cy="740" r="1.5" fill="#f5ebd7" opacity="0.08"/><circle cx="390" cy="790" r="1.5" fill="#f5ebd7" opacity="0.08"/><circle cx="390" cy="840" r="1.5" fill="#f5ebd7" opacity="0.08"/><circle cx="390" cy="890" r="1.5" fill="#f5ebd7" opacity="0.08"/><circle cx="390" cy="940" r="1.5" fill="#f5ebd7" opacity="0.08"/><circle cx="390" cy="990" r="1.5" fill="#f5ebd7" opacity="0.08"/><circle cx="390" cy="1040" r="1.5" fill="#f5ebd7" opacity="0.08"/><circle cx="390" cy="1090" r="1.5" fill="#f5ebd7" opacity="0.08"/><circle cx="390" cy="1140" r="1.5" fill="#f5ebd7" opacity="0.08"/><circle cx="390" cy="1190" r="1.5" fill="#f5ebd7" opacity="0.08"/><circle cx="390" cy="1240" r="1.5" fill="#f5ebd7" opacity="0.08"/><circle cx="390" cy="1290" r="1.5" fill="#f5ebd7" opacity="0.08"/><circle cx="390" cy="1340" r="1.5" fill="#f5ebd7" opacity="0.08"/><circle cx="440" cy="40" r="1.5" fill="#f5ebd7" opacity="0.08"/><circle cx="440" cy="90" r="1.5" fill="#f5ebd7" opacity="0.08"/><circle cx="440" cy="140" r="1.5" fill="#f5ebd7" opacity="0.08"/><circle cx="440" cy="190" r="1.5" fill="#f5ebd7" opacity="0.08"/><circle cx="440" cy="240" r="1.5" fill="#f5ebd7" opacity="0.08"/><circle cx="440" cy="290" r="1.5" fill="#f5ebd7" opacity="0.08"/><circle cx="440" cy="340" r="1.5" fill="#f5ebd7" opacity="0.08"/><circle cx="440" cy="390" r="1.5" fill="#f5ebd7" opacity="0.08"/><circle cx="440" cy="440" r="1.5" fill="#f5ebd7" opacity="0.08"/><circle cx="440" cy="490" r="1.5" fill="#f5ebd7" opacity="0.08"/><circle cx="440" cy="540" r="1.5" fill="#f5ebd7" opacity="0.08"/><circle cx="440" cy="590" r="1.5" fill="#f5ebd7" opacity="0.08"/><circle cx="440" cy="640" r="1.5" fill="#f5ebd7" opacity="0.08"/><circle cx="440" cy="690" r="1.5" fill="#f5ebd7" opacity="0.08"/><circle cx="440" cy="740" r="1.5" fill="#f5ebd7" opacity="0.08"/><circle cx="440" cy="790" r="1.5" fill="#f5ebd7" opacity="0.08"/><circle cx="440" cy="840" r="1.5" fill="#f5ebd7" opacity="0.08"/><circle cx="440" cy="890" r="1.5" fill="#f5ebd7" opacity="0.08"/><circle cx="440" cy="940" r="1.5" fill="#f5ebd7" opacity="0.08"/><circle cx="440" cy="990" r="1.5" fill="#f5ebd7" opacity="0.08"/><circle cx="440" cy="1040" r="1.5" fill="#f5ebd7" opacity="0.08"/><circle cx="440" cy="1090" r="1.5" fill="#f5ebd7" opacity="0.08"/><circle cx="440" cy="1140" r="1.5" fill="#f5ebd7" opacity="0.08"/><circle cx="440" cy="1190" r="1.5" fill="#f5ebd7" opacity="0.08"/><circle cx="440" cy="1240" r="1.5" fill="#f5ebd7" opacity="0.08"/><circle cx="440" cy="1290" r="1.5" fill="#f5ebd7" opacity="0.08"/><circle cx="440" cy="1340" r="1.5" fill="#f5ebd7" opacity="0.08"/><circle cx="490" cy="40" r="1.5" fill="#f5ebd7" opacity="0.08"/><circle cx="490" cy="90" r="1.5" fill="#f5ebd7" opacity="0.08"/><circle cx="490" cy="140" r="1.5" fill="#f5ebd7" opacity="0.08"/><circle cx="490" cy="190" r="1.5" fill="#f5ebd7" opacity="0.08"/><circle cx="490" cy="240" r="1.5" fill="#f5ebd7" opacity="0.08"/><circle cx="490" cy="290" r="1.5" fill="#f5ebd7" opacity="0.08"/><circle cx="490" cy="340" r="1.5" fill="#f5ebd7" opacity="0.08"/><circle cx="490" cy="390" r="1.5" fill="#f5ebd7" opacity="0.08"/><circle cx="490" cy="440" r="1.5" fill="#f5ebd7" opacity="0.08"/><circle cx="490" cy="490" r="1.5" fill="#f5ebd7" opacity="0.08"/><circle cx="490" cy="540" r="1.5" fill="#f5ebd7" opacity="0.08"/><circle cx="490" cy="590" r="1.5" fill="#f5ebd7" opacity="0.08"/><circle cx="490" cy="640" r="1.5" fill="#f5ebd7" opacity="0.08"/><circle cx="490" cy="690" r="1.5" fill="#f5ebd7" opacity="0.08"/><circle cx="490" cy="740" r="1.5" fill="#f5ebd7" opacity="0.08"/><circle cx="490" cy="790" r="1.5" fill="#f5ebd7" opacity="0.08"/><circle cx="490" cy="840" r="1.5" fill="#f5ebd7" opacity="0.08"/><circle cx="490" cy="890" r="1.5" fill="#f5ebd7" opacity="0.08"/><circle cx="490" cy="940" r="1.5" fill="#f5ebd7" opacity="0.08"/><circle cx="490" cy="990" r="1.5" fill="#f5ebd7" opacity="0.08"/><circle cx="490" cy="1040" r="1.5" fill="#f5ebd7" opacity="0.08"/><circle cx="490" cy="1090" r="1.5" fill="#f5ebd7" opacity="0.08"/><circle cx="490" cy="1140" r="1.5" fill="#f5ebd7" opacity="0.08"/><circle cx="490" cy="1190" r="1.5" fill="#f5ebd7" opacity="0.08"/><circle cx="490" cy="1240" r="1.5" fill="#f5ebd7" opacity="0.08"/><circle cx="490" cy="1290" r="1.5" fill="#f5ebd7" opacity="0.08"/><circle cx="490" cy="1340" r="1.5" fill="#f5ebd7" opacity="0.08"/><circle cx="540" cy="40" r="1.5" fill="#f5ebd7" opacity="0.08"/><circle cx="540" cy="90" r="1.5" fill="#f5ebd7" opacity="0.08"/><circle cx="540" cy="140" r="1.5" fill="#f5ebd7" opacity="0.08"/><circle cx="540" cy="190" r="1.5" fill="#f5ebd7" opacity="0.08"/><circle cx="540" cy="240" r="1.5" fill="#f5ebd7" opacity="0.08"/><circle cx="540" cy="290" r="1.5" fill="#f5ebd7" opacity="0.08"/><circle cx="540" cy="340" r="1.5" fill="#f5ebd7" opacity="0.08"/><circle cx="540" cy="390" r="1.5" fill="#f5ebd7" opacity="0.08"/><circle cx="540" cy="440" r="1.5" fill="#f5ebd7" opacity="0.08"/><circle cx="540" cy="490" r="1.5" fill="#f5ebd7" opacity="0.08"/><circle cx="540" cy="540" r="1.5" fill="#f5ebd7" opacity="0.08"/><circle cx="540" cy="590" r="1.5" fill="#f5ebd7" opacity="0.08"/><circle cx="540" cy="640" r="1.5" fill="#f5ebd7" opacity="0.08"/><circle cx="540" cy="690" r="1.5" fill="#f5ebd7" opacity="0.08"/><circle cx="540" cy="740" r="1.5" fill="#f5ebd7" opacity="0.08"/><circle cx="540" cy="790" r="1.5" fill="#f5ebd7" opacity="0.08"/><circle cx="540" cy="840" r="1.5" fill="#f5ebd7" opacity="0.08"/><circle cx="540" cy="890" r="1.5" fill="#f5ebd7" opacity="0.08"/><circle cx="540" cy="940" r="1.5" fill="#f5ebd7" opacity="0.08"/><circle cx="540" cy="990" r="1.5" fill="#f5ebd7" opacity="0.08"/><circle cx="540" cy="1040" r="1.5" fill="#f5ebd7" opacity="0.08"/><circle cx="540" cy="1090" r="1.5" fill="#f5ebd7" opacity="0.08"/><circle cx="540" cy="1140" r="1.5" fill="#f5ebd7" opacity="0.08"/><circle cx="540" cy="1190" r="1.5" fill="#f5ebd7" opacity="0.08"/><circle cx="540" cy="1240" r="1.5" fill="#f5ebd7" opacity="0.08"/><circle cx="540" cy="1290" r="1.5" fill="#f5ebd7" opacity="0.08"/><circle cx="540" cy="1340" r="1.5" fill="#f5ebd7" opacity="0.08"/><circle cx="590" cy="40" r="1.5" fill="#f5ebd7" opacity="0.08"/><circle cx="590" cy="90" r="1.5" fill="#f5ebd7" opacity="0.08"/><circle cx="590" cy="140" r="1.5" fill="#f5ebd7" opacity="0.08"/><circle cx="590" cy="190" r="1.5" fill="#f5ebd7" opacity="0.08"/><circle cx="590" cy="240" r="1.5" fill="#f5ebd7" opacity="0.08"/><circle cx="590" cy="290" r="1.5" fill="#f5ebd7" opacity="0.08"/><circle cx="590" cy="340" r="1.5" fill="#f5ebd7" opacity="0.08"/><circle cx="590" cy="390" r="1.5" fill="#f5ebd7" opacity="0.08"/><circle cx="590" cy="440" r="1.5" fill="#f5ebd7" opacity="0.08"/><circle cx="590" cy="490" r="1.5" fill="#f5ebd7" opacity="0.08"/><circle cx="590" cy="540" r="1.5" fill="#f5ebd7" opacity="0.08"/><circle cx="590" cy="590" r="1.5" fill="#f5ebd7" opacity="0.08"/><circle cx="590" cy="640" r="1.5" fill="#f5ebd7" opacity="0.08"/><circle cx="590" cy="690" r="1.5" fill="#f5ebd7" opacity="0.08"/><circle cx="590" cy="740" r="1.5" fill="#f5ebd7" opacity="0.08"/><circle cx="590" cy="790" r="1.5" fill="#f5ebd7" opacity="0.08"/><circle cx="590" cy="840" r="1.5" fill="#f5ebd7" opacity="0.08"/><circle cx="590" cy="890" r="1.5" fill="#f5ebd7" opacity="0.08"/><circle cx="590" cy="940" r="1.5" fill="#f5ebd7" opacity="0.08"/><circle cx="590" cy="990" r="1.5" fill="#f5ebd7" opacity="0.08"/><circle cx="590" cy="1040" r="1.5" fill="#f5ebd7" opacity="0.08"/><circle cx="590" cy="1090" r="1.5" fill="#f5ebd7" opacity="0.08"/><circle cx="590" cy="1140" r="1.5" fill="#f5ebd7" opacity="0.08"/><circle cx="590" cy="1190" r="1.5" fill="#f5ebd7" opacity="0.08"/><circle cx="590" cy="1240" r="1.5" fill="#f5ebd7" opacity="0.08"/><circle cx="590" cy="1290" r="1.5" fill="#f5ebd7" opacity="0.08"/><circle cx="590" cy="1340" r="1.5" fill="#f5ebd7" opacity="0.08"/><circle cx="640" cy="40" r="1.5" fill="#f5ebd7" opacity="0.08"/><circle cx="640" cy="90" r="1.5" fill="#f5ebd7" opacity="0.08"/><circle cx="640" cy="140" r="1.5" fill="#f5ebd7" opacity="0.08"/><circle cx="640" cy="190" r="1.5" fill="#f5ebd7" opacity="0.08"/><circle cx="640" cy="240" r="1.5" fill="#f5ebd7" opacity="0.08"/><circle cx="640" cy="290" r="1.5" fill="#f5ebd7" opacity="0.08"/><circle cx="640" cy="340" r="1.5" fill="#f5ebd7" opacity="0.08"/><circle cx="640" cy="390" r="1.5" fill="#f5ebd7" opacity="0.08"/><circle cx="640" cy="440" r="1.5" fill="#f5ebd7" opacity="0.08"/><circle cx="640" cy="490" r="1.5" fill="#f5ebd7" opacity="0.08"/><circle cx="640" cy="540" r="1.5" fill="#f5ebd7" opacity="0.08"/><circle cx="640" cy="590" r="1.5" fill="#f5ebd7" opacity="0.08"/><circle cx="640" cy="640" r="1.5" fill="#f5ebd7" opacity="0.08"/><circle cx="640" cy="690" r="1.5" fill="#f5ebd7" opacity="0.08"/><circle cx="640" cy="740" r="1.5" fill="#f5ebd7" opacity="0.08"/><circle cx="640" cy="790" r="1.5" fill="#f5ebd7" opacity="0.08"/><circle cx="640" cy="840" r="1.5" fill="#f5ebd7" opacity="0.08"/><circle cx="640" cy="890" r="1.5" fill="#f5ebd7" opacity="0.08"/><circle cx="640" cy="940" r="1.5" fill="#f5ebd7" opacity="0.08"/><circle cx="640" cy="990" r="1.5" fill="#f5ebd7" opacity="0.08"/><circle cx="640" cy="1040" r="1.5" fill="#f5ebd7" opacity="0.08"/><circle cx="640" cy="1090" r="1.5" fill="#f5ebd7" opacity="0.08"/><circle cx="640" cy="1140" r="1.5" fill="#f5ebd7" opacity="0.08"/><circle cx="640" cy="1190" r="1.5" fill="#f5ebd7" opacity="0.08"/><circle cx="640" cy="1240" r="1.5" fill="#f5ebd7" opacity="0.08"/><circle cx="640" cy="1290" r="1.5" fill="#f5ebd7" opacity="0.08"/><circle cx="640" cy="1340" r="1.5" fill="#f5ebd7" opacity="0.08"/><circle cx="690" cy="40" r="1.5" fill="#f5ebd7" opacity="0.08"/><circle cx="690" cy="90" r="1.5" fill="#f5ebd7" opacity="0.08"/><circle cx="690" cy="140" r="1.5" fill="#f5ebd7" opacity="0.08"/><circle cx="690" cy="190" r="1.5" fill="#f5ebd7" opacity="0.08"/><circle cx="690" cy="240" r="1.5" fill="#f5ebd7" opacity="0.08"/><circle cx="690" cy="290" r="1.5" fill="#f5ebd7" opacity="0.08"/><circle cx="690" cy="340" r="1.5" fill="#f5ebd7" opacity="0.08"/><circle cx="690" cy="390" r="1.5" fill="#f5ebd7" opacity="0.08"/><circle cx="690" cy="440" r="1.5" fill="#f5ebd7" opacity="0.08"/><circle cx="690" cy="490" r="1.5" fill="#f5ebd7" opacity="0.08"/><circle cx="690" cy="540" r="1.5" fill="#f5ebd7" opacity="0.08"/><circle cx="690" cy="590" r="1.5" fill="#f5ebd7" opacity="0.08"/><circle cx="690" cy="640" r="1.5" fill="#f5ebd7" opacity="0.08"/><circle cx="690" cy="690" r="1.5" fill="#f5ebd7" opacity="0.08"/><circle cx="690" cy="740" r="1.5" fill="#f5ebd7" opacity="0.08"/><circle cx="690" cy="790" r="1.5" fill="#f5ebd7" opacity="0.08"/><circle cx="690" cy="840" r="1.5" fill="#f5ebd7" opacity="0.08"/><circle cx="690" cy="890" r="1.5" fill="#f5ebd7" opacity="0.08"/><circle cx="690" cy="940" r="1.5" fill="#f5ebd7" opacity="0.08"/><circle cx="690" cy="990" r="1.5" fill="#f5ebd7" opacity="0.08"/><circle cx="690" cy="1040" r="1.5" fill="#f5ebd7" opacity="0.08"/><circle cx="690" cy="1090" r="1.5" fill="#f5ebd7" opacity="0.08"/><circle cx="690" cy="1140" r="1.5" fill="#f5ebd7" opacity="0.08"/><circle cx="690" cy="1190" r="1.5" fill="#f5ebd7" opacity="0.08"/><circle cx="690" cy="1240" r="1.5" fill="#f5ebd7" opacity="0.08"/><circle cx="690" cy="1290" r="1.5" fill="#f5ebd7" opacity="0.08"/><circle cx="690" cy="1340" r="1.5" fill="#f5ebd7" opacity="0.08"/><circle cx="740" cy="40" r="1.5" fill="#f5ebd7" opacity="0.08"/><circle cx="740" cy="90" r="1.5" fill="#f5ebd7" opacity="0.08"/><circle cx="740" cy="140" r="1.5" fill="#f5ebd7" opacity="0.08"/><circle cx="740" cy="190" r="1.5" fill="#f5ebd7" opacity="0.08"/><circle cx="740" cy="240" r="1.5" fill="#f5ebd7" opacity="0.08"/><circle cx="740" cy="290" r="1.5" fill="#f5ebd7" opacity="0.08"/><circle cx="740" cy="340" r="1.5" fill="#f5ebd7" opacity="0.08"/><circle cx="740" cy="390" r="1.5" fill="#f5ebd7" opacity="0.08"/><circle cx="740" cy="440" r="1.5" fill="#f5ebd7" opacity="0.08"/><circle cx="740" cy="490" r="1.5" fill="#f5ebd7" opacity="0.08"/><circle cx="740" cy="540" r="1.5" fill="#f5ebd7" opacity="0.08"/><circle cx="740" cy="590" r="1.5" fill="#f5ebd7" opacity="0.08"/><circle cx="740" cy="640" r="1.5" fill="#f5ebd7" opacity="0.08"/><circle cx="740" cy="690" r="1.5" fill="#f5ebd7" opacity="0.08"/><circle cx="740" cy="740" r="1.5" fill="#f5ebd7" opacity="0.08"/><circle cx="740" cy="790" r="1.5" fill="#f5ebd7" opacity="0.08"/><circle cx="740" cy="840" r="1.5" fill="#f5ebd7" opacity="0.08"/><circle cx="740" cy="890" r="1.5" fill="#f5ebd7" opacity="0.08"/><circle cx="740" cy="940" r="1.5" fill="#f5ebd7" opacity="0.08"/><circle cx="740" cy="990" r="1.5" fill="#f5ebd7" opacity="0.08"/><circle cx="740" cy="1040" r="1.5" fill="#f5ebd7" opacity="0.08"/><circle cx="740" cy="1090" r="1.5" fill="#f5ebd7" opacity="0.08"/><circle cx="740" cy="1140" r="1.5" fill="#f5ebd7" opacity="0.08"/><circle cx="740" cy="1190" r="1.5" fill="#f5ebd7" opacity="0.08"/><circle cx="740" cy="1240" r="1.5" fill="#f5ebd7" opacity="0.08"/><circle cx="740" cy="1290" r="1.5" fill="#f5ebd7" opacity="0.08"/><circle cx="740" cy="1340" r="1.5" fill="#f5ebd7" opacity="0.08"/><circle cx="790" cy="40" r="1.5" fill="#f5ebd7" opacity="0.08"/><circle cx="790" cy="90" r="1.5" fill="#f5ebd7" opacity="0.08"/><circle cx="790" cy="140" r="1.5" fill="#f5ebd7" opacity="0.08"/><circle cx="790" cy="190" r="1.5" fill="#f5ebd7" opacity="0.08"/><circle cx="790" cy="240" r="1.5" fill="#f5ebd7" opacity="0.08"/><circle cx="790" cy="290" r="1.5" fill="#f5ebd7" opacity="0.08"/><circle cx="790" cy="340" r="1.5" fill="#f5ebd7" opacity="0.08"/><circle cx="790" cy="390" r="1.5" fill="#f5ebd7" opacity="0.08"/><circle cx="790" cy="440" r="1.5" fill="#f5ebd7" opacity="0.08"/><circle cx="790" cy="490" r="1.5" fill="#f5ebd7" opacity="0.08"/><circle cx="790" cy="540" r="1.5" fill="#f5ebd7" opacity="0.08"/><circle cx="790" cy="590" r="1.5" fill="#f5ebd7" opacity="0.08"/><circle cx="790" cy="640" r="1.5" fill="#f5ebd7" opacity="0.08"/><circle cx="790" cy="690" r="1.5" fill="#f5ebd7" opacity="0.08"/><circle cx="790" cy="740" r="1.5" fill="#f5ebd7" opacity="0.08"/><circle cx="790" cy="790" r="1.5" fill="#f5ebd7" opacity="0.08"/><circle cx="790" cy="840" r="1.5" fill="#f5ebd7" opacity="0.08"/><circle cx="790" cy="890" r="1.5" fill="#f5ebd7" opacity="0.08"/><circle cx="790" cy="940" r="1.5" fill="#f5ebd7" opacity="0.08"/><circle cx="790" cy="990" r="1.5" fill="#f5ebd7" opacity="0.08"/><circle cx="790" cy="1040" r="1.5" fill="#f5ebd7" opacity="0.08"/><circle cx="790" cy="1090" r="1.5" fill="#f5ebd7" opacity="0.08"/><circle cx="790" cy="1140" r="1.5" fill="#f5ebd7" opacity="0.08"/><circle cx="790" cy="1190" r="1.5" fill="#f5ebd7" opacity="0.08"/><circle cx="790" cy="1240" r="1.5" fill="#f5ebd7" opacity="0.08"/><circle cx="790" cy="1290" r="1.5" fill="#f5ebd7" opacity="0.08"/><circle cx="790" cy="1340" r="1.5" fill="#f5ebd7" opacity="0.08"/><circle cx="840" cy="40" r="1.5" fill="#f5ebd7" opacity="0.08"/><circle cx="840" cy="90" r="1.5" fill="#f5ebd7" opacity="0.08"/><circle cx="840" cy="140" r="1.5" fill="#f5ebd7" opacity="0.08"/><circle cx="840" cy="190" r="1.5" fill="#f5ebd7" opacity="0.08"/><circle cx="840" cy="240" r="1.5" fill="#f5ebd7" opacity="0.08"/><circle cx="840" cy="290" r="1.5" fill="#f5ebd7" opacity="0.08"/><circle cx="840" cy="340" r="1.5" fill="#f5ebd7" opacity="0.08"/><circle cx="840" cy="390" r="1.5" fill="#f5ebd7" opacity="0.08"/><circle cx="840" cy="440" r="1.5" fill="#f5ebd7" opacity="0.08"/><circle cx="840" cy="490" r="1.5" fill="#f5ebd7" opacity="0.08"/><circle cx="840" cy="540" r="1.5" fill="#f5ebd7" opacity="0.08"/><circle cx="840" cy="590" r="1.5" fill="#f5ebd7" opacity="0.08"/><circle cx="840" cy="640" r="1.5" fill="#f5ebd7" opacity="0.08"/><circle cx="840" cy="690" r="1.5" fill="#f5ebd7" opacity="0.08"/><circle cx="840" cy="740" r="1.5" fill="#f5ebd7" opacity="0.08"/><circle cx="840" cy="790" r="1.5" fill="#f5ebd7" opacity="0.08"/><circle cx="840" cy="840" r="1.5" fill="#f5ebd7" opacity="0.08"/><circle cx="840" cy="890" r="1.5" fill="#f5ebd7" opacity="0.08"/><circle cx="840" cy="940" r="1.5" fill="#f5ebd7" opacity="0.08"/><circle cx="840" cy="990" r="1.5" fill="#f5ebd7" opacity="0.08"/><circle cx="840" cy="1040" r="1.5" fill="#f5ebd7" opacity="0.08"/><circle cx="840" cy="1090" r="1.5" fill="#f5ebd7" opacity="0.08"/><circle cx="840" cy="1140" r="1.5" fill="#f5ebd7" opacity="0.08"/><circle cx="840" cy="1190" r="1.5" fill="#f5ebd7" opacity="0.08"/><circle cx="840" cy="1240" r="1.5" fill="#f5ebd7" opacity="0.08"/><circle cx="840" cy="1290" r="1.5" fill="#f5ebd7" opacity="0.08"/><circle cx="840" cy="1340" r="1.5" fill="#f5ebd7" opacity="0.08"/><circle cx="890" cy="40" r="1.5" fill="#f5ebd7" opacity="0.08"/><circle cx="890" cy="90" r="1.5" fill="#f5ebd7" opacity="0.08"/><circle cx="890" cy="140" r="1.5" fill="#f5ebd7" opacity="0.08"/><circle cx="890" cy="190" r="1.5" fill="#f5ebd7" opacity="0.08"/><circle cx="890" cy="240" r="1.5" fill="#f5ebd7" opacity="0.08"/><circle cx="890" cy="290" r="1.5" fill="#f5ebd7" opacity="0.08"/><circle cx="890" cy="340" r="1.5" fill="#f5ebd7" opacity="0.08"/><circle cx="890" cy="390" r="1.5" fill="#f5ebd7" opacity="0.08"/><circle cx="890" cy="440" r="1.5" fill="#f5ebd7" opacity="0.08"/><circle cx="890" cy="490" r="1.5" fill="#f5ebd7" opacity="0.08"/><circle cx="890" cy="540" r="1.5" fill="#f5ebd7" opacity="0.08"/><circle cx="890" cy="590" r="1.5" fill="#f5ebd7" opacity="0.08"/><circle cx="890" cy="640" r="1.5" fill="#f5ebd7" opacity="0.08"/><circle cx="890" cy="690" r="1.5" fill="#f5ebd7" opacity="0.08"/><circle cx="890" cy="740" r="1.5" fill="#f5ebd7" opacity="0.08"/><circle cx="890" cy="790" r="1.5" fill="#f5ebd7" opacity="0.08"/><circle cx="890" cy="840" r="1.5" fill="#f5ebd7" opacity="0.08"/><circle cx="890" cy="890" r="1.5" fill="#f5ebd7" opacity="0.08"/><circle cx="890" cy="940" r="1.5" fill="#f5ebd7" opacity="0.08"/><circle cx="890" cy="990" r="1.5" fill="#f5ebd7" opacity="0.08"/><circle cx="890" cy="1040" r="1.5" fill="#f5ebd7" opacity="0.08"/><circle cx="890" cy="1090" r="1.5" fill="#f5ebd7" opacity="0.08"/><circle cx="890" cy="1140" r="1.5" fill="#f5ebd7" opacity="0.08"/><circle cx="890" cy="1190" r="1.5" fill="#f5ebd7" opacity="0.08"/><circle cx="890" cy="1240" r="1.5" fill="#f5ebd7" opacity="0.08"/><circle cx="890" cy="1290" r="1.5" fill="#f5ebd7" opacity="0.08"/><circle cx="890" cy="1340" r="1.5" fill="#f5ebd7" opacity="0.08"/><circle cx="940" cy="40" r="1.5" fill="#f5ebd7" opacity="0.08"/><circle cx="940" cy="90" r="1.5" fill="#f5ebd7" opacity="0.08"/><circle cx="940" cy="140" r="1.5" fill="#f5ebd7" opacity="0.08"/><circle cx="940" cy="190" r="1.5" fill="#f5ebd7" opacity="0.08"/><circle cx="940" cy="240" r="1.5" fill="#f5ebd7" opacity="0.08"/><circle cx="940" cy="290" r="1.5" fill="#f5ebd7" opacity="0.08"/><circle cx="940" cy="340" r="1.5" fill="#f5ebd7" opacity="0.08"/><circle cx="940" cy="390" r="1.5" fill="#f5ebd7" opacity="0.08"/><circle cx="940" cy="440" r="1.5" fill="#f5ebd7" opacity="0.08"/><circle cx="940" cy="490" r="1.5" fill="#f5ebd7" opacity="0.08"/><circle cx="940" cy="540" r="1.5" fill="#f5ebd7" opacity="0.08"/><circle cx="940" cy="590" r="1.5" fill="#f5ebd7" opacity="0.08"/><circle cx="940" cy="640" r="1.5" fill="#f5ebd7" opacity="0.08"/><circle cx="940" cy="690" r="1.5" fill="#f5ebd7" opacity="0.08"/><circle cx="940" cy="740" r="1.5" fill="#f5ebd7" opacity="0.08"/><circle cx="940" cy="790" r="1.5" fill="#f5ebd7" opacity="0.08"/><circle cx="940" cy="840" r="1.5" fill="#f5ebd7" opacity="0.08"/><circle cx="940" cy="890" r="1.5" fill="#f5ebd7" opacity="0.08"/><circle cx="940" cy="940" r="1.5" fill="#f5ebd7" opacity="0.08"/><circle cx="940" cy="990" r="1.5" fill="#f5ebd7" opacity="0.08"/><circle cx="940" cy="1040" r="1.5" fill="#f5ebd7" opacity="0.08"/><circle cx="940" cy="1090" r="1.5" fill="#f5ebd7" opacity="0.08"/><circle cx="940" cy="1140" r="1.5" fill="#f5ebd7" opacity="0.08"/><circle cx="940" cy="1190" r="1.5" fill="#f5ebd7" opacity="0.08"/><circle cx="940" cy="1240" r="1.5" fill="#f5ebd7" opacity="0.08"/><circle cx="940" cy="1290" r="1.5" fill="#f5ebd7" opacity="0.08"/><circle cx="940" cy="1340" r="1.5" fill="#f5ebd7" opacity="0.08"/><circle cx="990" cy="40" r="1.5" fill="#f5ebd7" opacity="0.08"/><circle cx="990" cy="90" r="1.5" fill="#f5ebd7" opacity="0.08"/><circle cx="990" cy="140" r="1.5" fill="#f5ebd7" opacity="0.08"/><circle cx="990" cy="190" r="1.5" fill="#f5ebd7" opacity="0.08"/><circle cx="990" cy="240" r="1.5" fill="#f5ebd7" opacity="0.08"/><circle cx="990" cy="290" r="1.5" fill="#f5ebd7" opacity="0.08"/><circle cx="990" cy="340" r="1.5" fill="#f5ebd7" opacity="0.08"/><circle cx="990" cy="390" r="1.5" fill="#f5ebd7" opacity="0.08"/><circle cx="990" cy="440" r="1.5" fill="#f5ebd7" opacity="0.08"/><circle cx="990" cy="490" r="1.5" fill="#f5ebd7" opacity="0.08"/><circle cx="990" cy="540" r="1.5" fill="#f5ebd7" opacity="0.08"/><circle cx="990" cy="590" r="1.5" fill="#f5ebd7" opacity="0.08"/><circle cx="990" cy="640" r="1.5" fill="#f5ebd7" opacity="0.08"/><circle cx="990" cy="690" r="1.5" fill="#f5ebd7" opacity="0.08"/><circle cx="990" cy="740" r="1.5" fill="#f5ebd7" opacity="0.08"/><circle cx="990" cy="790" r="1.5" fill="#f5ebd7" opacity="0.08"/><circle cx="990" cy="840" r="1.5" fill="#f5ebd7" opacity="0.08"/><circle cx="990" cy="890" r="1.5" fill="#f5ebd7" opacity="0.08"/><circle cx="990" cy="940" r="1.5" fill="#f5ebd7" opacity="0.08"/><circle cx="990" cy="990" r="1.5" fill="#f5ebd7" opacity="0.08"/><circle cx="990" cy="1040" r="1.5" fill="#f5ebd7" opacity="0.08"/><circle cx="990" cy="1090" r="1.5" fill="#f5ebd7" opacity="0.08"/><circle cx="990" cy="1140" r="1.5" fill="#f5ebd7" opacity="0.08"/><circle cx="990" cy="1190" r="1.5" fill="#f5ebd7" opacity="0.08"/><circle cx="990" cy="1240" r="1.5" fill="#f5ebd7" opacity="0.08"/><circle cx="990" cy="1290" r="1.5" fill="#f5ebd7" opacity="0.08"/><circle cx="990" cy="1340" r="1.5" fill="#f5ebd7" opacity="0.08"/><circle cx="1040" cy="40" r="1.5" fill="#f5ebd7" opacity="0.08"/><circle cx="1040" cy="90" r="1.5" fill="#f5ebd7" opacity="0.08"/><circle cx="1040" cy="140" r="1.5" fill="#f5ebd7" opacity="0.08"/><circle cx="1040" cy="190" r="1.5" fill="#f5ebd7" opacity="0.08"/><circle cx="1040" cy="240" r="1.5" fill="#f5ebd7" opacity="0.08"/><circle cx="1040" cy="290" r="1.5" fill="#f5ebd7" opacity="0.08"/><circle cx="1040" cy="340" r="1.5" fill="#f5ebd7" opacity="0.08"/><circle cx="1040" cy="390" r="1.5" fill="#f5ebd7" opacity="0.08"/><circle cx="1040" cy="440" r="1.5" fill="#f5ebd7" opacity="0.08"/><circle cx="1040" cy="490" r="1.5" fill="#f5ebd7" opacity="0.08"/><circle cx="1040" cy="540" r="1.5" fill="#f5ebd7" opacity="0.08"/><circle cx="1040" cy="590" r="1.5" fill="#f5ebd7" opacity="0.08"/><circle cx="1040" cy="640" r="1.5" fill="#f5ebd7" opacity="0.08"/><circle cx="1040" cy="690" r="1.5" fill="#f5ebd7" opacity="0.08"/><circle cx="1040" cy="740" r="1.5" fill="#f5ebd7" opacity="0.08"/><circle cx="1040" cy="790" r="1.5" fill="#f5ebd7" opacity="0.08"/><circle cx="1040" cy="840" r="1.5" fill="#f5ebd7" opacity="0.08"/><circle cx="1040" cy="890" r="1.5" fill="#f5ebd7" opacity="0.08"/><circle cx="1040" cy="940" r="1.5" fill="#f5ebd7" opacity="0.08"/><circle cx="1040" cy="990" r="1.5" fill="#f5ebd7" opacity="0.08"/><circle cx="1040" cy="1040" r="1.5" fill="#f5ebd7" opacity="0.08"/><circle cx="1040" cy="1090" r="1.5" fill="#f5ebd7" opacity="0.08"/><circle cx="1040" cy="1140" r="1.5" fill="#f5ebd7" opacity="0.08"/><circle cx="1040" cy="1190" r="1.5" fill="#f5ebd7" opacity="0.08"/><circle cx="1040" cy="1240" r="1.5" fill="#f5ebd7" opacity="0.08"/><circle cx="1040" cy="1290" r="1.5" fill="#f5ebd7" opacity="0.08"/><circle cx="1040" cy="1340" r="1.5" fill="#f5ebd7" opacity="0.08"/>

  <!-- Bold horizontal accent line (single, asymmetric) -->
  <rect x="0" y="280" width="1080" height="3" fill="url(#accHome)"/>

  <!-- Asymmetric pitch lines (just bottom half for asymmetric feel) -->
  <g stroke="#f5ebd7" stroke-width="3" fill="none" opacity="0.25">
    <line x1="40" y1="900" x2="1040" y2="900"/>
    <path d="M 40 900 L 40 1300 L 1040 1300 L 1040 900" stroke-opacity="0.2"/>
  </g>

  <!-- Brand mark: Seismic WC 2026 (top right) -->
  <g transform="translate(870 90)" opacity="0.9">
    <text x="0" y="0" font-family="Georgia, serif" font-size="14" font-weight="700" fill="#f5ebd7" letter-spacing="3">SEISMIC</text>
    <text x="0" y="22" font-family="Georgia, serif" font-size="11" font-weight="500" fill="#d4a020" letter-spacing="2">WC 2026</text>
  </g>

  <!-- Vignette -->
  <rect width="1080" height="1350" fill="url(#vigHome)"/>
</svg>